<svg width="36" height="34" viewBox="0 0 36 34" fill="none" xmlns="http://www.w3.org/2000/svg">
<path d="M16.2011 11.0748C16.2011 13.3782 14.1604 15.2993 11.7098 15.2993C9.55573 15.2993 7.7191 13.8129 7.30748 11.8885C7.23945 11.5998 7.20108 11.3028 7.20108 10.996C7.20108 8.67618 9.19643 6.79933 11.6627 6.79933C12.9185 6.79933 14.0557 7.29807 14.8703 8.09377C15.6883 8.86157 16.2011 9.91977 16.2011 11.0748Z" fill="#CFCFCF"/>
<path fill-rule="evenodd" clip-rule="evenodd" d="M25.8372 0C31.9158 0 36 4.0154 36 10.0096V23.9734C36 24.1242 35.9832 24.2655 35.9665 24.4068C35.9547 24.5061 35.9429 24.6054 35.937 24.7078C35.9331 24.7697 35.9313 24.8316 35.9294 24.8936C35.9269 24.9761 35.9244 25.0587 35.9172 25.1413C35.9136 25.1736 35.9069 25.2046 35.9001 25.2356C35.8934 25.2667 35.8866 25.2977 35.883 25.33C35.8236 25.8638 35.7318 26.3738 35.604 26.8685C35.5738 26.9921 35.5389 27.1113 35.5037 27.2315L35.496 27.2578C35.352 27.7372 35.1828 28.1945 34.9794 28.6314C34.9438 28.7049 34.9062 28.7765 34.8686 28.8481C34.8435 28.8958 34.8185 28.9435 34.794 28.9918C34.5744 29.4083 34.3368 29.8078 34.0614 30.1784C34.0105 30.247 33.9562 30.3113 33.9019 30.3757C33.866 30.4182 33.8301 30.4609 33.795 30.5048C33.5088 30.855 33.21 31.1899 32.8716 31.4942C32.804 31.5549 32.731 31.6104 32.658 31.6659C32.6123 31.7006 32.5667 31.7353 32.5224 31.7713C32.175 32.0535 31.8204 32.3238 31.4298 32.555C31.3446 32.6056 31.254 32.648 31.1638 32.6903C31.1054 32.7176 31.0472 32.7449 30.9906 32.7743C30.5928 32.9817 30.1914 33.184 29.754 33.3404C29.6488 33.3782 29.5368 33.4055 29.4245 33.4329C29.3447 33.4523 29.2648 33.4718 29.187 33.4951C29.1481 33.5065 29.1092 33.5179 29.0703 33.5293C28.6796 33.6441 28.2901 33.7586 27.8694 33.8266C27.6257 33.8669 27.367 33.8824 27.1081 33.898C26.9961 33.9047 26.8841 33.9114 26.7732 33.9201C26.654 33.9285 26.5371 33.9421 26.4201 33.9557C26.2297 33.9778 26.039 34 25.8372 34H10.1484C9.4716 34 8.8254 33.9354 8.2008 33.8385C8.1774 33.8351 8.1558 33.8317 8.1342 33.8283C5.6988 33.4322 3.6774 32.3221 2.2608 30.6476C2.25096 30.6476 2.2471 30.6413 2.24195 30.633C2.23863 30.6276 2.23476 30.6213 2.2284 30.6153C0.8046 28.9221 0 26.6458 0 23.9734V10.0096C0 4.0154 4.0878 0 10.1484 0H25.8372ZM10.1484 2.37149C5.5098 2.37149 2.5128 5.37539 2.5128 10.0096V23.9734C2.5128 25.2739 2.7684 26.435 3.2058 27.4397C3.22469 27.4184 3.63685 26.944 4.17444 26.3253C5.22469 25.1166 6.75368 23.3568 6.7644 23.3478C8.01 22.0048 10.3482 20.0022 13.4172 21.2143C14.0897 21.4776 14.6875 21.8384 15.2378 22.1705C15.2914 22.2029 15.3445 22.2349 15.3972 22.2666C16.4286 22.9177 17.0352 23.2237 17.6652 23.1727C17.9262 23.1387 18.171 23.0656 18.4032 22.9296C19.2791 22.4196 21.55 19.3806 22.2301 18.4706C22.3298 18.3371 22.3953 18.2495 22.4172 18.2223C24.3792 15.8083 27.4032 15.1623 29.9232 16.5903C30.2616 16.7807 32.6862 18.3804 33.489 19.023V10.0096C33.489 5.37539 30.492 2.37149 25.8372 2.37149H10.1484Z" fill="#CFCFCF"/>
</svg>
