<svg width="248" height="238" viewBox="0 0 248 238" fill="none" xmlns="http://www.w3.org/2000/svg">
<path d="M111.607 77.5233C111.607 93.6472 97.5493 107.095 80.6675 107.095C65.8284 107.095 53.176 96.6905 50.3404 83.2195C49.8718 81.1982 49.6074 79.1196 49.6074 76.972C49.6074 60.7333 63.3532 47.5953 80.3431 47.5953C88.9943 47.5953 96.8284 51.0865 102.44 56.6564C108.075 62.031 111.607 69.4384 111.607 77.5233Z" fill="#CFCFCF"/>
<path fill-rule="evenodd" clip-rule="evenodd" d="M177.99 0C219.864 0 248 28.1078 248 70.0672V167.814C248 168.869 247.885 169.859 247.769 170.848C247.688 171.543 247.607 172.238 247.566 172.955C247.539 173.388 247.527 173.822 247.514 174.255C247.496 174.833 247.479 175.411 247.43 175.989C247.405 176.215 247.358 176.432 247.312 176.65C247.265 176.867 247.219 177.084 247.194 177.31C246.785 181.047 246.152 184.617 245.272 188.08C245.064 188.945 244.824 189.779 244.581 190.621L244.528 190.805C243.536 194.16 242.37 197.361 240.969 200.42C240.724 200.934 240.465 201.435 240.206 201.937C240.033 202.271 239.861 202.605 239.692 202.943C238.179 205.858 236.542 208.655 234.645 211.249C234.294 211.729 233.921 212.179 233.546 212.63C233.299 212.928 233.052 213.226 232.81 213.534C230.838 215.985 228.78 218.329 226.449 220.459C225.983 220.884 225.48 221.273 224.977 221.662C224.663 221.904 224.348 222.147 224.043 222.399C221.65 224.374 219.207 226.267 216.516 227.885C215.929 228.239 215.305 228.536 214.684 228.832C214.282 229.023 213.88 229.214 213.491 229.42C210.75 230.872 207.985 232.288 204.972 233.383C204.247 233.647 203.476 233.838 202.702 234.03C202.152 234.166 201.602 234.303 201.066 234.466C200.798 234.545 200.53 234.625 200.262 234.705C197.57 235.509 194.888 236.31 191.989 236.786C190.31 237.069 188.528 237.177 186.745 237.286C185.973 237.333 185.201 237.38 184.438 237.441C183.616 237.5 182.811 237.595 182.005 237.69C180.694 237.845 179.38 238 177.99 238H69.9112C65.2488 238 60.7972 237.548 56.4944 236.87C56.3332 236.846 56.1844 236.822 56.0356 236.798C39.2584 234.025 25.3332 226.255 15.5744 214.533C15.5066 214.533 15.48 214.489 15.4446 214.431C15.4216 214.393 15.395 214.349 15.3512 214.307C5.5428 202.455 0 186.521 0 167.814V70.0672C0 28.1078 28.1604 0 69.9112 0H177.99ZM69.9112 16.6005C37.9564 16.6005 17.3104 37.6278 17.3104 70.0672V167.814C17.3104 176.917 19.0712 185.045 22.0844 192.078C22.2145 191.929 25.0538 188.608 28.7572 184.277C35.9923 175.816 46.5254 163.498 46.5992 163.435C55.18 154.034 71.2876 140.015 92.4296 148.5C97.0625 150.344 101.181 152.869 104.971 155.194C105.34 155.42 105.707 155.644 106.07 155.866C113.175 160.424 117.354 162.566 121.694 162.209C123.492 161.971 125.178 161.459 126.778 160.507C132.812 156.937 148.456 135.664 153.141 129.294C153.828 128.36 154.279 127.746 154.43 127.556C167.946 110.658 188.778 106.136 206.138 116.132C208.469 117.465 225.172 128.663 230.702 133.161V70.0672C230.702 37.6278 210.056 16.6005 177.99 16.6005H69.9112Z" fill="#CFCFCF"/>
</svg>
