<svg width="24" height="24" viewBox="0 0 24 24" fill="none" xmlns="http://www.w3.org/2000/svg">
<path d="M11.3861 3.42727L11.3862 3.42734L11.3901 3.42366C11.6022 3.22174 11.8793 3.10425 12.14 3.16402L12.14 3.16411L12.1451 3.16509C12.3185 3.1986 12.4673 3.28941 12.616 3.41285C12.6905 3.47469 12.7625 3.5426 12.8375 3.61399C12.8433 3.61946 12.849 3.62496 12.8548 3.63048C12.9231 3.69551 12.9943 3.76332 13.0677 3.82642C14.2236 4.85266 15.3814 5.87465 16.539 6.89652C17.8853 8.08493 19.2314 9.27317 20.5742 10.4677L20.574 10.4679L20.5807 10.4732C20.7877 10.6371 20.8721 10.9086 20.8335 11.1751C20.795 11.4407 20.6382 11.6755 20.394 11.7734C20.1797 11.8496 19.9504 11.8633 19.7021 11.8594C19.6295 11.8583 19.5537 11.8555 19.4761 11.8526C19.297 11.8461 19.1085 11.8391 18.9284 11.8513L18.7885 11.8607V12.0009C18.7885 12.594 18.7885 13.1872 18.7884 13.7804C18.7882 15.5613 18.7881 17.3425 18.7895 19.1232L18.7896 19.2638L18.9298 19.2728C19.1138 19.2847 19.3024 19.2795 19.4827 19.2746C19.5454 19.2729 19.6071 19.2712 19.6672 19.2703C19.9044 19.2666 20.1276 19.2739 20.3418 19.3265C20.5715 19.403 20.7405 19.6016 20.8113 19.8402C20.8826 20.0805 20.8485 20.3417 20.6956 20.532L20.6954 20.5318L20.6899 20.5397C20.5233 20.7768 20.2079 20.8738 19.8895 20.8531L19.8895 20.8528L19.8799 20.8528C17.3277 20.8501 14.7767 20.8504 12.2257 20.8508C9.49245 20.8512 6.7593 20.8515 4.02497 20.8481L4.02497 20.8479L4.0163 20.8484C3.69949 20.8663 3.3839 20.7132 3.25089 20.4434L3.25123 20.4432L3.24583 20.434C3.12789 20.2323 3.12437 19.9774 3.21671 19.7547C3.30841 19.5335 3.48724 19.3615 3.71447 19.3097C3.9263 19.2738 4.14343 19.2692 4.36998 19.2717C4.42633 19.2723 4.48367 19.2734 4.54168 19.2745C4.71404 19.2778 4.89228 19.2812 5.06779 19.273L5.21067 19.2662L5.21073 19.1232C5.21093 18.6147 5.21126 18.1063 5.21159 17.5978C5.2128 15.7338 5.21401 13.8698 5.20885 12.0052L5.20847 11.8664L5.07008 11.856C4.88694 11.8423 4.69618 11.8476 4.51471 11.8526C4.44053 11.8546 4.3679 11.8566 4.29797 11.8573C4.04993 11.8596 3.82003 11.846 3.6045 11.7737C3.36005 11.6775 3.20468 11.4436 3.16715 11.1774C3.12941 10.9097 3.21484 10.6362 3.42013 10.4718L3.42025 10.4719L3.42589 10.4669C4.84563 9.20743 6.26754 7.9516 7.68968 6.69559C8.92209 5.60713 10.1547 4.51852 11.3861 3.42727ZM6.35189 10.0029L6.06779 10.2617L6.45212 10.2638C10.1503 10.2834 13.8501 10.2778 17.5477 10.2666L17.8993 10.2655L17.6553 10.0124C17.4728 9.8232 17.2778 9.64945 17.0841 9.48115C17.0433 9.44569 17.0026 9.41054 16.9621 9.37554C16.809 9.24319 16.6584 9.11301 16.5125 8.97668L16.5126 8.97661L16.5087 8.97324C15.9351 8.47263 15.3642 7.96545 14.7927 7.45772C13.8999 6.66462 13.0056 5.87019 12.0973 5.09732L12.0048 5.01859L11.9085 5.09276C11.7603 5.20701 11.6113 5.32608 11.47 5.45475C10.7231 6.12659 9.96583 6.79308 9.20789 7.46015C8.25047 8.3028 7.29198 9.14639 6.35189 10.0029ZM6.93778 11.8519L6.78953 11.8536L6.78948 12.0018C6.78927 12.5099 6.78894 13.0181 6.78861 13.5263C6.7874 15.3903 6.78619 17.2549 6.79135 19.1189L6.79176 19.2665L6.93937 19.2684C7.43711 19.275 7.9378 19.2806 8.43799 19.2731L8.58584 19.2709L8.58573 19.123C8.58509 18.3119 8.58587 17.5003 8.58665 16.6886C8.58816 15.1269 8.58967 13.5645 8.58104 12.0029L8.58022 11.8563L8.43359 11.8538C7.93486 11.8453 7.43649 11.8463 6.93778 11.8519ZM10.3173 11.8566L10.17 11.8584L10.1692 12.0057C10.1605 13.5666 10.162 15.1283 10.1635 16.6896C10.1643 17.5012 10.1651 18.3127 10.1645 19.1239L10.1644 19.2739L10.3143 19.2741C11.0638 19.2747 11.8133 19.2745 12.5627 19.2743C12.9374 19.2742 13.3121 19.2741 13.6867 19.2741H13.8366L13.8367 19.1241C13.8376 16.7503 13.8376 14.3756 13.8357 12.0018L13.8356 11.8518L13.6856 11.8519C13.3323 11.8522 12.9784 11.8514 12.6243 11.8505C11.8559 11.8487 11.0862 11.8469 10.3173 11.8566ZM15.5657 11.8528L15.4157 11.8525L15.4154 12.0025C15.412 13.7291 15.4126 15.4557 15.4131 17.1817C15.4133 17.829 15.4135 18.4761 15.4135 19.1231V19.2712L15.5616 19.2731C15.8694 19.2772 16.1794 19.2755 16.4878 19.2739C16.6793 19.2729 16.8702 19.2718 17.0595 19.2722L17.2095 19.2725L17.2098 19.1225C17.2128 17.5961 17.2123 16.0696 17.2119 14.5436C17.2116 13.6962 17.2113 12.8489 17.2117 12.0019L17.2117 11.8538L17.0636 11.8519C16.7558 11.8478 16.4459 11.8495 16.1376 11.8511C15.946 11.8522 15.7551 11.8532 15.5657 11.8528Z" fill="#2B2B2B" stroke="#EFEFEF" stroke-width="0.3"/>
</svg>
