<svg width="18" height="18" viewBox="0 0 18 18" fill="none" xmlns="http://www.w3.org/2000/svg">
<path fill-rule="evenodd" clip-rule="evenodd" d="M10.7689 8.36102H13.0755C13.4252 8.36102 13.7 8.07188 13.7 7.7232C13.7 7.36602 13.4252 7.08538 13.0755 7.08538H10.7689C10.4192 7.08538 10.1444 7.36602 10.1444 7.7232C10.1444 8.07188 10.4192 8.36102 10.7689 8.36102ZM15.8151 3.93966C16.3231 3.93966 16.6561 4.11825 16.9892 4.50944C17.3223 4.90064 17.3806 5.46192 17.3056 5.97132L16.5146 11.5501C16.3647 12.6225 15.4654 13.4125 14.4079 13.4125H5.32329C4.21582 13.4125 3.29987 12.546 3.20827 11.4234L2.4422 2.15292L1.18485 1.93181C0.851777 1.87228 0.618626 1.54061 0.676914 1.20044C0.735201 0.852619 1.05995 0.622154 1.40135 0.67403L3.3873 0.979332C3.67041 1.03121 3.87859 1.26848 3.90357 1.55762L4.06178 3.46257C4.08676 3.73556 4.30325 3.93966 4.56971 3.93966H15.8151ZM5.19001 14.7566C4.49056 14.7566 3.92433 15.3349 3.92433 16.0493C3.92433 16.7551 4.49056 17.3334 5.19001 17.3334C5.88114 17.3334 6.44737 16.7551 6.44737 16.0493C6.44737 15.3349 5.88114 14.7566 5.19001 14.7566ZM14.5575 14.7566C13.8581 14.7566 13.2919 15.3349 13.2919 16.0493C13.2919 16.7551 13.8581 17.3334 14.5575 17.3334C15.2487 17.3334 15.8149 16.7551 15.8149 16.0493C15.8149 15.3349 15.2487 14.7566 14.5575 14.7566Z" fill="#2B2B2B"/>
</svg>
