<svg width="24" height="24" viewBox="0 0 24 24" fill="none" xmlns="http://www.w3.org/2000/svg">
<path d="M18.03 19.5H5.97C5.08316 19.499 4.23292 19.1463 3.60582 18.5192C2.97873 17.8921 2.62599 17.0418 2.625 16.155V8.22C2.62599 7.33316 2.97873 6.48292 3.60582 5.85582C4.23292 5.22873 5.08316 4.87599 5.97 4.875H18.03C18.9168 4.87599 19.7671 5.22873 20.3942 5.85582C21.0213 6.48292 21.374 7.33316 21.375 8.22V16.155C21.374 17.0418 21.0213 17.8921 20.3942 18.5192C19.7671 19.1463 18.9168 19.499 18.03 19.5ZM5.97 6.375C5.48068 6.375 5.01139 6.56938 4.66539 6.91539C4.31938 7.26139 4.125 7.73068 4.125 8.22V16.155C4.125 16.6443 4.31938 17.1136 4.66539 17.4596C5.01139 17.8056 5.48068 18 5.97 18H18.03C18.5193 18 18.9886 17.8056 19.3346 17.4596C19.6806 17.1136 19.875 16.6443 19.875 16.155V8.22C19.875 7.73068 19.6806 7.26139 19.3346 6.91539C18.9886 6.56938 18.5193 6.375 18.03 6.375H5.97Z" fill="#2B2B2B"/>
<path d="M20.625 10.875H3.375C3.17609 10.875 2.98532 10.796 2.84467 10.6553C2.70402 10.5147 2.625 10.3239 2.625 10.125C2.625 9.92609 2.70402 9.73532 2.84467 9.59467C2.98532 9.45402 3.17609 9.375 3.375 9.375H20.625C20.8239 9.375 21.0147 9.45402 21.1553 9.59467C21.296 9.73532 21.375 9.92609 21.375 10.125C21.375 10.3239 21.296 10.5147 21.1553 10.6553C21.0147 10.796 20.8239 10.875 20.625 10.875Z" fill="#2B2B2B"/>
<path d="M9 13.875H6.375C6.17609 13.875 5.98532 13.796 5.84467 13.6553C5.70402 13.5147 5.625 13.3239 5.625 13.125C5.625 12.9261 5.70402 12.7353 5.84467 12.5947C5.98532 12.454 6.17609 12.375 6.375 12.375H9C9.19891 12.375 9.38968 12.454 9.53033 12.5947C9.67098 12.7353 9.75 12.9261 9.75 13.125C9.75 13.3239 9.67098 13.5147 9.53033 13.6553C9.38968 13.796 9.19891 13.875 9 13.875Z" fill="#2B2B2B"/>
</svg>
