<svg width="20" height="20" viewBox="0 0 20 20" fill="none" xmlns="http://www.w3.org/2000/svg">
<path fill-rule="evenodd" clip-rule="evenodd" d="M4.11667 1.33325H6.93333C8.10833 1.33325 9.05 2.29159 9.05 3.46742V6.30825C9.05 7.49158 8.10833 8.44159 6.93333 8.44159H4.11667C2.95 8.44159 2 7.49158 2 6.30825V3.46742C2 2.29159 2.95 1.33325 4.11667 1.33325ZM4.11667 10.8913H6.93333C8.10833 10.8913 9.05 11.8422 9.05 13.0255V15.8663C9.05 17.0413 8.10833 17.9997 6.93333 17.9997H4.11667C2.95 17.9997 2 17.0413 2 15.8663V13.0255C2 11.8422 2.95 10.8913 4.11667 10.8913ZM16.5502 1.33325H13.7335C12.5585 1.33325 11.6168 2.29159 11.6168 3.46742V6.30825C11.6168 7.49158 12.5585 8.44159 13.7335 8.44159H16.5502C17.7168 8.44159 18.6668 7.49158 18.6668 6.30825V3.46742C18.6668 2.29159 17.7168 1.33325 16.5502 1.33325ZM13.7335 10.8913H16.5502C17.7168 10.8913 18.6668 11.8422 18.6668 13.0255V15.8663C18.6668 17.0413 17.7168 17.9997 16.5502 17.9997H13.7335C12.5585 17.9997 11.6168 17.0413 11.6168 15.8663V13.0255C11.6168 11.8422 12.5585 10.8913 13.7335 10.8913Z" fill="#2B2B2B"/>
</svg>
