<svg width="20" height="20" viewBox="0 0 20 20" fill="none" xmlns="http://www.w3.org/2000/svg">
<path fill-rule="evenodd" clip-rule="evenodd" d="M6.10964 1.66699H13.8921C16.7263 1.66699 18.3263 3.27449 18.3346 6.10866V13.892C18.3346 16.7253 16.7263 18.3337 13.8921 18.3337H6.10964C3.27547 18.3337 1.66797 16.7253 1.66797 13.892V6.10866C1.66797 3.27449 3.27547 1.66699 6.10964 1.66699ZM10.042 14.8836C10.4012 14.8836 10.7004 14.617 10.7337 14.2586V5.76698C10.767 5.50865 10.6429 5.24948 10.4179 5.10865C10.1837 4.96698 9.90037 4.96698 9.6762 5.10865C9.45037 5.24948 9.3262 5.50865 9.35037 5.76698V14.2586C9.39287 14.617 9.69204 14.8836 10.042 14.8836ZM13.8764 14.8837C14.2264 14.8837 14.5256 14.617 14.5681 14.2587V11.5253C14.5923 11.2578 14.4681 11.0087 14.2423 10.867C14.0181 10.7253 13.7348 10.7253 13.5014 10.867C13.2756 11.0087 13.1514 11.2578 13.1848 11.5253V14.2587C13.2181 14.617 13.5173 14.8837 13.8764 14.8837ZM6.85054 14.2587C6.81721 14.617 6.51804 14.8837 6.15888 14.8837C5.80054 14.8837 5.50054 14.617 5.46804 14.2587V8.50032C5.44304 8.24115 5.56721 7.98365 5.79304 7.84199C6.01721 7.70032 6.30138 7.70032 6.52638 7.84199C6.75054 7.98365 6.87638 8.24115 6.85054 8.50032V14.2587Z" fill="#2B2B2B"/>
</svg>
