<svg width="18" height="18" viewBox="0 0 18 18" fill="none" xmlns="http://www.w3.org/2000/svg">
<path fill-rule="evenodd" clip-rule="evenodd" d="M0.667969 9.01248C0.667969 4.62256 4.1763 0.666626 9.01797 0.666626C13.7513 0.666626 17.3346 4.54745 17.3346 8.98744C17.3346 14.1368 13.1346 17.3333 9.0013 17.3333C7.63464 17.3333 6.11797 16.9661 4.9013 16.2483C4.4763 15.9896 4.11797 15.7977 3.65964 15.9479L1.9763 16.4486C1.5513 16.5822 1.16797 16.2483 1.29297 15.7977L1.8513 13.9282C1.94297 13.6695 1.9263 13.3941 1.79297 13.1771C1.0763 11.8584 0.667969 10.4146 0.667969 9.01248ZM7.91784 9.01249C7.91784 9.60504 8.39284 10.0808 8.9845 10.0891C9.57617 10.0891 10.0512 9.60504 10.0512 9.02083C10.0512 8.42828 9.57617 7.95256 8.9845 7.95256C8.40117 7.94422 7.91784 8.42828 7.91784 9.01249ZM11.7594 9.02083C11.7594 9.60504 12.2344 10.0891 12.8261 10.0891C13.4177 10.0891 13.8927 9.60504 13.8927 9.02083C13.8927 8.42828 13.4177 7.95256 12.8261 7.95256C12.2344 7.95256 11.7594 8.42828 11.7594 9.02083ZM5.14294 10.0891C4.55961 10.0891 4.07628 9.60504 4.07628 9.02083C4.07628 8.42828 4.55128 7.95256 5.14294 7.95256C5.73461 7.95256 6.20961 8.42828 6.20961 9.02083C6.20961 9.60504 5.73461 10.0808 5.14294 10.0891Z" fill="#2B2B2B"/>
</svg>
