<svg width="24" height="24" viewBox="0 0 24 24" fill="none" xmlns="http://www.w3.org/2000/svg">
<path d="M13.4096 12.0002L17.7096 7.71019C17.8979 7.52188 18.0037 7.26649 18.0037 7.00019C18.0037 6.73388 17.8979 6.47849 17.7096 6.29019C17.5213 6.10188 17.2659 5.99609 16.9996 5.99609C16.7333 5.99609 16.4779 6.10188 16.2896 6.29019L11.9996 10.5902L7.70957 6.29019C7.52127 6.10188 7.26587 5.99609 6.99957 5.99609C6.73327 5.99609 6.47788 6.10188 6.28957 6.29019C6.10127 6.47849 5.99548 6.73388 5.99548 7.00019C5.99548 7.26649 6.10127 7.52188 6.28957 7.71019L10.5896 12.0002L6.28957 16.2902C6.19584 16.3831 6.12145 16.4937 6.07068 16.6156C6.01991 16.7375 5.99377 16.8682 5.99377 17.0002C5.99377 17.1322 6.01991 17.2629 6.07068 17.3848C6.12145 17.5066 6.19584 17.6172 6.28957 17.7102C6.38254 17.8039 6.49314 17.8783 6.615 17.9291C6.73686 17.9798 6.86756 18.006 6.99957 18.006C7.13158 18.006 7.26229 17.9798 7.38415 17.9291C7.50601 17.8783 7.61661 17.8039 7.70957 17.7102L11.9996 13.4102L16.2896 17.7102C16.3825 17.8039 16.4931 17.8783 16.615 17.9291C16.7369 17.9798 16.8676 18.006 16.9996 18.006C17.1316 18.006 17.2623 17.9798 17.3841 17.9291C17.506 17.8783 17.6166 17.8039 17.7096 17.7102C17.8033 17.6172 17.8777 17.5066 17.9285 17.3848C17.9792 17.2629 18.0054 17.1322 18.0054 17.0002C18.0054 16.8682 17.9792 16.7375 17.9285 16.6156C17.8777 16.4937 17.8033 16.3831 17.7096 16.2902L13.4096 12.0002Z" fill="#1F4F9E"/>
</svg>
