<svg width="19" height="20" viewBox="0 0 19 20" fill="none" xmlns="http://www.w3.org/2000/svg">
<path d="M16.3238 7.46826C16.3238 7.46826 15.7808 14.2033 15.4658 17.0403C15.3158 18.3953 14.4788 19.1893 13.1078 19.2143C10.4988 19.2613 7.88681 19.2643 5.27881 19.2093C3.95981 19.1823 3.13681 18.3783 2.98981 17.0473C2.67281 14.1853 2.13281 7.46826 2.13281 7.46826" stroke="#FF4B55" stroke-width="1.5" stroke-linecap="round" stroke-linejoin="round"/>
<path d="M17.708 4.23975H0.75" stroke="#FF4B55" stroke-width="1.5" stroke-linecap="round" stroke-linejoin="round"/>
<path d="M14.4386 4.23973C13.6536 4.23973 12.9776 3.68473 12.8236 2.91573L12.5806 1.69973C12.4306 1.13873 11.9226 0.750732 11.3436 0.750732H7.11062C6.53162 0.750732 6.02362 1.13873 5.87362 1.69973L5.63062 2.91573C5.47662 3.68473 4.80062 4.23973 4.01562 4.23973" stroke="#FF4B55" stroke-width="1.5" stroke-linecap="round" stroke-linejoin="round"/>
</svg>
