<svg width="24" height="24" viewBox="0 0 24 24" fill="none" xmlns="http://www.w3.org/2000/svg">
<path d="M20.2836 5.27186H9.57445C9.28003 4.39741 8.45292 3.76562 7.48045 3.76562C6.50798 3.76562 5.68088 4.39741 5.38645 5.27186H3.71484C3.32653 5.27186 3.01172 5.58667 3.01172 5.97498C3.01172 6.3633 3.32653 6.67811 3.71484 6.67811H5.3865C5.68092 7.55256 6.50803 8.18434 7.4805 8.18434C8.45297 8.18434 9.28008 7.55256 9.5745 6.67811H20.2836C20.6719 6.67811 20.9867 6.3633 20.9867 5.97498C20.9867 5.58667 20.6719 5.27186 20.2836 5.27186ZM7.48045 6.77809C7.03763 6.77809 6.67734 6.41781 6.67734 5.97498C6.67734 5.53216 7.03763 5.17188 7.48045 5.17188C7.92328 5.17188 8.28356 5.53216 8.28356 5.97498C8.28356 6.41781 7.92328 6.77809 7.48045 6.77809Z" fill="#1F4F9E"/>
<path d="M20.2836 11.297H18.6119C18.3175 10.4226 17.4903 9.79077 16.5179 9.79077C15.5455 9.79077 14.7184 10.4226 14.424 11.297H3.71484C3.32653 11.297 3.01172 11.6118 3.01172 12.0001C3.01172 12.3884 3.32653 12.7033 3.71484 12.7033H14.424C14.7184 13.5777 15.5455 14.2095 16.518 14.2095C17.4904 14.2095 18.3175 13.5777 18.612 12.7033H20.2836C20.6719 12.7033 20.9867 12.3884 20.9867 12.0001C20.9867 11.6118 20.6719 11.297 20.2836 11.297ZM16.518 12.8032C16.0751 12.8032 15.7148 12.443 15.7148 12.0001C15.7148 11.5573 16.0751 11.197 16.518 11.197C16.9608 11.197 17.3211 11.5573 17.3211 12.0001C17.3211 12.443 16.9608 12.8032 16.518 12.8032Z" fill="#1F4F9E"/>
<path d="M20.2836 17.3219H12.587C12.2925 16.4475 11.4654 15.8157 10.493 15.8157C9.5205 15.8157 8.69339 16.4475 8.39897 17.3219H3.71484C3.32653 17.3219 3.01172 17.6367 3.01172 18.025C3.01172 18.4133 3.32653 18.7282 3.71484 18.7282H8.39897C8.69339 19.6026 9.5205 20.2344 10.493 20.2344C11.4654 20.2344 12.2925 19.6026 12.587 18.7282H20.2836C20.6719 18.7282 20.9867 18.4133 20.9867 18.025C20.9867 17.6367 20.6719 17.3219 20.2836 17.3219ZM10.493 18.8282C10.0501 18.8282 9.68986 18.4679 9.68986 18.0251C9.68986 17.5823 10.0501 17.222 10.493 17.222C10.9358 17.222 11.2961 17.5822 11.2961 18.025C11.2961 18.4679 10.9358 18.8282 10.493 18.8282Z" fill="#1F4F9E"/>
</svg>
