<svg width="24" height="24" viewBox="0 0 24 24" fill="none" xmlns="http://www.w3.org/2000/svg">
<path fill-rule="evenodd" clip-rule="evenodd" d="M16.334 2.75024H7.665C4.644 2.75024 2.75 4.88924 2.75 7.91624V16.0842C2.75 19.1112 4.635 21.2502 7.665 21.2502H16.333C19.364 21.2502 21.25 19.1112 21.25 16.0842V7.91624C21.25 4.88924 19.364 2.75024 16.334 2.75024Z" stroke="#2B2B2B" stroke-width="1.5" stroke-linecap="round" stroke-linejoin="round"/>
<path d="M7.43009 10.1169C7.69353 9.875 8.17165 10.0316 8.23915 10.3822C8.26728 10.6269 8.25415 10.8734 8.25603 11.1181C8.54384 10.97 8.82603 10.6522 9.17853 10.7778C9.50384 10.8838 9.61728 11.3469 9.37165 11.5878C9.17571 11.7528 8.94228 11.8663 8.72665 12.0031C8.94696 12.1419 9.19165 12.2497 9.38478 12.4259C9.6229 12.6809 9.48509 13.1441 9.14946 13.2303C8.80821 13.3269 8.53821 13.025 8.25603 12.8863C8.24196 13.1609 8.2954 13.4488 8.20821 13.7141C8.06853 14.0478 7.56322 14.1022 7.35603 13.8069C7.17603 13.5369 7.27915 13.1891 7.2529 12.8853C6.97915 13.0222 6.72415 13.3091 6.39228 13.2444C6.04822 13.1834 5.88134 12.7231 6.10353 12.4541C6.2929 12.2591 6.55259 12.155 6.77853 12.0097C6.5104 11.8006 6.06697 11.7069 6.00603 11.3206C5.9479 10.9756 6.32103 10.6569 6.6529 10.7778C6.86478 10.8716 7.05509 11.0075 7.25384 11.1256C7.28759 10.7947 7.14228 10.3691 7.43009 10.1169Z" fill="#2B2B2B"/>
<path d="M11.3976 10.15C11.6367 9.88558 12.1214 9.99527 12.2264 10.3346C12.2807 10.5915 12.2479 10.8578 12.2554 11.1184C12.5095 10.9881 12.7354 10.75 13.0354 10.7471C13.4029 10.7556 13.641 11.2187 13.4264 11.5206C13.2464 11.7409 12.9651 11.8431 12.7326 11.9978C12.9389 12.1337 13.162 12.2453 13.357 12.399C13.6214 12.6334 13.5107 13.1181 13.1742 13.2231C12.8235 13.344 12.5432 13.0253 12.2554 12.8818C12.2226 13.2165 12.367 13.6534 12.0614 13.8971C11.8045 14.1146 11.361 13.9759 11.2757 13.6506C11.2335 13.3975 11.2579 13.1396 11.2542 12.8856C10.9701 13.0262 10.6992 13.3346 10.3532 13.2334C10.0185 13.1453 9.88729 12.6831 10.1226 12.4309C10.3139 12.2546 10.5539 12.1468 10.7789 12.024C10.5379 11.8037 10.1395 11.7334 10.0214 11.3996C9.90511 11.0575 10.2435 10.6815 10.596 10.7621C10.836 10.8409 11.0367 11.0021 11.2542 11.1268C11.2851 10.8053 11.1557 10.4125 11.3976 10.15Z" fill="#2B2B2B"/>
<path d="M15.2698 10.376C15.3448 10.0225 15.8323 9.87533 16.0891 10.1294C16.3573 10.3835 16.2251 10.7922 16.2551 11.1194C16.4885 10.9928 16.6994 10.795 16.9685 10.7481C17.3538 10.7003 17.651 11.1775 17.4372 11.5028C17.2638 11.74 16.9666 11.8394 16.7294 11.9997C16.946 12.1394 17.1832 12.25 17.3791 12.4188C17.6116 12.6597 17.5066 13.1116 17.1869 13.2194C16.8326 13.3516 16.5457 13.0272 16.2541 12.8819C16.2504 13.1378 16.2729 13.3975 16.2326 13.6525C16.1426 13.9825 15.6888 14.1175 15.4338 13.8869C15.1451 13.6385 15.2857 13.2166 15.2548 12.8856C14.9623 13.0319 14.6707 13.36 14.3154 13.2203C13.9994 13.1069 13.8973 12.6588 14.1326 12.4206C14.3285 12.2528 14.5638 12.1422 14.7794 12.0035C14.5432 11.8394 14.2366 11.7456 14.0679 11.5019C13.8616 11.1766 14.156 10.7078 14.5394 10.7556C14.8076 10.8044 15.0204 10.9994 15.2557 11.126C15.2557 10.8756 15.2416 10.6244 15.2698 10.376Z" fill="#2B2B2B"/>
</svg>
