<svg width="20" height="20" viewBox="0 0 20 20" fill="none" xmlns="http://www.w3.org/2000/svg">
<path fill-rule="evenodd" clip-rule="evenodd" d="M14.334 0.750244H5.665C2.644 0.750244 0.75 2.88924 0.75 5.91624V14.0842C0.75 17.1112 2.634 19.2502 5.665 19.2502H14.333C17.364 19.2502 19.25 17.1112 19.25 14.0842V5.91624C19.25 2.88924 17.364 0.750244 14.334 0.750244Z" stroke="#2B2B2B" stroke-width="1.5" stroke-linecap="round" stroke-linejoin="round"/>
<path d="M5.51831 11.1975C4.85731 11.1975 4.32031 10.6605 4.32031 10.0005C4.32031 9.34049 4.85731 8.80249 5.51831 8.80249C6.17931 8.80249 6.71631 9.34049 6.71631 10.0005C6.71631 10.6605 6.17931 11.1975 5.51831 11.1975Z" fill="#2B2B2B"/>
<path d="M9.99878 11.1975C9.33778 11.1975 8.80078 10.6605 8.80078 10.0005C8.80078 9.34049 9.33778 8.80249 9.99878 8.80249C10.6598 8.80249 11.1968 9.34049 11.1968 10.0005C11.1968 10.6605 10.6598 11.1975 9.99878 11.1975Z" fill="#2B2B2B"/>
<path d="M14.4792 11.1975C13.8182 11.1975 13.2812 10.6605 13.2812 10.0005C13.2812 9.34049 13.8182 8.80249 14.4792 8.80249C15.1402 8.80249 15.6772 9.34049 15.6772 10.0005C15.6772 10.6605 15.1402 11.1975 14.4792 11.1975Z" fill="#2B2B2B"/>
</svg>
