<svg width="48" height="48" viewBox="0 0 48 48" fill="none" xmlns="http://www.w3.org/2000/svg">
<rect width="48" height="48" rx="24" fill="#1F4F9E"/>
<path fill-rule="evenodd" clip-rule="evenodd" d="M26.1213 23.2331H28.8891C29.3088 23.2331 29.6386 22.8861 29.6386 22.4677C29.6386 22.0391 29.3088 21.7024 28.8891 21.7024H26.1213C25.7016 21.7024 25.3719 22.0391 25.3719 22.4677C25.3719 22.8861 25.7016 23.2331 26.1213 23.2331ZM32.1766 17.9275C32.7861 17.9275 33.1858 18.1418 33.5855 18.6112C33.9852 19.0807 34.0551 19.7542 33.9652 20.3655L33.0159 27.06C32.8361 28.3469 31.7569 29.2949 30.4879 29.2949H19.5864C18.2574 29.2949 17.1583 28.255 17.0484 26.908L16.1291 15.7834L14.6203 15.5181C14.2206 15.4466 13.9408 15.0486 14.0107 14.6404C14.0807 14.223 14.4704 13.9465 14.8801 14.0087L17.2632 14.3751C17.6029 14.4374 17.8527 14.7221 17.8827 15.069L18.0726 17.355C18.1025 17.6826 18.3623 17.9275 18.6821 17.9275H32.1766ZM19.4263 30.9079C18.587 30.9079 17.9075 31.6018 17.9075 32.459C17.9075 33.3061 18.587 34 19.4263 34C20.2557 34 20.9351 33.3061 20.9351 32.459C20.9351 31.6018 20.2557 30.9079 19.4263 30.9079ZM30.6676 30.9079C29.8282 30.9079 29.1487 31.6018 29.1487 32.459C29.1487 33.3061 29.8282 34 30.6676 34C31.4969 34 32.1764 33.3061 32.1764 32.459C32.1764 31.6018 31.4969 30.9079 30.6676 30.9079Z" fill="white"/>
</svg>
