<svg width="48" height="48" viewBox="0 0 48 48" fill="none" xmlns="http://www.w3.org/2000/svg">
<rect width="48" height="48" rx="24" fill="#F49814"/>
<path d="M22.6392 13.2862C24.8723 13.0021 27.1964 13.4268 29.1708 14.5134C31.507 15.7753 33.3408 17.9343 34.2014 20.4459C34.8914 22.4212 34.9823 24.5981 34.4761 26.6278C33.8095 29.339 32.0395 31.7615 29.6489 33.2071C27.4308 34.5815 24.7045 35.0887 22.1367 34.6359C19.8314 34.2459 17.6704 33.0684 16.0842 31.35C14.4145 29.5659 13.3861 27.1959 13.2295 24.7565C13.0439 22.2365 13.7751 19.6565 15.2779 17.6231C16.9992 15.2493 19.7245 13.6312 22.6392 13.2862ZM23.6254 16.98C23.5242 17.3325 23.587 17.7065 23.5683 18.0675C22.9345 18.1396 22.2904 18.2953 21.7504 18.6468C21.112 19.0556 20.6986 19.7643 20.6011 20.5096C20.4998 21.3018 20.6151 22.1925 21.1908 22.7906C21.7992 23.4787 22.7245 23.7159 23.5683 23.9784C23.5701 25.0743 23.5729 26.1703 23.5664 27.2662C23.0048 27.1115 22.5079 26.7065 22.312 26.1487C22.1189 25.7643 22.1048 25.2328 21.6923 25.0012C21.1664 24.69 20.3976 25.019 20.3133 25.6368C20.2711 26.355 20.5842 27.0656 21.0792 27.5784C21.7083 28.2871 22.6495 28.6218 23.5701 28.7268C23.572 29.4281 23.5598 30.1303 23.5795 30.8315C23.5495 31.215 24.0511 31.3706 24.3164 31.1559C24.4879 30.9384 24.4401 30.6337 24.4589 30.374C24.4533 29.8181 24.4533 29.2621 24.4589 28.7071C25.2933 28.6518 26.1229 28.3434 26.7258 27.7518C27.3848 27.1378 27.7223 26.2143 27.667 25.3209C27.6248 24.2709 26.9264 23.2865 25.9626 22.8787C25.4611 22.6818 24.9389 22.5478 24.427 22.3828C24.4533 21.4078 24.397 20.43 24.4542 19.4578C24.9145 19.6265 25.3354 19.9593 25.4929 20.4384C25.6008 20.7609 25.6889 21.1565 26.0395 21.3018C26.5898 21.585 27.3361 21.149 27.337 20.5275C27.2986 19.8665 26.9301 19.2656 26.4464 18.8306C25.9017 18.3421 25.1742 18.1303 24.4579 18.0703C24.4439 17.7253 24.4936 17.3728 24.4214 17.0325C24.3454 16.6631 23.7389 16.6106 23.6254 16.98Z" fill="white"/>
<path d="M22.3978 20.2378C22.6041 19.7878 23.1075 19.6087 23.5434 19.4578C23.5463 20.355 23.5509 21.2521 23.5434 22.1493C23.1656 21.9806 22.7541 21.8212 22.4888 21.4875C22.2497 21.1256 22.2422 20.6343 22.3978 20.2378Z" fill="white"/>
<path d="M24.4593 24.2363C24.9206 24.3966 25.4156 24.5823 25.7325 24.9732C26.099 25.5301 25.9865 26.3466 25.5009 26.7995C25.2206 27.0816 24.8409 27.2316 24.4593 27.3141C24.4528 26.2885 24.4546 25.2629 24.4593 24.2363Z" fill="white"/>
</svg>
