<svg width="30" height="30" viewBox="0 0 30 30" fill="none" xmlns="http://www.w3.org/2000/svg">
<path fill-rule="evenodd" clip-rule="evenodd" d="M11.1573 20.4875H17.89C18.3974 20.4875 18.8182 20.0625 18.8182 19.55C18.8182 19.0375 18.3974 18.625 17.89 18.625H11.1573C10.6499 18.625 10.2291 19.0375 10.2291 19.55C10.2291 20.0625 10.6499 20.4875 11.1573 20.4875ZM15.3405 12.375H11.1573C10.6499 12.375 10.2291 12.8 10.2291 13.3125C10.2291 13.825 10.6499 14.2375 11.1573 14.2375H15.3405C15.8479 14.2375 16.2687 13.825 16.2687 13.3125C16.2687 12.8 15.8479 12.375 15.3405 12.375ZM24.1726 11.282C24.4635 11.2787 24.7803 11.275 25.0681 11.275C25.3775 11.275 25.625 11.525 25.625 11.8375V21.8875C25.625 24.9875 23.1374 27.5 20.0681 27.5H10.2166C6.99876 27.5 4.375 24.8625 4.375 21.6125V8.1375C4.375 5.0375 6.875 2.5 9.95668 2.5H16.5656C16.8874 2.5 17.1349 2.7625 17.1349 3.075V7.1C17.1349 9.3875 19.0037 11.2625 21.2686 11.275C21.7976 11.275 22.264 11.279 22.6721 11.2824C22.9896 11.2851 23.2719 11.2875 23.521 11.2875C23.6972 11.2875 23.9256 11.2849 24.1726 11.282ZM24.5138 9.4575C23.4965 9.46125 22.2972 9.4575 21.4346 9.44875C20.0658 9.44875 18.9383 8.31 18.9383 6.9275V3.6325C18.9383 3.09375 19.5856 2.82625 19.9556 3.215C20.6259 3.9189 21.5472 4.88667 22.464 5.84982C23.3773 6.80913 24.2861 7.76387 24.9383 8.44875C25.2997 8.8275 25.0348 9.45625 24.5138 9.4575Z" fill="#2B2B2B"/>
</svg>
