<svg width="16" height="18" viewBox="0 0 16 18" fill="none" xmlns="http://www.w3.org/2000/svg">
<path fill-rule="evenodd" clip-rule="evenodd" d="M5.43949 12.6584H9.92794C10.2662 12.6584 10.5468 12.3751 10.5468 12.0334C10.5468 11.6917 10.2662 11.4167 9.92794 11.4167H5.43949C5.10121 11.4167 4.82068 11.6917 4.82068 12.0334C4.82068 12.3751 5.10121 12.6584 5.43949 12.6584ZM8.22827 7.25006H5.43949C5.10121 7.25006 4.82068 7.5334 4.82068 7.87506C4.82068 8.21673 5.10121 8.49173 5.43949 8.49173H8.22827C8.56655 8.49173 8.84708 8.21673 8.84708 7.87506C8.84708 7.5334 8.56655 7.25006 8.22827 7.25006ZM14.1164 6.52142C14.3103 6.51919 14.5215 6.51675 14.7133 6.51675C14.9196 6.51675 15.0846 6.68341 15.0846 6.89175V13.5917C15.0846 15.6584 13.4262 17.3334 11.38 17.3334H4.81236C2.66714 17.3334 0.917969 15.5751 0.917969 13.4084V4.42508C0.917969 2.35842 2.58464 0.666748 4.63909 0.666748H9.04503C9.25955 0.666748 9.42457 0.841748 9.42457 1.05008V3.73341C9.42457 5.25842 10.6704 6.50841 12.1803 6.51675C12.533 6.51675 12.8439 6.51938 13.116 6.52169C13.3277 6.52349 13.5159 6.52508 13.682 6.52508C13.7994 6.52508 13.9517 6.52332 14.1164 6.52142ZM14.3438 5.30508C13.6656 5.30758 12.8661 5.30508 12.291 5.29925C11.3785 5.29925 10.6268 4.54008 10.6268 3.61842V1.42175C10.6268 1.06258 11.0583 0.884249 11.305 1.14342C11.7512 1.61195 12.3642 2.25585 12.9745 2.89696C13.5842 3.53751 14.1914 4.17528 14.6268 4.63258C14.8678 4.88508 14.6912 5.30425 14.3438 5.30508Z" fill="#2B2B2B"/>
</svg>
