<svg width="20" height="20" viewBox="0 0 20 20" fill="none" xmlns="http://www.w3.org/2000/svg">
<path fill-rule="evenodd" clip-rule="evenodd" d="M6.50833 1.66675H13.4925C16.0667 1.66675 17.5 3.15008 17.5 5.69175V14.3001C17.5 16.8834 16.0667 18.3334 13.4925 18.3334H6.50833C3.975 18.3334 2.5 16.8834 2.5 14.3001V5.69175C2.5 3.15008 3.975 1.66675 6.50833 1.66675ZM6.73346 5.55006V5.54173H9.2243C9.58346 5.54173 9.87513 5.8334 9.87513 6.1909C9.87513 6.5584 9.58346 6.85007 9.2243 6.85007H6.73346C6.3743 6.85007 6.08346 6.5584 6.08346 6.20007C6.08346 5.84173 6.3743 5.55006 6.73346 5.55006ZM6.73346 10.6167H13.2668C13.6251 10.6167 13.9168 10.3251 13.9168 9.96674C13.9168 9.60841 13.6251 9.31591 13.2668 9.31591H6.73346C6.3743 9.31591 6.08346 9.60841 6.08346 9.96674C6.08346 10.3251 6.3743 10.6167 6.73346 10.6167ZM6.73349 14.4251H13.2668C13.5993 14.3917 13.8502 14.1076 13.8502 13.7751C13.8502 13.4334 13.5993 13.1501 13.2668 13.1167H6.73349C6.48349 13.0917 6.24182 13.2084 6.10849 13.4251C5.97516 13.6334 5.97516 13.9084 6.10849 14.1251C6.24182 14.3334 6.48349 14.4584 6.73349 14.4251Z" fill="#2B2B2B"/>
</svg>
