<svg width="20" height="20" viewBox="0 0 20 20" fill="none" xmlns="http://www.w3.org/2000/svg">
<path fill-rule="evenodd" clip-rule="evenodd" d="M14.8087 6.98483H18.3346C18.3346 4.15383 16.6383 2.5 13.7643 2.5H6.23834C3.36427 2.5 1.66797 4.15383 1.66797 6.94872V13.0513C1.66797 15.8462 3.36427 17.5 6.23834 17.5H13.7643C16.6383 17.5 18.3346 15.8462 18.3346 13.0513V12.7913H14.8087C13.1723 12.7913 11.8457 11.4979 11.8457 9.9025C11.8457 8.30707 13.1723 7.01372 14.8087 7.01372V6.98483ZM14.8087 8.22699H17.7125C18.0561 8.22699 18.3347 8.4986 18.3347 8.83364V10.9424C18.3307 11.2759 18.0544 11.5452 17.7125 11.5491H14.8754C14.047 11.56 13.3226 11.007 13.1347 10.2203C13.0406 9.73189 13.1727 9.22795 13.4956 8.8435C13.8185 8.45904 14.2991 8.23338 14.8087 8.22699ZM14.9348 10.4441H15.2088C15.5607 10.4441 15.8459 10.1661 15.8459 9.82305C15.8459 9.48003 15.5607 9.20196 15.2088 9.20196H14.9348C14.7665 9.20003 14.6044 9.26385 14.4847 9.37918C14.3651 9.49452 14.2977 9.65176 14.2977 9.81583C14.2977 10.16 14.5817 10.4402 14.9348 10.4441ZM5.616 6.98482H10.3197C10.6715 6.98482 10.9567 6.70675 10.9567 6.36373C10.9567 6.02072 10.6715 5.74265 10.3197 5.74265H5.616C5.26705 5.74262 4.98302 6.01632 4.97897 6.35651C4.97894 6.70072 5.26298 6.98087 5.616 6.98482Z" fill="#2B2B2B"/>
</svg>
