<svg width="20" height="20" viewBox="0 0 20 20" fill="none" xmlns="http://www.w3.org/2000/svg">
<path fill-rule="evenodd" clip-rule="evenodd" d="M7.9938 2.08325C5.62055 2.08325 3.71546 3.98864 3.71546 6.36159C3.71546 8.73521 5.6204 10.6408 7.9938 10.6408C10.3673 10.6408 12.273 8.7351 12.273 6.36159C12.273 3.98876 10.3672 2.08325 7.9938 2.08325ZM7.9938 3.33325C9.67685 3.33325 11.023 4.67916 11.023 6.36159C11.023 8.04474 9.67695 9.39075 7.9938 9.39075C6.31085 9.39075 4.96546 8.04495 4.96546 6.36159C4.96546 4.67895 6.31095 3.33325 7.9938 3.33325ZM16.7235 6.34709C16.7235 4.48499 15.2134 2.97459 13.351 2.97459C13.0058 2.97459 12.726 3.25441 12.726 3.59959C12.726 3.94477 13.0058 4.22459 13.351 4.22459C14.523 4.22459 15.4735 5.17528 15.4735 6.34709C15.4735 7.51941 14.5233 8.46959 13.351 8.46959C13.0058 8.46959 12.726 8.74941 12.726 9.09459C12.726 9.43977 13.0058 9.71959 13.351 9.71959C15.2136 9.71959 16.7235 8.20977 16.7235 6.34709ZM16.0838 11.6616C15.6216 11.5591 15.1406 11.4898 14.6568 11.4569C14.3124 11.4334 14.0142 11.6936 13.9908 12.038C13.9674 12.3824 14.2276 12.6806 14.572 12.704C14.9933 12.7326 15.4123 12.793 15.8268 12.8848C16.474 13.0137 16.9026 13.2278 17.0185 13.471C17.1059 13.6548 17.1059 13.8702 17.0182 14.0546C16.9031 14.297 16.4767 14.5106 15.836 14.6424C15.4979 14.7119 15.2801 15.0424 15.3497 15.3805C15.4192 15.7186 15.7497 15.9363 16.0878 15.8668C17.0834 15.662 17.8119 15.297 18.1472 14.5911C18.3962 14.0673 18.3962 13.4577 18.1472 12.9338C17.8099 12.2262 17.0739 11.8585 16.0838 11.6616ZM1.66797 15.0153C1.66797 12.8282 3.96596 12.047 7.9938 12.047L8.26029 12.0481C12.1306 12.0818 14.3205 12.8635 14.3205 14.9987C14.3205 17.0886 12.2217 17.8948 8.52059 17.9623L7.9938 17.967C3.95685 17.967 1.66797 17.1996 1.66797 15.0153ZM13.0705 14.9987C13.0705 13.8755 11.345 13.297 7.9938 13.297C4.64601 13.297 2.91797 13.8844 2.91797 15.0153C2.91797 16.139 4.64187 16.717 7.9938 16.717C11.3418 16.717 13.0705 16.1295 13.0705 14.9987Z" fill="#2B2B2B"/>
</svg>
