<svg width="33" height="22" viewBox="0 0 33 22" fill="none" xmlns="http://www.w3.org/2000/svg">
<path d="M33 19.6899V2.31001C33 1.03425 31.9658 0 30.69 0H2.31001C1.03425 0 0 1.03419 0 2.31001V19.69C0 20.9657 1.03419 22 2.31001 22H30.69C31.9657 21.9999 33 20.9657 33 19.6899Z" fill="#259245"/>
<path d="M22.1302 14.8326H21.103V14.2868C21.103 13.983 20.8568 13.7368 20.553 13.7368C20.2493 13.7368 20.003 13.983 20.003 14.2868V14.8326H10.8703C10.5665 14.8326 10.3203 15.0788 10.3203 15.3826C10.3203 15.6864 10.5665 15.9326 10.8703 15.9326H20.0032V16.4784C20.0032 16.7822 20.2494 17.0284 20.5532 17.0284C20.8569 17.0284 21.1032 16.7822 21.1032 16.4784V15.9326H21.5804V15.9749C21.5804 16.2787 21.8266 16.5249 22.1304 16.5249C22.4341 16.5249 22.6803 16.2787 22.6803 15.9749V15.3826C22.6802 15.0789 22.434 14.8326 22.1302 14.8326Z" fill="white"/>
<path d="M13.3215 7.89714C13.6252 7.89714 13.8715 7.65092 13.8715 7.34715V5.29169C13.8715 4.98793 13.6252 4.7417 13.3215 4.7417C13.0177 4.7417 12.7715 4.98793 12.7715 5.29169V7.34715C12.7715 7.65092 13.0176 7.89714 13.3215 7.89714Z" fill="white"/>
<path d="M13.3203 9.56542C13.6241 9.56542 13.8703 9.3192 13.8703 9.01543C13.8703 8.71166 13.6241 8.46543 13.3203 8.46543H12.111V5.29267C12.111 4.9889 11.8648 4.74268 11.561 4.74268C11.2573 4.74268 11.011 4.9889 11.011 5.29267V9.15276C11.011 9.69316 10.5714 10.1328 10.0311 10.1328C10.0089 10.1328 9.98683 10.1341 9.96505 10.1367C9.72755 10.1194 9.5071 10.0177 9.33873 9.84635C9.12587 9.62969 8.77768 9.62669 8.56096 9.83962C8.34431 10.0525 8.34131 10.4007 8.55423 10.6175C8.94372 11.0137 9.46408 11.2345 10.0197 11.2393C10.0213 11.2393 10.0228 11.2393 10.0245 11.2393C10.0569 11.2393 10.089 11.2365 10.1205 11.2309C11.0863 11.1898 11.8836 10.4871 12.0699 9.56549H13.3204V9.56542H13.3203Z" fill="white"/>
<path d="M24.0534 4.7417C23.7496 4.7417 23.5034 4.98793 23.5034 5.29169V9.15178C23.5034 9.69219 23.0638 10.1318 22.5234 10.1318C22.3791 10.1318 22.2406 10.1885 22.1377 10.2898L22.1311 10.2963C21.9145 10.5094 21.9117 10.8576 22.1247 11.0741C22.2324 11.1835 22.3746 11.2383 22.5168 11.2383C22.549 11.2383 22.5813 11.2355 22.6132 11.2299C23.7187 11.1827 24.6035 10.2687 24.6035 9.15178V5.29169C24.6034 4.98799 24.3571 4.7417 24.0534 4.7417Z" fill="white"/>
<path d="M18.9975 6.08935C18.7993 6.08935 18.6112 5.97287 18.4814 5.76987C18.3805 5.61182 18.2058 5.51618 18.0183 5.51611C18.0182 5.51611 18.0181 5.51611 18.0181 5.51611C17.8307 5.51611 17.656 5.61169 17.555 5.76953C17.4249 5.97273 17.2366 6.08935 17.0384 6.08935C16.8403 6.08935 16.6523 5.97287 16.5225 5.76987C16.4214 5.61175 16.2467 5.51611 16.059 5.51611C16.059 5.51611 16.0589 5.51611 16.0589 5.51611C15.8711 5.51618 15.6964 5.61195 15.5955 5.77013C15.4659 5.97307 15.2778 6.08935 15.0793 6.08935C14.7755 6.08935 14.5293 6.33558 14.5293 6.63935C14.5293 6.94312 14.7755 7.18934 15.0793 7.18934C15.4322 7.18934 15.7726 7.07199 16.0592 6.8608C16.3458 7.07199 16.6859 7.18934 17.0385 7.18934C17.3912 7.18934 17.7314 7.07192 18.0181 6.8606C18.3047 7.07192 18.6449 7.18934 18.9977 7.18934C19.3014 7.18934 19.5477 6.94312 19.5477 6.63935C19.5477 6.33558 19.3012 6.08935 18.9975 6.08935Z" fill="white"/>
<path d="M20.757 4.98145C20.4533 4.98145 20.207 5.22767 20.207 5.53144V10.6882C20.207 10.992 20.4533 11.2382 20.757 11.2382C21.0608 11.2382 21.307 10.992 21.307 10.6882V5.53144C21.307 5.22767 21.0608 4.98145 20.757 4.98145Z" fill="white"/>
<path d="M18.9991 7.84863H16.3602C16.0564 7.84863 15.8102 8.09486 15.8102 8.39863V9.15182C15.8102 9.69223 15.3705 10.1319 14.8302 10.1319C14.8024 10.1319 14.7749 10.134 14.7478 10.1381L13.3238 10.1319C13.323 10.1319 13.3222 10.1319 13.3214 10.1319C13.0188 10.1319 12.7728 10.3765 12.7715 10.6795C12.7702 10.9832 13.0153 11.2306 13.3191 11.2319L14.8212 11.2384C14.822 11.2384 14.8227 11.2384 14.8235 11.2384C14.856 11.2384 14.8881 11.2355 14.9195 11.2299C15.4884 11.2057 15.9985 10.9515 16.3601 10.5586C16.7216 10.9515 17.2315 11.2056 17.8003 11.2299C17.8322 11.2356 17.8644 11.2384 17.8967 11.2384C18.0384 11.2384 18.1802 11.1839 18.2878 11.0752C18.5013 10.8592 18.4995 10.511 18.2835 10.2974L18.2769 10.2908C18.1739 10.189 18.035 10.1319 17.8901 10.1319C17.3497 10.1319 16.91 9.69223 16.91 9.15182V8.94862H18.9989C19.3027 8.94862 19.5489 8.7024 19.5489 8.39863C19.5491 8.09486 19.3028 7.84863 18.9991 7.84863Z" fill="white"/>
<path d="M22.3566 7.18915C22.6604 7.18915 22.9066 6.94293 22.9066 6.63916V5.53144C22.9066 5.22767 22.6604 4.98145 22.3566 4.98145C22.0529 4.98145 21.8066 5.22767 21.8066 5.53144V6.63916C21.8066 6.94293 22.0529 7.18915 22.3566 7.18915Z" fill="white"/>
<path d="M9.80195 8.94858C10.1057 8.94858 10.3519 8.70236 10.3519 8.39859V5.29169C10.3519 4.98793 10.1057 4.7417 9.80195 4.7417C9.49818 4.7417 9.25195 4.98793 9.25195 5.29169V8.39859C9.25195 8.70229 9.49818 8.94858 9.80195 8.94858Z" fill="white"/>
</svg>
