<svg width="30" height="30" viewBox="0 0 30 30" fill="none" xmlns="http://www.w3.org/2000/svg">
<path fill-rule="evenodd" clip-rule="evenodd" d="M9.3573 26.8754H19.7921C23.625 26.8754 26.5655 25.4909 25.7303 19.9188L24.7578 12.3673C24.2429 9.58702 22.4694 8.52295 20.9134 8.52295H8.19025C6.61131 8.52295 4.94083 9.66711 4.34586 12.3673L3.37332 19.9188C2.66394 24.8616 5.52435 26.8754 9.3573 26.8754Z" stroke="#2B2B2B" stroke-width="2" stroke-linecap="round" stroke-linejoin="round"/>
<path d="M9.18597 8.24816C9.18597 5.26557 11.6038 2.8477 14.5864 2.8477V2.8477C16.0227 2.84162 17.4022 3.40791 18.4199 4.42135C19.4377 5.43479 20.0098 6.8119 20.0098 8.24816V8.24816" stroke="#2B2B2B" stroke-width="2" stroke-linecap="round" stroke-linejoin="round"/>
<path d="M10.8798 13.8773H10.937" stroke="#2B2B2B" stroke-width="2" stroke-linecap="round" stroke-linejoin="round"/>
<path d="M18.1669 13.8773H18.2241" stroke="#2B2B2B" stroke-width="2" stroke-linecap="round" stroke-linejoin="round"/>
</svg>
