<svg width="24" height="23" viewBox="0 0 24 23" fill="none" xmlns="http://www.w3.org/2000/svg">
<path fill-rule="evenodd" clip-rule="evenodd" d="M16.303 2.61035H7.654C4.639 2.61035 2.75 4.63585 2.75 7.50229V15.2369C2.75 18.1034 4.631 20.1289 7.654 20.1289H16.302C19.326 20.1289 21.207 18.1034 21.207 15.2369V7.50229C21.207 4.63585 19.326 2.61035 16.303 2.61035Z" stroke="white" stroke-width="2" stroke-linecap="round" stroke-linejoin="round"/>
<path fill-rule="evenodd" clip-rule="evenodd" d="M10.7027 8.33905C10.7027 9.30624 9.87572 10.0912 8.85672 10.0912C7.83872 10.0912 7.01172 9.30624 7.01172 8.33905C7.01172 7.37186 7.83872 6.58691 8.85672 6.58691C9.87572 6.58691 10.7027 7.37186 10.7027 8.33905Z" stroke="white" stroke-width="2" stroke-linecap="round" stroke-linejoin="round"/>
<path d="M21.207 14.1898C20.213 13.3688 19.348 12.3807 18.208 11.7287C17.066 11.0766 15.839 11.479 15.047 12.4519C14.282 13.3925 13.804 14.6577 12.649 15.251C11.226 15.9828 10.39 14.803 9.203 14.3303C7.878 13.8035 6.872 14.7508 6.098 15.661C5.323 16.5722 4.538 17.4739 3.75 18.3756" stroke="white" stroke-width="2" stroke-linecap="round" stroke-linejoin="round"/>
</svg>
