<svg width="30" height="30" viewBox="0 0 30 30" fill="none" xmlns="http://www.w3.org/2000/svg">
<path fill-rule="evenodd" clip-rule="evenodd" d="M17.6514 14.0414H21.1112C21.6358 14.0414 22.048 13.6077 22.048 13.0847C22.048 12.5489 21.6358 12.128 21.1112 12.128H17.6514C17.1268 12.128 16.7147 12.5489 16.7147 13.0847C16.7147 13.6077 17.1268 14.0414 17.6514 14.0414ZM25.2207 7.40937C25.9826 7.40937 26.4822 7.67725 26.9818 8.26404C27.4815 8.85083 27.5689 9.69275 27.4565 10.4569L26.2699 18.825C26.0451 20.4336 24.6961 21.6187 23.1099 21.6187H9.48299C7.82178 21.6187 6.44785 20.3188 6.31046 18.635L5.16135 4.72925L3.27532 4.39759C2.77571 4.30829 2.42599 3.8108 2.51342 3.30054C2.60085 2.77881 3.08797 2.43311 3.60007 2.51092L6.579 2.96888C7.00367 3.04669 7.31592 3.40259 7.35339 3.83631L7.59071 6.69373C7.62818 7.10321 7.95293 7.40937 8.35262 7.40937H25.2207ZM9.28307 23.6348C8.23389 23.6348 7.38455 24.5023 7.38455 25.5738C7.38455 26.6326 8.23389 27.5 9.28307 27.5C10.3198 27.5 11.1691 26.6326 11.1691 25.5738C11.1691 24.5023 10.3198 23.6348 9.28307 23.6348ZM23.3344 23.6348C22.2852 23.6348 21.4358 24.5023 21.4358 25.5738C21.4358 26.6326 22.2852 27.5 23.3344 27.5C24.3711 27.5 25.2204 26.6326 25.2204 25.5738C25.2204 24.5023 24.3711 23.6348 23.3344 23.6348Z" fill="#2B2B2B"/>
</svg>
