<svg width="20" height="20" viewBox="0 0 20 20" fill="none" xmlns="http://www.w3.org/2000/svg">
<path fill-rule="evenodd" clip-rule="evenodd" d="M5.39333 1.66819L5.41552 1.66962C5.8521 1.7058 6.23127 1.92276 6.57741 2.26095C7.2352 2.9034 8.64769 4.77814 8.75433 5.28834C8.87235 5.85751 8.74616 6.22718 8.36998 6.88112L8.2788 7.04228C8.10617 7.35757 8.07978 7.48776 8.13322 7.63683C8.95459 9.64701 10.3562 11.0484 12.3434 11.8601C12.5316 11.9282 12.6737 11.8892 13.0714 11.661L13.279 11.5436C13.8381 11.2369 14.1925 11.14 14.7151 11.2488C15.2235 11.3554 17.0993 12.7688 17.7407 13.4257C18.0785 13.7715 18.2959 14.1514 18.3338 14.6167C18.3737 15.7477 16.9936 17.3402 16.1517 17.819C15.1943 18.5039 13.9794 18.4925 12.6171 17.8585C9.05471 16.3761 3.60547 10.9617 2.15329 7.40368L2.06636 7.20466C1.51495 5.88674 1.52689 4.74813 2.15879 3.88973C2.73537 2.93488 4.28992 1.61716 5.39333 1.66819ZM5.32589 2.88668L5.25242 2.89044C4.68609 2.96568 3.55039 3.94343 3.17218 4.56532L3.10684 4.66255C2.78102 5.1934 2.81878 5.92243 3.2724 6.92062L3.3591 7.12355C4.82203 10.4069 9.8873 15.4018 13.1082 16.7427L13.2856 16.8216C14.2174 17.2166 14.9229 17.199 15.494 16.794L15.5362 16.7669C15.7129 16.6441 16.1205 16.2738 16.4344 15.9116C16.8753 15.4028 17.125 14.9367 17.117 14.6885C17.1082 14.5824 17.0263 14.4393 16.8685 14.2777C16.3916 13.7893 14.6574 12.4826 14.4657 12.4424C14.2844 12.4047 14.1357 12.4554 13.7289 12.6894L13.5242 12.8044C12.9249 13.1276 12.5024 13.2145 11.9055 12.9978C9.59212 12.0536 7.94981 10.4115 6.9956 8.07488C6.76959 7.45012 6.89125 7.00809 7.2843 6.32306L7.37794 6.1583C7.55649 5.83591 7.59428 5.69913 7.56064 5.53687C7.52035 5.34415 6.21445 3.61088 5.72544 3.13327C5.5635 2.97505 5.42122 2.89364 5.31473 2.88482L5.32589 2.88668Z" fill="#200E32"/>
</svg>
