<svg width="48" height="48" viewBox="0 0 48 48" fill="none" xmlns="http://www.w3.org/2000/svg">
<circle cx="24" cy="24" r="24" fill="#DF1E26"/>
<path d="M25.4099 23.9999L29.7099 19.7099C29.8982 19.5216 30.004 19.2662 30.004 18.9999C30.004 18.7336 29.8982 18.4782 29.7099 18.2899C29.5216 18.1016 29.2662 17.9958 28.9999 17.9958C28.7336 17.9958 28.4782 18.1016 28.2899 18.2899L23.9999 22.5899L19.7099 18.2899C19.5216 18.1016 19.2662 17.9958 18.9999 17.9958C18.7336 17.9958 18.4782 18.1016 18.2899 18.2899C18.1016 18.4782 17.9958 18.7336 17.9958 18.9999C17.9958 19.2662 18.1016 19.5216 18.2899 19.7099L22.5899 23.9999L18.2899 28.2899C18.1962 28.3829 18.1218 28.4935 18.071 28.6154C18.0203 28.7372 17.9941 28.8679 17.9941 28.9999C17.9941 29.132 18.0203 29.2627 18.071 29.3845C18.1218 29.5064 18.1962 29.617 18.2899 29.7099C18.3829 29.8037 18.4935 29.8781 18.6154 29.9288C18.7372 29.9796 18.8679 30.0057 18.9999 30.0057C19.132 30.0057 19.2627 29.9796 19.3845 29.9288C19.5064 29.8781 19.617 29.8037 19.7099 29.7099L23.9999 25.4099L28.2899 29.7099C28.3829 29.8037 28.4935 29.8781 28.6154 29.9288C28.7372 29.9796 28.8679 30.0057 28.9999 30.0057C29.132 30.0057 29.2627 29.9796 29.3845 29.9288C29.5064 29.8781 29.617 29.8037 29.7099 29.7099C29.8037 29.617 29.8781 29.5064 29.9288 29.3845C29.9796 29.2627 30.0057 29.132 30.0057 28.9999C30.0057 28.8679 29.9796 28.7372 29.9288 28.6154C29.8781 28.4935 29.8037 28.3829 29.7099 28.2899L25.4099 23.9999Z" fill="white"/>
</svg>
