<svg width="41" height="40" viewBox="0 0 41 40" fill="none" xmlns="http://www.w3.org/2000/svg">
<path d="M16.5641 0.111458C19.1356 -0.224532 21.8359 0.681325 23.6674 2.51445C28.6221 7.4522 33.575 12.3916 38.5264 17.3326C40.2539 19.0505 41.1639 21.5358 40.9756 23.9602C40.8303 26.2216 39.727 28.3989 37.9913 29.8615C36.1993 31.4113 33.7369 32.1393 31.3867 31.8494C29.4776 31.6271 27.6559 30.7393 26.3082 29.3723C21.5155 24.596 16.726 19.8163 11.9332 15.0383C9.58306 12.9615 8.5046 9.5752 9.30065 6.53316C10.0884 3.16667 13.119 0.488624 16.5641 0.111458ZM20.911 20.378C23.3041 22.776 25.7071 25.1658 28.1051 27.5606C28.6386 28.0975 29.2695 28.5406 29.9648 28.8469C32.1151 29.8236 34.817 29.3772 36.5263 27.7483C38.0061 26.3945 38.7196 24.2715 38.3496 22.3033C38.1449 21.0763 37.5288 19.93 36.6436 19.0587C34.2357 16.6705 31.8492 14.2593 29.433 11.881C26.5907 14.7122 23.7517 17.5467 20.911 20.378Z" fill="white"/>
<path d="M6.96704 21.4948C9.02487 20.9974 11.2545 21.2658 13.1372 22.2293C15.1422 23.2389 16.7574 25.021 17.5155 27.1341C11.7169 28.6741 5.92327 30.2355 0.124698 31.7738C-0.256809 29.5338 0.24526 27.1588 1.5186 25.273C2.76717 23.3855 4.75563 22.0004 6.96704 21.4948Z" fill="white"/>
<path d="M0.5625 33.4238C6.36107 31.8657 12.1646 30.3225 17.9648 28.771C18.3348 30.9138 17.8888 33.1817 16.7328 35.0247C15.4611 37.095 13.3141 38.6053 10.9309 39.0961C8.68644 39.5869 6.26363 39.1686 4.3115 37.9597C2.5972 36.9221 1.27101 35.2899 0.5625 33.4238Z" fill="white"/>
</svg>
