<svg width="40" height="40" viewBox="0 0 40 40" fill="none" xmlns="http://www.w3.org/2000/svg">
<path fill-rule="evenodd" clip-rule="evenodd" d="M7.56732 3.3335H13.2007C15.5507 3.3335 17.434 5.25016 17.434 7.60183V13.2835C17.434 15.6502 15.5507 17.5502 13.2007 17.5502H7.56732C5.23398 17.5502 3.33398 15.6502 3.33398 13.2835V7.60183C3.33398 5.25016 5.23398 3.3335 7.56732 3.3335ZM7.56732 22.4497H13.2007C15.5507 22.4497 17.434 24.3513 17.434 26.718V32.3997C17.434 34.7497 15.5507 36.6663 13.2007 36.6663H7.56732C5.23398 36.6663 3.33398 34.7497 3.33398 32.3997V26.718C3.33398 24.3513 5.23398 22.4497 7.56732 22.4497ZM32.4346 3.3335H26.8012C24.4512 3.3335 22.5679 5.25016 22.5679 7.60183V13.2835C22.5679 15.6502 24.4512 17.5502 26.8012 17.5502H32.4346C34.7679 17.5502 36.6679 15.6502 36.6679 13.2835V7.60183C36.6679 5.25016 34.7679 3.3335 32.4346 3.3335ZM26.8012 22.4497H32.4346C34.7679 22.4497 36.6679 24.3513 36.6679 26.718V32.3997C36.6679 34.7497 34.7679 36.6663 32.4346 36.6663H26.8012C24.4512 36.6663 22.5679 34.7497 22.5679 32.3997V26.718C22.5679 24.3513 24.4512 22.4497 26.8012 22.4497Z" fill="white"/>
</svg>
