<svg width="20" height="20" viewBox="0 0 20 20" fill="none" xmlns="http://www.w3.org/2000/svg">
<path fill-rule="evenodd" clip-rule="evenodd" d="M6.6792 1.66675H4.14775C2.77704 1.66675 1.66797 2.78545 1.66797 4.16301V6.71644C1.66797 8.09344 2.77728 9.21271 4.14775 9.21271H6.6792C8.04967 9.21271 9.15899 8.09344 9.15899 6.71644V4.16301C9.15899 2.78545 8.04991 1.66675 6.6792 1.66675ZM4.14785 2.82957H6.6793C7.40555 2.82957 7.99629 3.42544 7.99629 4.16305V6.71648C7.99629 7.4536 7.40524 8.04995 6.6793 8.04995H4.14785C3.4219 8.04995 2.83085 7.4536 2.83085 6.71648V4.16305C2.83085 3.42544 3.42159 2.82957 4.14785 2.82957ZM15.8557 1.66675H13.3234C11.9527 1.66675 10.8436 2.78545 10.8436 4.16301V6.71644C10.8436 8.09344 11.9529 9.21271 13.3234 9.21271H15.8557C17.2255 9.21271 18.3346 8.09328 18.3346 6.71644V4.16301C18.3346 2.78561 17.2257 1.66675 15.8557 1.66675ZM13.3235 2.82957H15.8557C16.5813 2.82957 17.1719 3.42553 17.1719 4.16305V6.71648C17.1719 7.45351 16.581 8.04995 15.8557 8.04995H13.3235C12.5976 8.04995 12.0065 7.4536 12.0065 6.71648V4.16305C12.0065 3.42544 12.5972 2.82957 13.3235 2.82957ZM4.14775 10.7875H6.6792C8.05007 10.7875 9.15899 11.9063 9.15899 13.2845V15.8372C9.15899 17.2147 8.04991 18.3334 6.6792 18.3334H4.14775C2.77704 18.3334 1.66797 17.2147 1.66797 15.8372V13.2845C1.66797 11.9063 2.77688 10.7875 4.14775 10.7875ZM6.6793 11.9503H4.14785C3.42151 11.9503 2.83085 12.5462 2.83085 13.2846V15.8372C2.83085 16.5748 3.42159 17.1707 4.14785 17.1707H6.6793C7.40555 17.1707 7.99629 16.5748 7.99629 15.8372V13.2846C7.99629 12.5462 7.40564 11.9503 6.6793 11.9503ZM15.8557 10.7875H13.3234C11.9525 10.7875 10.8436 11.9063 10.8436 13.2845V15.8372C10.8436 17.2147 11.9527 18.3334 13.3234 18.3334H15.8557C17.2257 18.3334 18.3346 17.2146 18.3346 15.8372V13.2845C18.3346 11.9065 17.2259 10.7875 15.8557 10.7875ZM13.3235 11.9503H15.8557C16.5814 11.9503 17.1719 12.5463 17.1719 13.2846V15.8372C17.1719 16.5747 16.5813 17.1707 15.8557 17.1707H13.3235C12.5972 17.1707 12.0065 16.5748 12.0065 15.8372V13.2846C12.0065 12.5462 12.5972 11.9503 13.3235 11.9503Z" fill="#2B2B2B"/>
</svg>
