<svg width="30" height="30" viewBox="0 0 30 30" fill="none" xmlns="http://www.w3.org/2000/svg">
<path fill-rule="evenodd" clip-rule="evenodd" d="M9.1625 2.50049H20.8363C25.0875 2.50049 27.4875 4.91174 27.5 9.16299V20.838C27.5 25.088 25.0875 27.5005 20.8363 27.5005H9.1625C4.91125 27.5005 2.5 25.088 2.5 20.838V9.16299C2.5 4.91174 4.91125 2.50049 9.1625 2.50049ZM15.0611 22.3255C15.5999 22.3255 16.0486 21.9255 16.0986 21.388V8.65047C16.1486 8.26297 15.9624 7.87422 15.6249 7.66297C15.2736 7.45047 14.8486 7.45047 14.5124 7.66297C14.1736 7.87422 13.9874 8.26297 14.0236 8.65047V21.388C14.0874 21.9255 14.5361 22.3255 15.0611 22.3255ZM20.8127 22.3255C21.3377 22.3255 21.7865 21.9255 21.8502 21.388V17.288C21.8865 16.8868 21.7002 16.513 21.3615 16.3005C21.0252 16.088 20.6002 16.088 20.2502 16.3005C19.9115 16.513 19.7252 16.8868 19.7752 17.288V21.388C19.8252 21.9255 20.274 22.3255 20.8127 22.3255ZM10.2739 21.388C10.2239 21.9255 9.77511 22.3255 9.23636 22.3255C8.69886 22.3255 8.24886 21.9255 8.20011 21.388V12.7505C8.16261 12.3617 8.34886 11.9755 8.68761 11.763C9.02386 11.5505 9.45011 11.5505 9.78761 11.763C10.1239 11.9755 10.3126 12.3617 10.2739 12.7505V21.388Z" fill="#2B2B2B"/>
</svg>
