<svg width="30" height="30" viewBox="0 0 30 30" fill="none" xmlns="http://www.w3.org/2000/svg">
<path fill-rule="evenodd" clip-rule="evenodd" d="M2.5 15.0188C2.5 8.4339 7.7625 2.5 15.025 2.5C22.125 2.5 27.5 8.32123 27.5 14.9812C27.5 22.7053 21.2 27.5 15 27.5C12.95 27.5 10.675 26.9492 8.85 25.8726C8.2125 25.4845 7.675 25.1965 6.9875 25.4219L4.4625 26.173C3.825 26.3733 3.25 25.8726 3.4375 25.1965L4.275 22.3923C4.4125 22.0043 4.3875 21.5911 4.1875 21.2656C3.1125 19.2877 2.5 17.1219 2.5 15.0188ZM13.3748 15.0188C13.3748 15.9076 14.0873 16.6212 14.9748 16.6337C15.8623 16.6337 16.5748 15.9076 16.5748 15.0313C16.5748 14.1425 15.8623 13.4289 14.9748 13.4289C14.0998 13.4164 13.3748 14.1425 13.3748 15.0188ZM19.1371 15.0313C19.1371 15.9076 19.8496 16.6337 20.7371 16.6337C21.6246 16.6337 22.3371 15.9076 22.3371 15.0313C22.3371 14.1425 21.6246 13.4289 20.7371 13.4289C19.8496 13.4289 19.1371 14.1425 19.1371 15.0313ZM9.21246 16.6337C8.33746 16.6337 7.61246 15.9076 7.61246 15.0313C7.61246 14.1425 8.32496 13.4289 9.21246 13.4289C10.1 13.4289 10.8125 14.1425 10.8125 15.0313C10.8125 15.9076 10.1 16.6212 9.21246 16.6337Z" fill="#2B2B2B"/>
</svg>
