<svg width="12" height="12" viewBox="0 0 12 12" fill="none" xmlns="http://www.w3.org/2000/svg">
<path d="M6.70399 6.00009L8.85399 3.85509C8.94814 3.76094 9.00104 3.63324 9.00104 3.50009C9.00104 3.36694 8.94814 3.23924 8.85399 3.14509C8.75984 3.05094 8.63214 2.99805 8.49899 2.99805C8.36584 2.99805 8.23815 3.05094 8.14399 3.14509L5.99899 5.29509L3.85399 3.14509C3.75984 3.05094 3.63214 2.99805 3.49899 2.99805C3.36584 2.99805 3.23814 3.05094 3.14399 3.14509C3.04984 3.23924 2.99695 3.36694 2.99695 3.50009C2.99695 3.63324 3.04984 3.76094 3.14399 3.85509L5.29399 6.00009L3.14399 8.14509C3.09713 8.19157 3.05993 8.24687 3.03455 8.3078C3.00916 8.36873 2.99609 8.43409 2.99609 8.50009C2.99609 8.5661 3.00916 8.63145 3.03455 8.69238C3.05993 8.75331 3.09713 8.80861 3.14399 8.85509C3.19047 8.90196 3.24577 8.93915 3.3067 8.96454C3.36763 8.98992 3.43299 9.00299 3.49899 9.00299C3.565 9.00299 3.63035 8.98992 3.69128 8.96454C3.75221 8.93915 3.80751 8.90196 3.85399 8.85509L5.99899 6.70509L8.14399 8.85509C8.19047 8.90196 8.24577 8.93915 8.3067 8.96454C8.36763 8.98992 8.43299 9.00299 8.49899 9.00299C8.565 9.00299 8.63035 8.98992 8.69128 8.96454C8.75221 8.93915 8.80751 8.90196 8.85399 8.85509C8.90086 8.80861 8.93805 8.75331 8.96344 8.69238C8.98882 8.63145 9.00189 8.5661 9.00189 8.50009C9.00189 8.43409 8.98882 8.36873 8.96344 8.3078C8.93805 8.24687 8.90086 8.19157 8.85399 8.14509L6.70399 6.00009Z" fill="white"/>
</svg>
