<svg width="16" height="16" viewBox="0 0 16 16" fill="none" xmlns="http://www.w3.org/2000/svg">
<path d="M9.75479 7.99405L15.1254 2.63597C15.3605 2.40078 15.4927 2.0818 15.4927 1.7492C15.4927 1.4166 15.3605 1.09761 15.1254 0.862429C14.8902 0.627243 14.5712 0.495117 14.2386 0.495117C13.906 0.495117 13.587 0.627243 13.3518 0.862429L7.99374 6.233L2.63566 0.862429C2.40047 0.627243 2.08149 0.495117 1.74889 0.495117C1.41629 0.495117 1.09731 0.627243 0.862119 0.862429C0.626933 1.09761 0.494807 1.4166 0.494807 1.7492C0.494807 2.0818 0.626933 2.40078 0.862119 2.63597L6.23269 7.99405L0.862119 13.3521C0.745055 13.4682 0.652139 13.6064 0.588731 13.7586C0.525322 13.9108 0.492676 14.074 0.492676 14.2389C0.492676 14.4038 0.525322 14.567 0.588731 14.7192C0.652139 14.8714 0.745055 15.0096 0.862119 15.1257C0.978227 15.2427 1.11636 15.3357 1.26856 15.3991C1.42076 15.4625 1.58401 15.4951 1.74889 15.4951C1.91377 15.4951 2.07702 15.4625 2.22921 15.3991C2.38141 15.3357 2.51955 15.2427 2.63566 15.1257L7.99374 9.7551L13.3518 15.1257C13.4679 15.2427 13.6061 15.3357 13.7583 15.3991C13.9105 15.4625 14.0737 15.4951 14.2386 15.4951C14.4035 15.4951 14.5667 15.4625 14.7189 15.3991C14.8711 15.3357 15.0093 15.2427 15.1254 15.1257C15.2424 15.0096 15.3353 14.8714 15.3988 14.7192C15.4622 14.567 15.4948 14.4038 15.4948 14.2389C15.4948 14.074 15.4622 13.9108 15.3988 13.7586C15.3353 13.6064 15.2424 13.4682 15.1254 13.3521L9.75479 7.99405Z" fill="#2B2B2B"/>
</svg>
