<svg width="24" height="24" viewBox="0 0 24 24" fill="none" xmlns="http://www.w3.org/2000/svg">
<path d="M3.4117 4.78368C3.57979 4.74166 3.75469 4.73143 3.92846 4.72803C9.3482 4.73598 14.7668 4.72689 20.1865 4.73257C21.1837 4.73371 22.048 5.6616 21.998 6.65424C21.989 10.2568 22.0037 13.8594 21.9912 17.4619C21.9935 18.4568 21.0645 19.3245 20.073 19.2689C14.6907 19.27 9.30958 19.27 3.92846 19.2689C2.9381 19.3302 2.00452 18.4534 2.00907 17.4619C1.99998 13.8219 2.00566 10.1807 2.00566 6.53953C2.0102 5.72634 2.63145 4.9813 3.4117 4.78368ZM2.95059 6.24197C2.86655 6.7928 2.93015 7.35272 2.91993 7.90696C8.97341 7.91491 15.028 7.91036 21.0826 7.90923C21.0701 7.35385 21.1337 6.7928 21.0497 6.24197C20.9702 5.849 20.5659 5.61845 20.1843 5.64116C14.7282 5.64002 9.27211 5.64116 3.81602 5.64116C3.43442 5.61958 3.02101 5.84219 2.95059 6.24197ZM2.91084 8.82009C2.91652 9.12219 2.91652 9.4243 2.91084 9.72754C8.97 9.72868 15.0303 9.72641 21.0894 9.72868C21.0826 9.42544 21.0826 9.12219 21.0894 8.82009C15.0303 8.82122 8.97 8.82122 2.91084 8.82009ZM2.91425 10.6373C2.91538 12.8735 2.91652 15.1098 2.91198 17.3449C2.91198 17.6186 2.93923 17.9253 3.14935 18.1263C3.37877 18.366 3.73652 18.3523 4.04317 18.3614C9.38568 18.358 14.7282 18.358 20.0718 18.3614C20.3433 18.3591 20.6499 18.3342 20.8509 18.1252C21.0906 17.8946 21.0849 17.538 21.0883 17.2302C21.0815 15.0337 21.086 12.8361 21.086 10.6384C15.0292 10.6373 8.97114 10.6395 2.91425 10.6373Z" fill="#2B2B2B" stroke="#2B2B2B" stroke-width="0.4"/>
<path d="M4.9977 13.8556C6.11413 13.7648 7.24419 13.834 8.36403 13.8238C8.89101 13.7738 8.98528 14.6461 8.4617 14.7063C7.4827 14.7619 6.50028 14.7051 5.51901 14.729C5.29867 14.7131 5.03178 14.7676 4.86141 14.5916C4.63881 14.3849 4.71036 13.9624 4.9977 13.8556Z" fill="#2B2B2B" stroke="#2B2B2B" stroke-width="0.4"/>
<path d="M10.5419 13.8562C11.3868 13.7744 12.2477 13.8142 13.0961 13.8357C13.5629 13.8846 13.5697 14.666 13.0973 14.7091C12.2773 14.7421 11.4516 14.7375 10.6316 14.708C10.2102 14.6592 10.1455 13.9959 10.5419 13.8562Z" fill="#2B2B2B" stroke="#2B2B2B" stroke-width="0.4"/>
</svg>
