<svg width="28" height="28" viewBox="0 0 28 28" fill="none" xmlns="http://www.w3.org/2000/svg">
<path d="M13.125 18.9811C13.125 18.4981 13.517 18.0991 14 18.0991C14.483 18.0991 14.875 18.4853 14.875 18.9683V18.9811C14.875 19.4641 14.483 19.8561 14 19.8561C13.517 19.8561 13.125 19.4641 13.125 18.9811Z" fill="#2B2B2B"/>
<path d="M5.59523 23.821H22.4909C23.8291 23.751 24.8581 22.6111 24.7892 21.273C24.7741 21.0023 24.7157 20.7351 24.6131 20.4855L16.1232 5.62681C15.4746 4.45431 13.9987 4.02964 12.8262 4.67947C12.4272 4.89881 12.0982 5.22781 11.8777 5.62681L3.38789 20.4855C2.88389 21.7268 3.48123 23.1408 4.72139 23.646C4.97339 23.7475 5.23939 23.8058 5.51006 23.821" stroke="#2B2B2B" stroke-width="1.5" stroke-linecap="round" stroke-linejoin="round"/>
<path d="M13.9876 15.6289V12.0122" stroke="#2B2B2B" stroke-width="1.5" stroke-linecap="round" stroke-linejoin="round"/>
</svg>
