<svg width="30" height="30" viewBox="0 0 30 30" fill="none" xmlns="http://www.w3.org/2000/svg">
<path fill-rule="evenodd" clip-rule="evenodd" d="M6.175 2H10.4C12.1625 2 13.575 3.4375 13.575 5.20125V9.4625C13.575 11.2375 12.1625 12.6625 10.4 12.6625H6.175C4.425 12.6625 3 11.2375 3 9.4625V5.20125C3 3.4375 4.425 2 6.175 2ZM6.175 16.3371H10.4C12.1625 16.3371 13.575 17.7634 13.575 19.5384V23.7996C13.575 25.5621 12.1625 26.9996 10.4 26.9996H6.175C4.425 26.9996 3 25.5621 3 23.7996V19.5384C3 17.7634 4.425 16.3371 6.175 16.3371ZM24.8251 2H20.6001C18.8376 2 17.4251 3.4375 17.4251 5.20125V9.4625C17.4251 11.2375 18.8376 12.6625 20.6001 12.6625H24.8251C26.5751 12.6625 28.0001 11.2375 28.0001 9.4625V5.20125C28.0001 3.4375 26.5751 2 24.8251 2ZM20.6001 16.3371H24.8251C26.5751 16.3371 28.0001 17.7634 28.0001 19.5384V23.7996C28.0001 25.5621 26.5751 26.9996 24.8251 26.9996H20.6001C18.8376 26.9996 17.4251 25.5621 17.4251 23.7996V19.5384C17.4251 17.7634 18.8376 16.3371 20.6001 16.3371Z" fill="#2B2B2B"/>
</svg>
