<svg width="33" height="22" viewBox="0 0 33 22" fill="none" xmlns="http://www.w3.org/2000/svg">
<path d="M30.5266 0.00830078H2.4713C1.1064 0.00830078 0 1.13372 0 2.52209V19.4856C0 20.8739 1.1064 21.9994 2.4713 21.9994H30.5266C31.8914 21.9994 32.9979 20.874 32.9979 19.4856V2.52209C32.9979 1.13372 31.8915 0.00830078 30.5266 0.00830078Z" fill="#F5F5F5"/>
<path d="M0.134766 1.69164H32.8607C32.5258 0.707166 31.6071 0 30.5254 0H2.47014C1.38843 0 0.469707 0.707166 0.134766 1.69164Z" fill="#FF4B55"/>
<path d="M32.9979 6.7666H0V8.45818H32.9979V6.7666Z" fill="#FF4B55"/>
<path d="M32.9979 3.3833H0V5.07487H32.9979V3.3833Z" fill="#FF4B55"/>
<path d="M0 11.2628C0 11.5824 0.254767 11.8415 0.568955 11.8415H32.9979V10.1499H0V11.2628Z" fill="#FF4B55"/>
<path d="M32.9979 16.917H0V18.6086H32.9979V16.917Z" fill="#FF4B55"/>
<path d="M32.8608 20.2993H0.134766C0.469707 21.2838 1.38849 21.991 2.47014 21.991H30.5254C31.6071 21.991 32.5258 21.2838 32.8608 20.2993Z" fill="#FF4B55"/>
<path d="M32.9979 13.5332H0V15.2248H32.9979V13.5332Z" fill="#FF4B55"/>
<path d="M0.568955 11.8414H14.7922C15.1064 11.8414 15.3611 11.5823 15.3611 11.2627V0.578739C15.3611 0.259082 15.1064 0 14.7922 0H2.4713C1.1064 6.55573e-05 0 1.12549 0 2.51386V11.2627C0 11.5823 0.254767 11.8414 0.568955 11.8414Z" fill="#41479B"/>
<path d="M1.59703 1.32979L1.72296 1.71396L2.12106 1.71704C2.17262 1.7175 2.19395 1.78436 2.15251 1.8155L1.83226 2.05603L1.9524 2.4421C1.96799 2.49206 1.91199 2.53349 1.87003 2.50294L1.54618 2.26752L1.22232 2.503C1.18036 2.53355 1.12449 2.49212 1.13995 2.44217L1.26009 2.0561L0.93984 1.81557C0.898399 1.78436 0.919732 1.7175 0.971291 1.7171L1.36939 1.71402L1.49533 1.32986C1.51157 1.28003 1.58066 1.28003 1.59703 1.32979Z" fill="#F5F5F5"/>
<path d="M1.59703 3.33804L1.72296 3.72221L2.12106 3.72529C2.17262 3.72575 2.19395 3.79255 2.15251 3.82376L1.83226 4.06435L1.9524 4.45042C1.96799 4.50037 1.91199 4.54181 1.87003 4.51126L1.54618 4.27584L1.22232 4.51132C1.18036 4.5418 1.12449 4.50044 1.13995 4.45048L1.26009 4.06442L0.93984 3.82382C0.898399 3.79262 0.919732 3.72581 0.971291 3.72535L1.36939 3.72227L1.49533 3.33811C1.51157 3.28835 1.58066 3.28835 1.59703 3.33804Z" fill="#F5F5F5"/>
<path d="M1.59703 5.34786L1.72296 5.73202L2.12106 5.7351C2.17262 5.73556 2.19395 5.80237 2.15251 5.83357L1.83226 6.07417L1.9524 6.46023C1.96799 6.51019 1.91199 6.55162 1.87003 6.52107L1.54618 6.28565L1.22232 6.52114C1.18036 6.55162 1.12449 6.51032 1.13995 6.4603L1.26009 6.07423L0.93984 5.83364C0.898399 5.80243 0.919732 5.73563 0.971291 5.73517L1.36939 5.73209L1.49533 5.34792C1.51157 5.2981 1.58066 5.2981 1.59703 5.34786Z" fill="#F5F5F5"/>
<path d="M1.59703 7.35713L1.72296 7.7413L2.12106 7.74438C2.17262 7.74484 2.19395 7.81171 2.15251 7.84285L1.83226 8.08344L1.9524 8.46951C1.96799 8.51946 1.91199 8.5609 1.87003 8.53035L1.54618 8.29493L1.22232 8.53041C1.18036 8.5609 1.12449 8.51953 1.13995 8.46958L1.26009 8.08351L0.93984 7.84291C0.898399 7.81184 0.919732 7.74491 0.971291 7.74445L1.36939 7.74136L1.49533 7.3572C1.51157 7.30738 1.58066 7.30738 1.59703 7.35713Z" fill="#F5F5F5"/>
<path d="M1.59703 9.36685L1.72296 9.75102L2.12106 9.7541C2.17262 9.75456 2.19395 9.82136 2.15251 9.85256L1.83226 10.0932L1.9524 10.4792C1.96799 10.5292 1.91199 10.5706 1.87003 10.5401L1.54618 10.3046L1.22232 10.5401C1.18036 10.5706 1.12449 10.5292 1.13995 10.4793L1.26009 10.0932L0.93984 9.85263C0.898399 9.82142 0.919732 9.75462 0.971291 9.75416L1.36939 9.75108L1.49533 9.36692C1.51157 9.31716 1.58066 9.31716 1.59703 9.36685Z" fill="#F5F5F5"/>
<path d="M3.13023 2.31364L3.25616 2.6978L3.65426 2.70088C3.70582 2.70134 3.72716 2.76821 3.68571 2.79935L3.36547 3.03995L3.4856 3.42601C3.5012 3.47597 3.44519 3.5174 3.40324 3.48685L3.07938 3.25137L2.75552 3.48685C2.71357 3.51733 2.65769 3.47597 2.67316 3.42601L2.79329 3.03995L2.47304 2.79935C2.4316 2.76815 2.45294 2.70134 2.50449 2.70088L2.9026 2.6978L3.02853 2.31364C3.04477 2.26394 3.11392 2.26394 3.13023 2.31364Z" fill="#F5F5F5"/>
<path d="M3.13023 4.32345L3.25616 4.70762L3.65426 4.7107C3.70582 4.71116 3.72716 4.77803 3.68571 4.80917L3.36547 5.04976L3.4856 5.43583C3.5012 5.48578 3.44519 5.52721 3.40324 5.49666L3.07938 5.26118L2.75552 5.49666C2.71357 5.52715 2.65769 5.48585 2.67316 5.43583L2.79329 5.04976L2.47304 4.80917C2.4316 4.77809 2.45294 4.71116 2.50449 4.7107L2.9026 4.70762L3.02853 4.32345C3.04477 4.27369 3.11392 4.27369 3.13023 4.32345Z" fill="#F5F5F5"/>
<path d="M3.13023 6.33273L3.25616 6.71689L3.65426 6.71998C3.70582 6.72043 3.72716 6.78724 3.68571 6.81844L3.36547 7.05904L3.4856 7.4451C3.5012 7.49506 3.44519 7.53649 3.40324 7.50594L3.07938 7.27046L2.75552 7.50594C2.71357 7.53643 2.65769 7.49506 2.67316 7.4451L2.79329 7.05904L2.47304 6.81844C2.4316 6.78724 2.45294 6.72043 2.50449 6.71998L2.9026 6.71689L3.02853 6.33273C3.04477 6.28297 3.11392 6.28297 3.13023 6.33273Z" fill="#F5F5F5"/>
<path d="M3.13023 8.34245L3.25616 8.72661L3.65426 8.72969C3.70582 8.73015 3.72716 8.79695 3.68571 8.82816L3.36547 9.06875L3.4856 9.45482C3.5012 9.50477 3.44519 9.54621 3.40324 9.51566L3.07938 9.28018L2.75552 9.51566C2.71357 9.54621 2.65769 9.50477 2.67316 9.45482L2.79329 9.06875L2.47304 8.82816C2.4316 8.79695 2.45294 8.73015 2.50449 8.72969L2.9026 8.72661L3.02853 8.34245C3.04477 8.29275 3.11392 8.29275 3.13023 8.34245Z" fill="#F5F5F5"/>
<path d="M4.66343 1.32833L4.78937 1.7125L5.18747 1.71558C5.23903 1.71604 5.26036 1.78291 5.21892 1.81405L4.89867 2.05458L5.0188 2.44064C5.0344 2.4906 4.97839 2.53203 4.93644 2.50148L4.61258 2.266L4.28873 2.50148C4.24677 2.53203 4.19089 2.4906 4.20636 2.44064L4.32649 2.05458L4.00625 1.81405C3.96481 1.78284 3.98614 1.71597 4.0377 1.71558L4.4358 1.7125L4.56173 1.32833C4.57797 1.27858 4.64713 1.27858 4.66343 1.32833Z" fill="#F5F5F5"/>
<path d="M4.66343 3.33805L4.78937 3.72222L5.18747 3.7253C5.23903 3.72576 5.26036 3.79256 5.21892 3.82377L4.89867 4.06436L5.0188 4.45043C5.0344 4.50038 4.97839 4.54181 4.93644 4.51126L4.61258 4.27578L4.28873 4.51126C4.24677 4.54175 4.19089 4.50038 4.20636 4.45043L4.32649 4.06436L4.00625 3.82377C3.96481 3.79256 3.98614 3.72576 4.0377 3.7253L4.4358 3.72222L4.56173 3.33805C4.57797 3.28836 4.64713 3.28836 4.66343 3.33805Z" fill="#F5F5F5"/>
<path d="M4.66343 5.34787L4.78937 5.73203L5.18747 5.73511C5.23903 5.73557 5.26036 5.80237 5.21892 5.83358L4.89867 6.07417L5.0188 6.46024C5.0344 6.5102 4.97839 6.55163 4.93644 6.52108L4.61258 6.2856L4.28873 6.52108C4.24677 6.55156 4.19089 6.51026 4.20636 6.46024L4.32649 6.07417L4.00625 5.83358C3.96481 5.80237 3.98614 5.73557 4.0377 5.73511L4.4358 5.73203L4.56173 5.34787C4.57797 5.29811 4.64713 5.29811 4.66343 5.34787Z" fill="#F5F5F5"/>
<path d="M4.66343 7.35714L4.78937 7.74131L5.18747 7.74439C5.23903 7.74485 5.26036 7.81172 5.21892 7.84286L4.89867 8.08345L5.0188 8.46952C5.0344 8.51947 4.97839 8.5609 4.93644 8.53036L4.61258 8.29487L4.28873 8.53036C4.24677 8.56084 4.19089 8.51947 4.20636 8.46952L4.32649 8.08345L4.00625 7.84286C3.96481 7.81178 3.98614 7.74485 4.0377 7.74439L4.4358 7.74131L4.56173 7.35714C4.57797 7.30738 4.64713 7.30738 4.66343 7.35714Z" fill="#F5F5F5"/>
<path d="M4.66343 9.36686L4.78937 9.75102L5.18747 9.75411C5.23903 9.75456 5.26036 9.82137 5.21892 9.85257L4.89867 10.0932L5.0188 10.4792C5.0344 10.5292 4.97839 10.5706 4.93644 10.5401L4.61258 10.3046L4.28873 10.5401C4.24677 10.5706 4.19089 10.5292 4.20636 10.4792L4.32649 10.0932L4.00625 9.85257C3.96481 9.82137 3.98614 9.75456 4.0377 9.75411L4.4358 9.75102L4.56173 9.36686C4.57797 9.31717 4.64713 9.31717 4.66343 9.36686Z" fill="#F5F5F5"/>
<path d="M6.19859 2.31364L6.32452 2.6978L6.72262 2.70088C6.77418 2.70134 6.79552 2.76821 6.75407 2.79935L6.43383 3.03995L6.55396 3.42601C6.56956 3.47597 6.51355 3.5174 6.47159 3.48685L6.14774 3.25137L5.82388 3.48685C5.78193 3.51733 5.72605 3.47597 5.74152 3.42601L5.86165 3.03995L5.5414 2.79935C5.49996 2.76815 5.52129 2.70134 5.57285 2.70088L5.97095 2.6978L6.09689 2.31364C6.11307 2.26394 6.18228 2.26394 6.19859 2.31364Z" fill="#F5F5F5"/>
<path d="M6.19859 4.32345L6.32452 4.70762L6.72262 4.7107C6.77418 4.71116 6.79552 4.77803 6.75407 4.80917L6.43383 5.04976L6.55396 5.43583C6.56956 5.48578 6.51355 5.52721 6.47159 5.49666L6.14774 5.26118L5.82388 5.49666C5.78193 5.52715 5.72605 5.48585 5.74152 5.43583L5.86165 5.04976L5.5414 4.80917C5.49996 4.77809 5.52129 4.71116 5.57285 4.7107L5.97095 4.70762L6.09689 4.32345C6.11307 4.27369 6.18228 4.27369 6.19859 4.32345Z" fill="#F5F5F5"/>
<path d="M6.19859 6.33273L6.32452 6.71689L6.72262 6.71998C6.77418 6.72043 6.79552 6.78724 6.75407 6.81844L6.43383 7.05904L6.55396 7.4451C6.56956 7.49506 6.51355 7.53649 6.47159 7.50594L6.14774 7.27046L5.82388 7.50594C5.78193 7.53643 5.72605 7.49506 5.74152 7.4451L5.86165 7.05904L5.5414 6.81844C5.49996 6.78724 5.52129 6.72043 5.57285 6.71998L5.97095 6.71689L6.09689 6.33273C6.11307 6.28297 6.18228 6.28297 6.19859 6.33273Z" fill="#F5F5F5"/>
<path d="M6.19859 8.34245L6.32452 8.72661L6.72262 8.72969C6.77418 8.73015 6.79552 8.79695 6.75407 8.82816L6.43383 9.06875L6.55396 9.45482C6.56956 9.50477 6.51355 9.54621 6.47159 9.51566L6.14774 9.28018L5.82388 9.51566C5.78193 9.54621 5.72605 9.50477 5.74152 9.45482L5.86165 9.06875L5.5414 8.82816C5.49996 8.79695 5.52129 8.73015 5.57285 8.72969L5.97095 8.72661L6.09689 8.34245C6.11307 8.29275 6.18228 8.29275 6.19859 8.34245Z" fill="#F5F5F5"/>
<path d="M7.7299 1.32833L7.85584 1.71249L8.25394 1.71557C8.3055 1.71603 8.32683 1.7829 8.28539 1.81404L7.96514 2.05457L8.08527 2.44064C8.10087 2.49059 8.04486 2.53202 8.00291 2.50147L7.67899 2.26606L7.35513 2.50154C7.31318 2.53209 7.2573 2.49066 7.27277 2.4407L7.3929 2.05463L7.07265 1.8141C7.03121 1.7829 7.05254 1.71603 7.1041 1.71564L7.5022 1.71256L7.62814 1.32839C7.64444 1.27857 7.7136 1.27857 7.7299 1.32833Z" fill="#F5F5F5"/>
<path d="M7.7299 3.33805L7.85584 3.72222L8.25394 3.7253C8.3055 3.72576 8.32683 3.79256 8.28539 3.82377L7.96514 4.06436L8.08527 4.45043C8.10087 4.50038 8.04486 4.54181 8.00291 4.51126L7.67899 4.27578L7.35513 4.51126C7.31318 4.54175 7.2573 4.50038 7.27277 4.45043L7.3929 4.06436L7.07265 3.82377C7.03121 3.79256 7.05254 3.72576 7.1041 3.7253L7.5022 3.72222L7.62814 3.33805C7.64444 3.28836 7.7136 3.28836 7.7299 3.33805Z" fill="#F5F5F5"/>
<path d="M7.7299 5.34787L7.85584 5.73204L8.25394 5.73512C8.3055 5.73558 8.32683 5.80238 8.28539 5.83359L7.96514 6.07418L8.08527 6.46025C8.10087 6.5102 8.04486 6.55164 8.00291 6.52109L7.67899 6.28554L7.35513 6.52102C7.31318 6.5515 7.2573 6.51014 7.27277 6.46018L7.3929 6.07412L7.07265 5.83352C7.03121 5.80232 7.05254 5.73551 7.1041 5.73505L7.5022 5.73197L7.62814 5.34781C7.64444 5.29812 7.7136 5.29812 7.7299 5.34787Z" fill="#F5F5F5"/>
<path d="M7.7299 7.35714L7.85584 7.74131L8.25394 7.74439C8.3055 7.74485 8.32683 7.81172 8.28539 7.84286L7.96514 8.08345L8.08527 8.46952C8.10087 8.51947 8.04486 8.5609 8.00291 8.53036L7.67899 8.29487L7.35513 8.53036C7.31318 8.56084 7.2573 8.51947 7.27277 8.46952L7.3929 8.08345L7.07265 7.84286C7.03121 7.81178 7.05254 7.74485 7.1041 7.74439L7.5022 7.74131L7.62814 7.35714C7.64444 7.30738 7.7136 7.30738 7.7299 7.35714Z" fill="#F5F5F5"/>
<path d="M7.7299 9.36686L7.85584 9.75102L8.25394 9.75411C8.3055 9.75456 8.32683 9.82137 8.28539 9.85257L7.96514 10.0932L8.08527 10.4792C8.10087 10.5292 8.04486 10.5706 8.00291 10.5401L7.67899 10.3046L7.35513 10.5401C7.31318 10.5706 7.2573 10.5292 7.27277 10.4792L7.3929 10.0932L7.07265 9.85257C7.03121 9.82137 7.05254 9.75456 7.1041 9.75411L7.5022 9.75102L7.62814 9.36686C7.64444 9.31717 7.7136 9.31717 7.7299 9.36686Z" fill="#F5F5F5"/>
<path d="M9.265 2.31364L9.39093 2.6978L9.78903 2.70088C9.84059 2.70134 9.86192 2.76821 9.82048 2.79935L9.50023 3.03995L9.62037 3.42601C9.63596 3.47597 9.57996 3.5174 9.538 3.48685L9.21414 3.25137L8.89029 3.48685C8.84833 3.51733 8.79245 3.47597 8.80792 3.42601L8.92806 3.03995L8.60781 2.79935C8.56637 2.76815 8.5877 2.70134 8.63926 2.70088L9.03736 2.6978L9.16329 2.31364C9.1796 2.26394 9.24869 2.26394 9.265 2.31364Z" fill="#F5F5F5"/>
<path d="M9.265 4.32345L9.39093 4.70762L9.78903 4.7107C9.84059 4.71116 9.86192 4.77803 9.82048 4.80917L9.50023 5.04976L9.62037 5.43583C9.63596 5.48578 9.57996 5.52721 9.538 5.49666L9.21414 5.26118L8.89029 5.49666C8.84833 5.52715 8.79245 5.48585 8.80792 5.43583L8.92806 5.04976L8.60781 4.80917C8.56637 4.77809 8.5877 4.71116 8.63926 4.7107L9.03736 4.70762L9.16329 4.32345C9.1796 4.27369 9.24869 4.27369 9.265 4.32345Z" fill="#F5F5F5"/>
<path d="M9.265 6.33273L9.39093 6.71689L9.78903 6.71998C9.84059 6.72043 9.86192 6.78724 9.82048 6.81844L9.50023 7.05904L9.62037 7.4451C9.63596 7.49506 9.57996 7.53649 9.538 7.50594L9.21414 7.27046L8.89029 7.50594C8.84833 7.53643 8.79245 7.49506 8.80792 7.4451L8.92806 7.05904L8.60781 6.81844C8.56637 6.78724 8.5877 6.72043 8.63926 6.71998L9.03736 6.71689L9.16329 6.33273C9.1796 6.28297 9.24869 6.28297 9.265 6.33273Z" fill="#F5F5F5"/>
<path d="M9.265 8.34245L9.39093 8.72661L9.78903 8.72969C9.84059 8.73015 9.86192 8.79695 9.82048 8.82816L9.50023 9.06875L9.62037 9.45482C9.63596 9.50477 9.57996 9.54621 9.538 9.51566L9.21414 9.28018L8.89029 9.51566C8.84833 9.54621 8.79245 9.50477 8.80792 9.45482L8.92806 9.06875L8.60781 8.82816C8.56637 8.79695 8.5877 8.73015 8.63926 8.72969L9.03736 8.72661L9.16329 8.34245C9.1796 8.29275 9.24869 8.29275 9.265 8.34245Z" fill="#F5F5F5"/>
<path d="M10.7962 1.32833L10.9222 1.7125L11.3203 1.71558C11.3718 1.71604 11.3932 1.78291 11.3517 1.81405L11.0315 2.05458L11.1516 2.44064C11.1672 2.4906 11.1112 2.53203 11.0693 2.50148L10.7454 2.266L10.4215 2.50148C10.3796 2.53203 10.3237 2.4906 10.3392 2.44064L10.4593 2.05458L10.1391 1.81405C10.0976 1.78284 10.119 1.71597 10.1705 1.71558L10.5686 1.7125L10.6945 1.32833C10.7107 1.27858 10.7799 1.27858 10.7962 1.32833Z" fill="#F5F5F5"/>
<path d="M10.7962 3.33805L10.9222 3.72222L11.3203 3.7253C11.3718 3.72576 11.3932 3.79256 11.3517 3.82377L11.0315 4.06436L11.1516 4.45043C11.1672 4.50038 11.1112 4.54181 11.0693 4.51126L10.7454 4.27578L10.4215 4.51126C10.3796 4.54175 10.3237 4.50038 10.3392 4.45043L10.4593 4.06436L10.1391 3.82377C10.0976 3.79256 10.119 3.72576 10.1705 3.7253L10.5686 3.72222L10.6945 3.33805C10.7107 3.28836 10.7799 3.28836 10.7962 3.33805Z" fill="#F5F5F5"/>
<path d="M10.7962 5.34787L10.9222 5.73203L11.3203 5.73511C11.3718 5.73557 11.3932 5.80237 11.3517 5.83358L11.0315 6.07417L11.1516 6.46024C11.1672 6.5102 11.1112 6.55163 11.0693 6.52108L10.7454 6.2856L10.4215 6.52108C10.3796 6.55156 10.3237 6.51026 10.3392 6.46024L10.4593 6.07417L10.1391 5.83358C10.0976 5.80237 10.119 5.73557 10.1705 5.73511L10.5686 5.73203L10.6945 5.34787C10.7107 5.29811 10.7799 5.29811 10.7962 5.34787Z" fill="#F5F5F5"/>
<path d="M10.7962 7.35714L10.9222 7.74131L11.3203 7.74439C11.3718 7.74485 11.3932 7.81172 11.3517 7.84286L11.0315 8.08345L11.1516 8.46952C11.1672 8.51947 11.1112 8.5609 11.0693 8.53036L10.7454 8.29487L10.4215 8.53036C10.3796 8.56084 10.3237 8.51947 10.3392 8.46952L10.4593 8.08345L10.1391 7.84286C10.0976 7.81178 10.119 7.74485 10.1705 7.74439L10.5686 7.74131L10.6945 7.35714C10.7107 7.30738 10.7799 7.30738 10.7962 7.35714Z" fill="#F5F5F5"/>
<path d="M10.7962 9.36686L10.9222 9.75102L11.3203 9.75411C11.3718 9.75456 11.3932 9.82137 11.3517 9.85257L11.0315 10.0932L11.1516 10.4792C11.1672 10.5292 11.1112 10.5706 11.0693 10.5401L10.7454 10.3046L10.4215 10.5401C10.3796 10.5706 10.3237 10.5292 10.3392 10.4792L10.4593 10.0932L10.1391 9.85257C10.0976 9.82137 10.119 9.75456 10.1705 9.75411L10.5686 9.75102L10.6945 9.36686C10.7107 9.31717 10.7799 9.31717 10.7962 9.36686Z" fill="#F5F5F5"/>
<path d="M12.3314 2.31364L12.4573 2.6978L12.8554 2.70088C12.907 2.70134 12.9283 2.76821 12.8869 2.79935L12.5666 3.03995L12.6868 3.42601C12.7024 3.47597 12.6464 3.5174 12.6044 3.48685L12.2806 3.25137L11.9567 3.48685C11.9147 3.51733 11.8589 3.47597 11.8743 3.42601L11.9945 3.03995L11.6742 2.79935C11.6328 2.76815 11.6541 2.70134 11.7057 2.70088L12.1038 2.6978L12.2297 2.31364C12.2459 2.26394 12.3151 2.26394 12.3314 2.31364Z" fill="#F5F5F5"/>
<path d="M12.3314 4.32345L12.4573 4.70762L12.8554 4.7107C12.907 4.71116 12.9283 4.77803 12.8869 4.80917L12.5666 5.04976L12.6868 5.43583C12.7024 5.48578 12.6464 5.52721 12.6044 5.49666L12.2806 5.26118L11.9567 5.49666C11.9147 5.52715 11.8589 5.48585 11.8743 5.43583L11.9945 5.04976L11.6742 4.80917C11.6328 4.77809 11.6541 4.71116 11.7057 4.7107L12.1038 4.70762L12.2297 4.32345C12.2459 4.27369 12.3151 4.27369 12.3314 4.32345Z" fill="#F5F5F5"/>
<path d="M12.3314 6.33273L12.4573 6.71689L12.8554 6.71998C12.907 6.72043 12.9283 6.78724 12.8869 6.81844L12.5666 7.05904L12.6868 7.4451C12.7024 7.49506 12.6464 7.53649 12.6044 7.50594L12.2806 7.27046L11.9567 7.50594C11.9147 7.53643 11.8589 7.49506 11.8743 7.4451L11.9945 7.05904L11.6742 6.81844C11.6328 6.78724 11.6541 6.72043 11.7057 6.71998L12.1038 6.71689L12.2297 6.33273C12.2459 6.28297 12.3151 6.28297 12.3314 6.33273Z" fill="#F5F5F5"/>
<path d="M12.3314 8.34245L12.4573 8.72661L12.8554 8.72969C12.907 8.73015 12.9283 8.79695 12.8869 8.82816L12.5666 9.06875L12.6868 9.45482C12.7024 9.50477 12.6464 9.54621 12.6044 9.51566L12.2806 9.28018L11.9567 9.51566C11.9147 9.54621 11.8589 9.50477 11.8743 9.45482L11.9945 9.06875L11.6742 8.82816C11.6328 8.79695 11.6541 8.73015 11.7057 8.72969L12.1038 8.72661L12.2297 8.34245C12.2459 8.29275 12.3151 8.29275 12.3314 8.34245Z" fill="#F5F5F5"/>
<path d="M13.8627 1.32833L13.9886 1.7125L14.3867 1.71558C14.4382 1.71604 14.4596 1.78291 14.4181 1.81405L14.0979 2.05458L14.218 2.44064C14.2336 2.4906 14.1776 2.53203 14.1357 2.50148L13.8118 2.266L13.4879 2.50148C13.446 2.53203 13.3901 2.4906 13.4056 2.44064L13.5257 2.05458L13.2055 1.81405C13.164 1.78284 13.1854 1.71597 13.2369 1.71558L13.635 1.7125L13.761 1.32833C13.7772 1.27858 13.8463 1.27858 13.8627 1.32833Z" fill="#F5F5F5"/>
<path d="M13.8627 3.33805L13.9886 3.72222L14.3867 3.7253C14.4382 3.72576 14.4596 3.79256 14.4181 3.82377L14.0979 4.06436L14.218 4.45043C14.2336 4.50038 14.1776 4.54181 14.1357 4.51126L13.8118 4.27578L13.4879 4.51126C13.446 4.54175 13.3901 4.50038 13.4056 4.45043L13.5257 4.06436L13.2055 3.82377C13.164 3.79256 13.1854 3.72576 13.2369 3.7253L13.635 3.72222L13.761 3.33805C13.7772 3.28836 13.8463 3.28836 13.8627 3.33805Z" fill="#F5F5F5"/>
<path d="M13.8627 5.34787L13.9886 5.73203L14.3867 5.73511C14.4382 5.73557 14.4596 5.80237 14.4181 5.83358L14.0979 6.07417L14.218 6.46024C14.2336 6.5102 14.1776 6.55163 14.1357 6.52108L13.8118 6.2856L13.4879 6.52108C13.446 6.55156 13.3901 6.51026 13.4056 6.46024L13.5257 6.07417L13.2055 5.83358C13.164 5.80237 13.1854 5.73557 13.2369 5.73511L13.635 5.73203L13.761 5.34787C13.7772 5.29811 13.8463 5.29811 13.8627 5.34787Z" fill="#F5F5F5"/>
<path d="M13.8627 7.35714L13.9886 7.74131L14.3867 7.74439C14.4382 7.74485 14.4596 7.81172 14.4181 7.84286L14.0979 8.08345L14.218 8.46952C14.2336 8.51947 14.1776 8.5609 14.1357 8.53036L13.8118 8.29487L13.4879 8.53036C13.446 8.56084 13.3901 8.51947 13.4056 8.46952L13.5257 8.08345L13.2055 7.84286C13.164 7.81178 13.1854 7.74485 13.2369 7.74439L13.635 7.74131L13.761 7.35714C13.7772 7.30738 13.8463 7.30738 13.8627 7.35714Z" fill="#F5F5F5"/>
<path d="M13.8627 9.36686L13.9886 9.75102L14.3867 9.75411C14.4382 9.75456 14.4596 9.82137 14.4181 9.85257L14.0979 10.0932L14.218 10.4792C14.2336 10.5292 14.1776 10.5706 14.1357 10.5401L13.8118 10.3046L13.4879 10.5401C13.446 10.5706 13.3901 10.5292 13.4056 10.4792L13.5257 10.0932L13.2055 9.85257C13.164 9.82137 13.1854 9.75456 13.2369 9.75411L13.635 9.75102L13.761 9.36686C13.7772 9.31717 13.8463 9.31717 13.8627 9.36686Z" fill="#F5F5F5"/>
</svg>
