<svg width="173" height="125" viewBox="0 0 173 125" fill="none" xmlns="http://www.w3.org/2000/svg">
<path d="M21.8136 90.4561C22.6603 90.4561 23.3602 90.5689 23.8907 90.7947C24.4326 91.0205 24.8503 91.314 25.1664 91.6752C25.4711 92.0365 25.6856 92.4542 25.7985 92.9283C25.9114 93.4024 25.9678 93.8878 25.9678 94.3732V98.5388H24.5003C24.5003 96.4504 23.9698 94.949 22.9086 94.0346C21.8475 93.1202 20.3348 92.6573 18.3706 92.6573H10.5023V104.906H23.236V107.107H10.5023V120.586H18.8785C20.6734 120.586 22.1974 120.19 23.4618 119.389C24.7148 118.587 25.7759 117.131 26.6226 115.009L27.9434 115.494L26.521 119.366C26.1598 120.416 25.6969 121.24 25.1212 121.861C24.5455 122.482 23.5972 122.787 22.2539 122.787H4.12421V96.8229C4.12421 95.3553 3.92101 94.17 3.51462 93.2669C3.10823 92.3638 2.17127 91.9236 0.692445 91.9236H0.207031V90.4561H21.8136Z" fill="#1F4F9E"/>
<path d="M66.7986 114.467C66.7986 117.436 67.0469 119.671 67.5549 121.15C68.0629 122.64 68.9999 123.509 70.3771 123.769V125C66.8211 125 64.2699 124.164 62.7346 122.505C61.1994 120.834 60.4317 118.159 60.4317 114.467V97.1164L49.6962 122.787H48.0819L34.9418 96.1343V122.787H32.4922V90.4561H38.4752L50.3283 114.512L60.3753 90.4561H66.7986V114.467Z" fill="#1F4F9E"/>
<path d="M85.4125 90.4561C88.7765 90.4561 91.7116 90.8286 94.229 91.5623C96.7463 92.2961 98.846 93.346 100.551 94.7232C102.244 96.1004 103.52 97.7711 104.378 99.7466C105.224 101.722 105.653 103.957 105.653 106.43C105.653 108.845 105.247 111.058 104.423 113.067C103.61 115.077 102.402 116.804 100.799 118.238C99.196 119.671 97.2092 120.789 94.8498 121.59C92.4792 122.392 89.7586 122.787 86.6881 122.787H76.009V96.8229C76.009 95.3553 75.8058 94.17 75.3994 93.2669C74.993 92.3638 74.056 91.9236 72.5772 91.9236H72.0918V90.4561H85.4125ZM86.0559 92.4203C85.5705 92.4203 85.0964 92.4316 84.6561 92.4654C84.2159 92.4993 83.8095 92.5445 83.4595 92.6122C83.0644 92.6799 82.7032 92.7251 82.3871 92.7589V120.495C82.7145 120.563 83.0757 120.631 83.4595 120.687C84.1481 120.789 85.0061 120.834 86.0559 120.834H86.5413C88.2347 120.834 89.8038 120.507 91.2487 119.852C92.6824 119.197 93.9242 118.26 94.974 117.03C96.0239 115.799 96.8367 114.309 97.4237 112.548C98.0107 110.787 98.3042 108.811 98.3042 106.621C98.3042 104.465 98.022 102.512 97.4462 100.763C96.8705 99.0129 96.069 97.5228 95.0192 96.281C93.9693 95.0393 92.7276 94.0797 91.2713 93.4137C89.8151 92.7477 88.2121 92.409 86.4398 92.409H86.0559V92.4203Z" fill="#1F4F9E"/>
<path d="M134.273 116.624C134.86 118.057 135.582 119.209 136.429 120.055C137.276 120.902 138.258 121.399 139.364 121.523V122.753C139.104 122.821 138.732 122.878 138.258 122.923C137.784 122.968 137.366 123.002 137.005 123.002C136.226 123.002 135.379 122.923 134.476 122.776C133.573 122.629 132.692 122.336 131.835 121.896C130.965 121.455 130.153 120.823 129.385 119.988C128.617 119.152 127.94 118.035 127.353 116.635L126.224 113.892H113.118L109.077 122.81H106.627L121.076 90.4678H123.278L134.273 116.624ZM114.156 111.668H125.287L119.869 98.8891L114.156 111.668Z" fill="#1F4F9E"/>
<path d="M152.01 90.4561C155.374 90.4561 158.309 90.8286 160.827 91.5623C163.344 92.2961 165.444 93.346 167.148 94.7232C168.842 96.1004 170.117 97.7711 170.975 99.7466C171.822 101.722 172.251 103.957 172.251 106.43C172.251 108.845 171.844 111.058 171.02 113.067C170.208 115.077 169 116.804 167.397 118.238C165.794 119.671 163.807 120.789 161.448 121.59C159.077 122.392 156.356 122.787 153.286 122.787H142.607V96.8229C142.607 95.3553 142.403 94.17 141.997 93.2669C141.591 92.3638 140.654 91.9236 139.175 91.9236H138.689V90.4561H152.01ZM152.642 92.4203C152.157 92.4203 151.683 92.4316 151.243 92.4654C150.802 92.4993 150.396 92.5445 150.046 92.6122C149.651 92.6799 149.29 92.7251 148.962 92.7589V120.495C149.29 120.563 149.651 120.631 150.046 120.687C150.735 120.789 151.592 120.834 152.642 120.834H153.128C154.821 120.834 156.39 120.507 157.835 119.852C159.269 119.197 160.511 118.26 161.56 117.03C162.61 115.799 163.423 114.309 164.01 112.548C164.597 110.787 164.891 108.811 164.891 106.621C164.891 104.465 164.608 102.512 164.033 100.763C163.457 99.0129 162.655 97.5228 161.606 96.281C160.556 95.0393 159.314 94.0797 157.858 93.4137C156.401 92.7477 154.798 92.409 153.026 92.409H152.642V92.4203Z" fill="#1F4F9E"/>
<path d="M120.734 38.9573C120.734 36.1577 118.567 33.8661 115.835 33.6404C113.509 18.378 101.34 6.33297 86.0325 4.15425C85.4906 1.78362 83.357 0 80.8171 0C78.2545 0 76.1097 1.81748 75.5904 4.22198C60.52 6.59261 48.6104 18.5473 46.3075 33.6291C43.5643 33.8548 41.4082 36.1577 41.4082 38.9461C41.4082 41.7457 43.5756 44.0373 46.3075 44.263C48.6217 59.3786 60.5426 71.3447 75.6243 73.6927C75.8952 76.3794 78.1755 78.4904 80.9413 78.4904C83.6844 78.4904 85.9534 76.402 86.247 73.7379C101.453 71.4801 113.498 59.4576 115.812 44.2743C118.567 44.0598 120.734 41.7569 120.734 38.9573ZM80.8171 1.71588C82.8152 1.71588 84.4408 3.34146 84.4408 5.33956C84.4408 7.33766 82.8152 8.96324 80.8171 8.96324C78.819 8.96324 77.1934 7.33766 77.1934 5.33956C77.1934 3.34146 78.819 1.71588 80.8171 1.71588ZM43.1241 38.9573C43.1241 36.9592 44.7497 35.3337 46.7478 35.3337C48.7459 35.3337 50.3714 36.9592 50.3714 38.9573C50.3714 40.9554 48.7459 42.581 46.7478 42.581C44.7497 42.5923 43.1241 40.9554 43.1241 38.9573ZM80.9413 76.7745C78.9432 76.7745 77.3176 75.1489 77.3176 73.1508C77.3176 71.1527 78.9432 69.5272 80.9413 69.5272C82.9394 69.5272 84.5649 71.1527 84.5649 73.1508C84.5762 75.1489 82.9507 76.7745 80.9413 76.7745ZM86.1679 72.022C85.6487 69.6175 83.5038 67.8113 80.9525 67.8113C78.4126 67.8113 76.279 69.5949 75.7372 71.9768C61.5021 69.6852 50.2586 58.3965 48.0234 44.1389C50.3602 43.5631 52.0986 41.4634 52.0986 38.9573C52.0986 36.4512 50.3602 34.3515 48.0234 33.7758C50.2473 19.5972 61.3892 8.34236 75.5114 5.97173C75.8275 8.62457 78.0852 10.6904 80.8171 10.6904C83.5715 10.6904 85.8519 8.59071 86.1341 5.904C100.493 8.09401 111.872 19.4392 114.107 33.7758C111.771 34.3515 110.044 36.4512 110.044 38.9573C110.044 41.4634 111.782 43.5631 114.107 44.1389C111.872 58.4755 100.505 69.8094 86.1679 72.022ZM115.383 42.5923C113.385 42.5923 111.759 40.9667 111.759 38.9686C111.759 36.9705 113.385 35.345 115.383 35.345C117.381 35.345 119.007 36.9705 119.007 38.9686C119.018 40.9554 117.381 42.5923 115.383 42.5923Z" fill="#1F4F9E"/>
<path d="M64.1905 52.6955C62.2715 54.3211 60.3185 55.2016 58.3091 55.3597L55.5547 55.5967V55.9467H68.0852L69.0786 46.6109L68.8754 46.498C67.6788 48.9928 66.1096 51.07 64.1905 52.6955Z" fill="#F49814"/>
<path d="M61.712 36.9256C60.696 37.6255 59.2623 38.0093 57.4335 38.0319L57.4561 38.0544L55.7402 38.0996V38.4495L57.4561 38.4947C60.8315 38.585 62.9876 40.2106 63.9133 43.3601H64.1391V33.8438H63.9133C63.4505 35.1871 62.728 36.2257 61.712 36.9256Z" fill="#F49814"/>
<path d="M66.2829 22.5439H66.2038H55.5586V22.8939L57.4099 23.0971C59.7016 23.3567 61.5981 24.2034 63.1107 25.6032C64.6347 27.0143 65.9329 29.1027 67.0053 31.8571V31.8797L67.186 31.7894L66.8134 23.0971C68.3035 24.0341 69.963 25.7161 70.9 27.7706L83.8933 55.3715H85.7446L88.6797 48.745L76.5556 22.5439H66.2829Z" fill="#F49814"/>
<path d="M104.386 48.6885L104.409 48.6659V29.3961C104.409 25.4112 105.086 23.2099 106.441 22.7922V22.5664H98.8207L89.959 43.9021L90.196 44.3875L96.958 29.1026V48.6885C96.9354 52.5831 96.1904 54.7505 94.7116 55.1682V55.394H106.587V55.1682C105.12 54.7392 104.386 52.5831 104.386 48.6885Z" fill="#F49814"/>
</svg>
