<svg width="59" height="50" viewBox="0 0 59 50" fill="none" xmlns="http://www.w3.org/2000/svg">
<path fill-rule="evenodd" clip-rule="evenodd" d="M51.3802 0.012426L42.186 6.40855C38.8756 3.26035 34.4031 1.33645 29.5062 1.33645C24.5969 1.33645 20.1247 3.27277 16.8146 6.42066L7.64527 0C2.74838 5.68409 0 12.1927 0 19.7755C0 26.796 2.48619 33.2795 6.62072 38.3512L10.9929 33.979C7.95748 30.044 6.14604 25.1095 6.14604 19.7755C6.14447 15.8294 7.14601 11.9477 9.05659 8.49492L13.1166 11.3306C11.7666 13.9406 11.0639 16.837 11.0678 19.7755C11.0678 23.7479 12.3421 27.4456 14.5033 30.4689L18.938 26.034C17.8068 24.1426 17.2109 21.9793 17.2138 19.7755C17.2137 18.0993 17.5582 16.4409 18.2259 14.9035L29.5062 22.7985V22.7861L40.7741 14.9035C41.4443 16.4401 41.7889 18.099 41.7862 19.7755C41.7862 24.947 38.5758 29.4444 33.9912 31.2058C33.5914 31.3556 31.8051 32.0552 29.5062 32.9548C23.9849 35.0909 15.4403 38.3888 15.3527 38.3264L10.9805 42.6986C16.0523 46.8086 22.4981 49.2696 29.5062 49.2696C36.1524 49.2696 42.3109 47.0459 47.2578 43.2981L42.8607 38.9008C39.063 41.5616 34.4537 43.1232 29.5062 43.1232C26.7954 43.1232 24.1847 42.6613 21.7612 41.7989L29.5062 39.2133L35.4401 37.2142C42.698 34.7284 47.9446 27.8451 47.9446 19.7752C47.9446 16.727 47.1953 13.8662 45.8834 11.3303L49.931 8.48218C51.7918 11.8426 52.8543 15.6904 52.8543 19.7755C52.8543 25.4593 50.8052 30.6811 47.3948 34.7411L51.7549 39.1009C56.2644 33.9166 59 27.1458 59 19.7755C59.0003 12.1799 56.1146 5.24669 51.3802 0.012426ZM29.5062 15.303L21.9986 10.0439C24.0849 8.4449 26.6833 7.4828 29.5062 7.4828C32.317 7.4828 34.9154 8.43217 37.0017 10.0439L29.5062 15.303Z" fill="white"/>
</svg>
