<svg width="28" height="28" viewBox="0 0 28 28" fill="none" xmlns="http://www.w3.org/2000/svg">
<path fill-rule="evenodd" clip-rule="evenodd" d="M13.7205 24.3294C11.1881 22.7709 8.83231 20.9366 6.69519 18.8594C5.19269 17.3634 4.04886 15.5397 3.35129 13.528C2.09602 9.62536 3.56227 5.15763 7.66565 3.83544C9.82223 3.14117 12.1775 3.53798 13.9948 4.90172C15.8127 3.53964 18.1672 3.14297 20.3239 3.83544C24.4273 5.15763 25.9041 9.62536 24.6488 13.528C23.9513 15.5397 22.8074 17.3634 21.3049 18.8594C19.1678 20.9366 16.812 22.7709 14.2796 24.3294L14.0053 24.5L13.7205 24.3294Z" stroke="#2B2B2B" stroke-width="1.5" stroke-linecap="round" stroke-linejoin="round"/>
<path d="M18.3613 8.22852C19.6042 8.62553 20.4873 9.74133 20.5976 11.0542" stroke="#2B2B2B" stroke-width="1.5" stroke-linecap="round" stroke-linejoin="round"/>
</svg>
