<svg width="20" height="20" viewBox="0 0 20 20" fill="none" xmlns="http://www.w3.org/2000/svg">
<path fill-rule="evenodd" clip-rule="evenodd" d="M16.9479 6.38282C17.5062 6.81532 17.8487 7.45782 17.907 8.15698L17.9154 8.32448V15.082C17.9154 16.8236 16.5395 18.2403 14.8154 18.332H13.157C12.3645 18.3161 11.7237 17.6995 11.6654 16.9245L11.657 16.807V14.4245C11.657 14.1653 11.4645 13.9495 11.207 13.907L11.132 13.8986H8.9062C8.64037 13.907 8.4237 14.0986 8.39037 14.3486L8.38203 14.4245V16.7995C8.38203 16.8486 8.37286 16.907 8.36537 16.9486L8.35703 16.9661L8.34787 17.0236C8.2487 17.7328 7.66536 18.2736 6.94036 18.3245L6.83203 18.332H5.34036C3.5987 18.332 2.1737 16.9661 2.08203 15.2486V8.32448C2.08953 7.61532 2.3987 6.95698 2.91536 6.49865L8.10703 2.32365C9.16536 1.48282 10.6487 1.44948 11.7395 2.22365L11.8737 2.32365L16.9479 6.38282ZM16.748 15.2152L16.7571 15.0819V8.3319C16.748 7.9744 16.5988 7.64023 16.3405 7.39107L16.2321 7.29857L11.1488 3.2319C10.5155 2.72357 9.61546 2.6994 8.94879 3.14023L8.82296 3.2319L3.75629 7.31607C3.46546 7.5319 3.29046 7.8569 3.24879 8.19857L3.23963 8.3319V15.0819C3.23963 16.1902 4.10629 17.0986 5.20713 17.1652H6.83213C7.01546 17.1652 7.17379 17.0411 7.19796 16.8661L7.21546 16.7161L7.22379 16.6736V14.4244C7.22379 13.5327 7.90713 12.8077 8.78213 12.7402H11.1321C12.023 12.7402 12.748 13.4244 12.8155 14.2994V16.8069C12.8155 16.9819 12.9405 17.1327 13.1071 17.1652H14.6563C15.773 17.1652 16.6813 16.3077 16.748 15.2152Z" fill="#2B2B2B"/>
</svg>
