<svg width="60" height="60" viewBox="0 0 60 60" fill="none" xmlns="http://www.w3.org/2000/svg">
<rect width="60" height="60" rx="30" fill="white"/>
<path d="M34.75 19.75C36.2087 19.75 37.6076 20.3295 38.6391 21.3609C39.6705 22.3924 40.25 23.7913 40.25 25.25V34.75C40.25 36.2087 39.6705 37.6076 38.6391 38.6391C37.6076 39.6705 36.2087 40.25 34.75 40.25H25.25C23.7913 40.25 22.3924 39.6705 21.3609 38.6391C20.3295 37.6076 19.75 36.2087 19.75 34.75V25.25C19.75 23.7913 20.3295 22.3924 21.3609 21.3609C22.3924 20.3295 23.7913 19.75 25.25 19.75H34.75ZM34.75 17.75H25.25C23.2627 17.7559 21.3585 18.548 19.9533 19.9533C18.548 21.3585 17.7559 23.2627 17.75 25.25V34.75C17.7559 36.7373 18.548 38.6415 19.9533 40.0467C21.3585 41.452 23.2627 42.2441 25.25 42.25H34.75C36.7373 42.2441 38.6415 41.452 40.0467 40.0467C41.452 38.6415 42.2441 36.7373 42.25 34.75V25.25C42.2441 23.2627 41.452 21.3585 40.0467 19.9533C38.6415 18.548 36.7373 17.7559 34.75 17.75Z" fill="#1F4F9E"/>
<path d="M36.5341 22C36.2507 22 35.9738 22.084 35.7382 22.2414C35.5026 22.3988 35.319 22.6226 35.2106 22.8843C35.1022 23.1461 35.0738 23.4341 35.1291 23.712C35.1844 23.9898 35.3208 24.2451 35.5211 24.4454C35.7215 24.6458 35.9767 24.7822 36.2546 24.8375C36.5325 24.8927 36.8205 24.8644 37.0823 24.756C37.344 24.6475 37.5677 24.4639 37.7251 24.2284C37.8825 23.9928 37.9666 23.7158 37.9666 23.4325C37.9666 23.2444 37.9295 23.0581 37.8575 22.8843C37.7855 22.7105 37.68 22.5526 37.547 22.4196C37.414 22.2866 37.2561 22.181 37.0823 22.109C36.9085 22.0371 36.7222 22 36.5341 22Z" fill="#1F4F9E"/>
<path d="M30.0677 25.6177C30.9421 25.6172 31.797 25.8761 32.5242 26.3615C33.2515 26.847 33.8184 27.5373 34.1532 28.3451C34.4881 29.1528 34.5758 30.0417 34.4053 30.8994C34.2349 31.757 33.8139 32.5448 33.1956 33.1631C32.5773 33.7814 31.7895 34.2024 30.9318 34.3729C30.0742 34.5433 29.1853 34.4556 28.3775 34.1208C27.5698 33.7859 26.8795 33.219 26.394 32.4917C25.9085 31.7645 25.6497 30.9096 25.6502 30.0352C25.6521 28.8642 26.1182 27.7417 26.9462 26.9137C27.7742 26.0857 28.8967 25.6197 30.0677 25.6177ZM30.0677 23.6177C28.7983 23.6202 27.5582 23.9988 26.5041 24.7059C25.4499 25.4129 24.629 26.4166 24.145 27.5901C23.6611 28.7635 23.5359 30.0541 23.7852 31.2987C24.0346 32.5433 24.6472 33.6861 25.5458 34.5826C26.4444 35.4791 27.5886 36.0891 28.8338 36.3355C30.079 36.582 31.3693 36.4537 32.5416 35.9671C33.7139 35.4804 34.7157 34.6571 35.4203 33.6013C36.1249 32.5455 36.5006 31.3045 36.5002 30.0352C36.4998 29.1913 36.3331 28.3557 36.0096 27.5762C35.686 26.7968 35.2119 26.0888 34.6145 25.4928C34.017 24.8967 33.3079 24.4243 32.5277 24.1026C31.7476 23.7808 30.9116 23.616 30.0677 23.6177Z" fill="#1F4F9E"/>
</svg>
