<svg width="10" height="18" viewBox="0 0 10 18" fill="none" xmlns="http://www.w3.org/2000/svg">
<path d="M9.74959 1.50023C9.75017 1.79229 9.64845 2.07533 9.46209 2.30022L3.86209 9.00023L9.26209 15.7127C9.36593 15.8406 9.44347 15.9877 9.49026 16.1456C9.53705 16.3036 9.55216 16.4692 9.53474 16.633C9.51731 16.7967 9.46769 16.9555 9.38873 17.1C9.30976 17.2446 9.203 17.3721 9.07459 17.4752C8.94673 17.5791 8.79961 17.6566 8.64169 17.7034C8.48377 17.7502 8.31815 17.7653 8.15437 17.7479C7.99058 17.7304 7.83185 17.6808 7.68731 17.6019C7.54276 17.5229 7.41525 17.4161 7.31209 17.2877L1.27459 9.78772C1.09074 9.56406 0.990234 9.28351 0.990234 8.99397C0.990234 8.70444 1.09074 8.42389 1.27459 8.20022L7.52459 0.700226C7.62953 0.573652 7.75841 0.469023 7.90384 0.392334C8.04927 0.315643 8.20841 0.268396 8.37213 0.253302C8.53585 0.238207 8.70094 0.255562 8.85795 0.304367C9.01495 0.353172 9.16078 0.43247 9.28709 0.537724C9.43049 0.654041 9.54633 0.80068 9.6263 0.967102C9.70627 1.13352 9.74837 1.31559 9.74959 1.50023Z" fill="#454F63"/>
</svg>
