<svg width="20" height="20" viewBox="0 0 20 20" fill="none" xmlns="http://www.w3.org/2000/svg">
<path fill-rule="evenodd" clip-rule="evenodd" d="M17.9129 5.19895C17.8223 3.24274 16.2081 1.68506 14.2294 1.68506H10.1594L9.98542 1.68908C8.02458 1.77988 6.46361 3.39721 6.46361 5.38006V6.15756L6.46932 6.24237C6.5107 6.54743 6.7722 6.78256 7.08861 6.78256C7.43379 6.78256 7.71361 6.50274 7.71361 6.15756V5.38006L7.71776 5.23635C7.79212 3.95254 8.85632 2.93506 10.1594 2.93506H14.2294L14.3727 2.9392C15.6525 3.01331 16.6669 4.07416 16.6669 5.37256V14.6559L16.6628 14.7996C16.5884 16.0834 15.5235 17.1017 14.2211 17.1017H10.1503L10.0071 17.0976C8.72828 17.0234 7.71361 15.962 7.71361 14.6642V13.8792L7.70791 13.7944C7.66652 13.4894 7.40503 13.2542 7.08861 13.2542C6.74343 13.2542 6.46361 13.534 6.46361 13.8792V14.6642L6.46786 14.8429C6.56105 16.7961 8.17425 18.3517 10.1503 18.3517H14.2211L14.3951 18.3477C16.3553 18.2568 17.9169 16.6386 17.9169 14.6559V5.37256L17.9129 5.19895ZM10.2961 7.1472C10.5175 6.92486 10.8647 6.90397 11.1098 7.08502L11.18 7.14539L13.62 9.57539C13.843 9.79746 13.8632 10.1459 13.6808 10.3909L13.6785 10.3936C13.6611 10.4167 13.6421 10.4386 13.6216 10.4592L13.62 10.4611L11.18 12.8911C10.9354 13.1347 10.5397 13.1338 10.2961 12.8893C10.0747 12.6669 10.0552 12.3197 10.2373 12.0754L10.2979 12.0054L11.6652 10.6432H3.14453C2.79935 10.6432 2.51953 10.3634 2.51953 10.0182C2.51953 9.70182 2.75466 9.44032 3.05972 9.39894L3.14453 9.39323H11.665L10.2979 8.03108C10.0756 7.80965 10.0547 7.46247 10.2357 7.21742L10.2961 7.1472Z" fill="#2B2B2B"/>
</svg>
