<?xml version="1.0" standalone="no"?>
<!DOCTYPE svg PUBLIC "-//W3C//DTD SVG 20010904//EN"
 "http://www.w3.org/TR/2001/REC-SVG-20010904/DTD/svg10.dtd">
<svg version="1.0" xmlns="http://www.w3.org/2000/svg"
 width="840.000000pt" height="954.000000pt" viewBox="0 0 840.000000 954.000000"
 preserveAspectRatio="xMidYMid meet">

<g transform="translate(0.000000,954.000000) scale(0.100000,-0.100000)"
fill="#000000" stroke="none">
<path d="M4068 9124 c-184 -44 -349 -205 -411 -399 l-22 -70 0 -1840 0 -1840
24 -73 c29 -87 79 -169 147 -236 298 -298 802 -171 935 236 l24 73 0 1840 0
1840 -22 70 c-47 147 -166 291 -294 356 -112 56 -260 73 -381 43z"/>
<path d="M6020 7964 c-156 -41 -292 -152 -362 -294 -48 -97 -60 -153 -59 -270
1 -229 77 -352 341 -552 582 -439 992 -1154 1095 -1908 36 -269 30 -649 -16
-920 -106 -624 -451 -1255 -919 -1677 -379 -342 -846 -587 -1311 -687 -221
-48 -338 -60 -589 -60 -407 0 -729 65 -1090 220 -346 150 -634 346 -906 618
-212 212 -349 394 -497 659 -349 628 -454 1404 -288 2127 149 645 495 1192
1022 1612 124 99 180 161 222 244 52 105 62 154 61 289 -1 137 -15 187 -85
296 -175 271 -515 347 -778 175 -206 -135 -563 -485 -784 -769 -469 -601 -761
-1333 -849 -2122 -20 -182 -17 -711 6 -900 91 -778 391 -1501 870 -2103 363
-456 811 -818 1351 -1092 589 -300 1189 -435 1840 -417 611 17 1111 144 1650
416 861 436 1521 1141 1913 2042 238 549 343 1100 329 1734 -7 322 -25 473
-92 790 -203 947 -770 1834 -1549 2418 -150 112 -241 147 -386 146 -47 0 -110
-7 -140 -15z"/>
</g>
</svg>
