<svg width="245" height="80" viewBox="0 0 245 80" fill="none" xmlns="http://www.w3.org/2000/svg">
<path d="M114.662 25.1392C115.395 25.1392 115.994 25.2386 116.46 25.4355C116.925 25.6334 117.292 25.8869 117.561 26.1969C117.829 26.5079 118.012 26.8677 118.111 27.2761C118.209 27.6856 118.259 28.1009 118.259 28.525V32.1214H116.99C116.99 30.3159 116.53 29.0183 115.614 28.2286C114.697 27.439 113.392 27.0441 111.7 27.0441H104.886V37.6228H115.888V39.5268H104.886V51.1642H112.122C113.673 51.1642 114.992 50.8191 116.078 50.1279C117.164 49.4367 118.074 48.1752 118.808 46.3404L119.95 46.7635L118.723 50.1065C118.412 51.0092 118.01 51.7287 117.517 52.2649C117.023 52.8011 116.198 53.0692 115.042 53.0692H99.3849V30.6396C99.3849 29.3702 99.2084 28.3476 98.8555 27.5715C98.5026 26.7955 97.6915 26.4075 96.4221 26.4075H96V25.1392H114.662Z" fill="#1F4F9E"/>
<path d="M153.506 45.8734C153.506 48.4413 153.725 50.3667 154.162 51.6497C154.599 52.9337 155.41 53.6873 156.596 53.9134V54.9712C153.521 54.9712 151.321 54.2517 149.995 52.8128C148.669 51.3738 148.006 49.0613 148.006 45.8724V30.894L138.738 53.0682H137.342L126 30.0478V53.0682H123.885V25.1392H129.047L139.287 45.9163L147.962 25.1392H153.505V45.8734H153.506Z" fill="#1F4F9E"/>
<path d="M169.586 25.1392C172.491 25.1392 175.03 25.457 177.203 26.0916C179.375 26.7263 181.194 27.6359 182.661 28.8214C184.128 30.0059 185.228 31.4526 185.962 33.1587C186.695 34.8658 187.063 36.7912 187.063 38.935C187.063 41.0233 186.71 42.9341 186.005 44.6684C185.299 46.4038 184.255 47.8915 182.874 49.1325C181.491 50.3745 179.778 51.3407 177.732 52.0309C175.686 52.7221 173.337 53.0672 170.687 53.0672H161.462V30.6396C161.462 29.3702 161.286 28.3476 160.933 27.5715C160.58 26.7955 159.769 26.4075 158.499 26.4075H158.076V25.1392H169.586ZM170.137 26.8316C169.714 26.8316 169.312 26.8462 168.931 26.8735C168.55 26.9018 168.204 26.9447 167.894 27.0003C167.556 27.0568 167.245 27.0997 166.963 27.127V51.0784C167.245 51.135 167.556 51.1915 167.894 51.2481C168.487 51.3329 169.234 51.3748 170.137 51.3748H170.56C172.026 51.3748 173.38 51.093 174.622 50.5286C175.863 49.9651 176.935 49.153 177.838 48.0952C178.741 47.0375 179.446 45.7467 179.954 44.2229C180.462 42.6991 180.715 40.993 180.715 39.1027C180.715 37.2406 180.468 35.555 179.974 34.0459C179.48 32.5367 178.782 31.246 177.879 30.1736C176.977 29.1021 175.897 28.2764 174.642 27.6983C173.386 27.1202 171.997 26.8306 170.474 26.8306H170.137V26.8316Z" fill="#1F4F9E"/>
<path d="M211.776 47.7355C212.284 48.9775 212.904 49.9641 213.638 50.6972C214.371 51.4313 215.217 51.8544 216.177 51.9666V53.0243C215.95 53.0809 215.633 53.1306 215.224 53.1725C214.815 53.2144 214.455 53.2359 214.145 53.2359C213.468 53.2359 212.741 53.1725 211.966 53.0458C211.19 52.919 210.428 52.6646 209.681 52.2844C208.933 51.9032 208.227 51.3534 207.565 50.6339C206.902 49.9144 206.316 48.9483 205.809 47.7355L204.831 45.3655H193.514L190.026 53.0672H187.91L200.394 25.1382H202.298L211.776 47.7355ZM194.408 43.4615H204.023L199.344 32.4168L194.408 43.4615Z" fill="#1F4F9E"/>
<path d="M227.094 25.1392C229.999 25.1392 232.538 25.457 234.711 26.0916C236.883 26.7263 238.702 27.6359 240.169 28.8214C241.635 30.0059 242.736 31.4526 243.47 33.1587C244.203 34.8658 244.571 36.7912 244.571 38.935C244.571 41.0233 244.218 42.9341 243.513 44.6684C242.807 46.4038 241.764 47.8915 240.382 49.1325C238.999 50.3745 237.285 51.3407 235.24 52.0309C233.194 52.7221 230.846 53.0672 228.194 53.0672H218.97V30.6396C218.97 29.3702 218.793 28.3476 218.44 27.5715C218.088 26.7955 217.276 26.4075 216.007 26.4075H215.584V25.1392H227.094ZM227.645 26.8316C227.221 26.8316 226.82 26.8462 226.439 26.8735C226.057 26.9018 225.712 26.9447 225.402 27.0003C225.064 27.0568 224.753 27.0997 224.471 27.127V51.0784C224.753 51.135 225.064 51.1915 225.402 51.2481C225.995 51.3329 226.742 51.3748 227.645 51.3748H228.068C229.534 51.3748 230.888 51.093 232.13 50.5286C233.371 49.9651 234.443 49.153 235.346 48.0952C236.249 47.0375 236.954 45.7467 237.462 44.2229C237.97 42.6991 238.223 40.993 238.223 39.1027C238.223 37.2406 237.976 35.555 237.482 34.0459C236.988 32.5367 236.29 31.246 235.387 30.1736C234.484 29.1021 233.405 28.2764 232.15 27.6983C230.894 27.1202 229.505 26.8306 227.982 26.8306H227.645V26.8316Z" fill="#1F4F9E"/>
<path d="M80 39.7055C80 36.8534 77.8186 34.511 75.0543 34.2809C72.7067 18.731 60.4415 6.44961 44.9998 4.23723C44.4533 1.81431 42.3083 0 39.749 0C37.1634 0 34.9991 1.84998 34.4788 4.30741C19.283 6.71997 7.26828 18.9059 4.94571 34.2821C2.18139 34.5122 0 36.8546 0 39.7066C0 42.5587 2.18139 44.9011 4.94571 45.13C7.26828 60.5166 19.3001 72.7105 34.5107 75.1104C34.7873 77.8532 37.0871 80 39.8731 80C42.6431 80 44.9303 77.8762 45.2286 75.1565C60.5621 72.8555 72.7158 60.6063 75.0509 45.1312C77.8175 44.9011 80 42.5587 80 39.7055ZM39.749 1.74988C41.7664 1.74988 43.407 3.40773 43.407 5.44639C43.407 7.48504 41.7664 9.14289 39.749 9.14289C37.7315 9.14289 36.0909 7.48504 36.0909 5.44639C36.0909 3.40773 37.7315 1.74988 39.749 1.74988ZM1.73282 39.7055C1.73282 37.6668 3.37342 36.009 5.39087 36.009C7.40718 36.009 9.04891 37.6668 9.04891 39.7055C9.04891 41.743 7.40831 43.402 5.39087 43.402C3.37342 43.402 1.73282 41.7441 1.73282 39.7055ZM39.8742 78.249C37.8567 78.249 36.2161 76.5911 36.2161 74.5525C36.2161 72.5138 37.8567 70.856 39.8742 70.856C41.8916 70.856 43.5322 72.5138 43.5322 74.5525C43.5334 76.59 41.8916 78.249 39.8742 78.249ZM45.1398 73.3962C44.6138 70.9468 42.4541 69.1049 39.8742 69.1049C37.3103 69.1049 35.1619 70.9261 34.6199 73.3537C20.2678 71.0182 8.92254 59.5122 6.67511 44.9885C9.02728 44.404 10.7795 42.2607 10.7795 39.7055C10.7795 37.1503 9.02728 35.0058 6.67397 34.4213C8.91115 19.9724 20.1517 8.50782 34.3991 6.08951C34.7156 8.79084 36.9915 10.8928 39.7478 10.8928C42.5292 10.8928 44.8256 8.75173 45.1079 6.01473C59.5898 8.24896 71.0638 19.8079 73.3249 34.4225C70.9727 35.0081 69.2205 37.1514 69.2205 39.7066C69.2205 42.2607 70.9716 44.4029 73.3215 44.9885C71.0627 59.5939 59.6058 71.1516 45.1398 73.3962ZM74.6103 43.402C72.594 43.402 70.9522 41.7441 70.9522 39.7055C70.9522 37.6668 72.5928 36.009 74.6103 36.009C76.6277 36.009 78.2683 37.6668 78.2683 39.7055C78.2683 41.7441 76.6277 43.402 74.6103 43.402Z" fill="#1F4F9E"/>
<path d="M22.9741 53.7036C21.0421 55.3649 19.0645 56.2623 17.0425 56.4199L14.2656 56.6673V57.0262H26.9054L27.905 47.5083L27.7058 47.3955C26.4842 49.9323 24.9073 52.0423 22.9741 53.7036Z" fill="#F49814"/>
<path d="M20.4619 37.6324C19.4395 38.3503 17.9958 38.7322 16.1526 38.7552L16.1742 38.7771L14.4414 38.822V39.1809L16.1742 39.2258C19.5727 39.3155 21.7507 40.9768 22.6831 44.1867H22.9051V34.4893H22.6831C22.2163 35.8583 21.4831 36.9133 20.4619 37.6324Z" fill="#F49814"/>
<path d="M25.0796 22.9731H25.0033H14.2637V23.3321L16.1297 23.5346C18.4397 23.8038 20.3502 24.6563 21.8838 26.0933C23.4162 27.5302 24.7266 29.6621 25.815 32.4681V32.4911L25.9926 32.4014L25.6169 23.5472C27.1175 24.5067 28.7923 26.2175 29.7441 28.316L42.8506 56.443H44.7167L47.6711 49.6862L35.4309 22.9731H25.0796Z" fill="#F49814"/>
<path d="M63.5025 49.6194L63.5242 49.5964V29.9554C63.5242 25.8919 64.213 23.6473 65.5678 23.2204V22.9961H57.8817L48.9512 44.7483L49.1959 45.2418L56.0157 29.6631V49.6194C55.9929 53.5932 55.238 55.7929 53.75 56.2197V56.4441H65.7238V56.2197C64.2357 55.7929 63.5025 53.5932 63.5025 49.6194Z" fill="#F49814"/>
</svg>
