<svg width="291" height="211" viewBox="0 0 291 211" fill="none" xmlns="http://www.w3.org/2000/svg">
<path d="M36.4691 152.486C37.8981 152.486 39.0592 152.694 39.982 153.051C40.9049 153.438 41.6194 153.944 42.1255 154.54C42.6614 155.135 43.0187 155.85 43.1973 156.653C43.3759 157.457 43.495 158.261 43.495 159.095V166.121H41.024C41.024 162.608 40.1309 160.077 38.3447 158.529C36.5584 156.981 33.9981 156.207 30.6936 156.207H17.3861V176.868H38.8805V180.589H17.3861V203.304H31.5272C34.5638 203.304 37.1241 202.619 39.2378 201.28C41.3515 199.94 43.1378 197.469 44.5667 193.897L46.7995 194.73L44.4179 201.25C43.8225 203.006 43.0187 204.406 42.066 205.477C41.1133 206.519 39.4759 207.055 37.2431 207.055H6.63886V163.233C6.63886 160.762 6.28161 158.767 5.59689 157.249C4.91216 155.731 3.33431 154.986 0.833576 154.986H0V152.515H36.4691V152.486Z" fill="white"/>
<path d="M112.298 192.974C112.298 197.975 112.714 201.756 113.578 204.257C114.441 206.758 116.019 208.246 118.341 208.663V210.717C112.327 210.717 108.04 209.318 105.45 206.49C102.86 203.691 101.58 199.166 101.58 192.944V163.709L83.4796 206.996H80.7407L58.5913 162.042V206.996H54.4531V152.486H64.5454L84.5513 193.063L101.491 152.486H112.327V192.974H112.298Z" fill="white"/>
<path d="M143.703 152.486C149.39 152.486 154.332 153.111 158.589 154.331C162.816 155.582 166.389 157.338 169.247 159.66C172.105 161.982 174.248 164.811 175.677 168.115C177.106 171.45 177.821 175.201 177.821 179.398C177.821 183.477 177.136 187.198 175.766 190.592C174.397 193.986 172.343 196.874 169.663 199.315C166.954 201.726 163.62 203.632 159.631 204.971C155.641 206.311 151.057 206.996 145.877 206.996H127.865V163.233C127.865 160.762 127.508 158.767 126.823 157.249C126.139 155.731 124.561 154.986 122.06 154.986H121.227V152.515H143.703V152.486ZM144.775 155.79C143.942 155.79 143.168 155.82 142.423 155.879C141.679 155.939 140.994 156.028 140.399 156.118C139.744 156.237 139.119 156.326 138.583 156.356V203.126C139.119 203.245 139.744 203.334 140.399 203.453C141.56 203.632 143.019 203.691 144.775 203.691H145.609C148.467 203.691 151.116 203.155 153.528 202.024C155.939 200.923 158.053 199.345 159.809 197.261C161.566 195.207 162.935 192.676 163.948 189.699C164.93 186.722 165.436 183.388 165.436 179.696C165.436 176.064 164.96 172.759 163.977 169.812C163.025 166.865 161.655 164.334 159.899 162.25C158.142 160.166 156.029 158.559 153.587 157.428C151.146 156.296 148.437 155.731 145.46 155.731H144.775V155.79Z" fill="white"/>
<path d="M226.052 196.606C227.035 199.017 228.255 200.952 229.684 202.381C231.113 203.81 232.78 204.644 234.656 204.852V206.906C234.209 207.026 233.584 207.115 232.81 207.204C232.006 207.293 231.321 207.323 230.696 207.323C229.386 207.323 227.957 207.204 226.439 206.966C224.921 206.728 223.432 206.222 221.974 205.477C220.515 204.733 219.145 203.661 217.835 202.262C216.555 200.863 215.394 198.958 214.412 196.606L212.506 191.991H190.417L183.599 207.026H179.461L203.843 152.486H207.564L226.052 196.606ZM192.143 188.27H210.929L201.789 166.716L192.143 188.27Z" fill="white"/>
<path d="M255.969 152.486C261.655 152.486 266.597 153.111 270.854 154.331C275.082 155.582 278.654 157.338 281.512 159.66C284.37 161.982 286.514 164.811 287.943 168.115C289.372 171.45 290.086 175.201 290.086 179.398C290.086 183.477 289.402 187.198 288.032 190.592C286.663 193.986 284.608 196.874 281.929 199.315C279.22 201.726 275.886 203.632 271.896 204.971C267.907 206.311 263.322 206.996 258.142 206.996H240.131V163.233C240.131 160.762 239.774 158.767 239.089 157.249C238.404 155.731 236.827 154.986 234.326 154.986H233.492V152.515H255.969V152.486ZM257.041 155.79C256.207 155.79 255.433 155.82 254.689 155.879C253.945 155.939 253.26 156.028 252.665 156.118C252.01 156.237 251.384 156.326 250.849 156.356V203.126C251.384 203.245 252.01 203.334 252.665 203.453C253.826 203.632 255.284 203.691 257.041 203.691H257.874C260.732 203.691 263.382 203.155 265.793 202.024C268.205 200.923 270.319 199.345 272.075 197.261C273.831 195.207 275.201 192.676 276.213 189.699C277.196 186.722 277.702 183.388 277.702 179.696C277.702 176.064 277.225 172.759 276.243 169.812C275.29 166.865 273.921 164.334 272.164 162.25C270.408 160.166 268.294 158.559 265.853 157.428C263.412 156.296 260.703 155.731 257.726 155.731H257.041V155.79Z" fill="white"/>
<path d="M203.244 65.6742C203.244 60.9704 199.612 57.0704 194.968 56.7132C191.038 30.9913 170.526 10.6579 144.715 6.99612C143.792 2.97707 140.22 0 135.933 0C131.616 0 127.984 3.06638 127.12 7.1152C101.726 11.1045 81.6308 31.2592 77.7606 56.7132C73.1462 57.1002 69.4844 60.9704 69.4844 65.6742C69.4844 70.3779 73.1164 74.2779 77.7606 74.6351C81.6308 100.089 101.756 120.274 127.18 124.233C127.656 128.758 131.497 132.331 136.141 132.331C140.785 132.331 144.596 128.818 145.102 124.322C170.735 120.512 191.068 100.238 194.968 74.6351C199.582 74.2779 203.244 70.4077 203.244 65.6742ZM135.933 2.88776C139.297 2.88776 142.036 5.62666 142.036 8.99075C142.036 12.3548 139.297 15.0937 135.933 15.0937C132.568 15.0937 129.83 12.3548 129.83 8.99075C129.83 5.62666 132.568 2.88776 135.933 2.88776ZM72.4019 65.6742C72.4019 62.3101 75.1408 59.5712 78.5049 59.5712C81.869 59.5712 84.6079 62.3101 84.6079 65.6742C84.6079 69.0383 81.869 71.7772 78.5049 71.7772C75.1408 71.7772 72.4019 69.0383 72.4019 65.6742ZM136.171 129.443C132.807 129.443 130.068 126.704 130.068 123.34C130.068 119.976 132.807 117.237 136.171 117.237C139.535 117.237 142.274 119.976 142.274 123.34C142.274 126.704 139.535 129.443 136.171 129.443ZM144.953 121.405C144.06 117.356 140.458 114.319 136.141 114.319C131.854 114.319 128.252 117.326 127.359 121.345C103.363 117.475 84.3995 98.4517 80.6484 74.4268C84.5781 73.4741 87.4956 69.9016 87.4956 65.6742C87.4956 61.4467 84.5781 57.904 80.6186 56.9216C84.3697 33.0157 103.155 14.0518 126.972 10.0625C127.507 14.5281 131.318 18.0113 135.903 18.0113C140.547 18.0113 144.387 14.4686 144.864 9.94341C169.067 13.635 188.24 32.7478 192.021 56.9514C188.091 57.9338 185.173 61.4765 185.173 65.7039C185.173 69.9314 188.091 73.4741 192.021 74.4565C188.299 98.5708 169.127 117.684 144.953 121.405ZM194.224 71.7772C190.86 71.7772 188.121 69.0383 188.121 65.6742C188.121 62.3101 190.86 59.5712 194.224 59.5712C197.588 59.5712 200.327 62.3101 200.327 65.6742C200.356 69.0383 197.588 71.7772 194.224 71.7772Z" fill="white"/>
<path d="M107.917 88.8358C104.672 91.5747 101.368 93.0632 98.0036 93.3311L93.3594 93.7479V94.3433H114.497L116.164 78.5946L115.836 78.416C113.782 82.5839 111.132 86.0969 107.917 88.8358Z" fill="white"/>
<path d="M103.719 62.2507C102.022 63.4415 99.6104 64.0667 96.5142 64.0964L96.544 64.1262L93.6562 64.2155V64.8109L96.544 64.9003C102.23 65.0491 105.862 67.788 107.44 73.117H107.797V57.0706H107.44C106.636 59.3034 105.416 61.0598 103.719 62.2507Z" fill="white"/>
<path d="M111.43 37.9873H111.311H93.3594V38.5827L96.4853 38.9102C100.355 39.3568 103.541 40.756 106.101 43.1376C108.662 45.5193 110.865 49.0322 112.681 53.6765V53.7062L112.978 53.5574L112.353 38.9102C114.854 40.488 117.652 43.3163 119.26 46.7994L141.171 93.331H144.297L149.239 82.167L128.787 37.9873H111.43Z" fill="white"/>
<path d="M175.674 82.0777L175.704 82.048V49.5384C175.704 42.8102 176.865 39.0889 179.128 38.4041V38.0469H166.267L151.352 74.0397L151.768 74.8435L163.171 49.062V82.0777C163.141 88.6571 161.861 92.2891 159.39 93.0036V93.3608H179.396V93.0036C176.895 92.2891 175.674 88.6571 175.674 82.0777Z" fill="white"/>
</svg>
