<svg width="1520" height="150" viewBox="0 0 1520 150" fill="none" xmlns="http://www.w3.org/2000/svg">
<rect x="170" y="72" width="495" height="6" fill="#EAEAEA"/>
<rect x="855" y="72" width="495" height="6" fill="#EAEAEA"/>
<circle cx="760" cy="75" r="75" fill="#F49814" fill-opacity="0.15"/>
<circle cx="760" cy="75" r="59" fill="url(#paint0_linear)"/>
<path d="M751.447 48.9042C752.255 48.7425 753.083 48.7425 753.905 48.7449C758.281 48.7566 762.655 48.7402 767.03 48.7519C769.295 48.773 771.535 49.7128 773.131 51.3183C774.802 52.9613 775.77 55.3003 775.723 57.6464C775.698 60.3535 774.584 63.023 772.686 64.9542C770.284 67.3941 767.846 69.7964 765.444 72.2386C764.415 73.2699 763.979 74.8941 764.497 76.2769C764.827 77.348 765.713 78.0792 766.475 78.8456C768.54 80.9128 770.623 82.9636 772.681 85.0402C774.746 87.1308 775.873 90.105 775.712 93.0394C775.566 95.2074 774.587 97.305 773.009 98.8003C771.366 100.389 769.088 101.275 766.805 101.252C762.111 101.243 757.416 101.266 752.722 101.24C749.03 101.142 745.597 98.4581 744.62 94.898C743.637 91.448 744.826 87.5761 747.312 85.0472C749.75 82.5581 752.246 80.1253 754.674 77.6269C756.043 76.2019 756.052 73.7597 754.681 72.3324C752.363 69.9628 749.989 67.6495 747.65 65.3035C744.69 62.5308 743.352 57.9136 744.971 54.105C746.089 51.4378 748.599 49.4175 751.447 48.9042ZM748.142 58.4035C748.461 60.2175 749.75 61.6472 751.067 62.8402C752.063 63.6816 753.772 63.0628 754.023 61.7902C754.259 61.23 753.594 60.487 754.18 60.0628C754.55 59.955 754.941 60.0089 755.323 59.9949C760.721 59.9949 766.119 59.9855 771.516 59.9808C772.02 58.6167 772.196 57.0535 771.61 55.687C770.905 53.8308 769.009 52.5347 767.03 52.5019C762.42 52.4972 757.81 52.5066 753.198 52.4972C750.158 52.3378 747.446 55.4035 748.142 58.4035ZM755.86 63.8691C754.674 64.162 754.168 65.7816 754.932 66.7191C755.464 67.3566 756.099 67.898 756.669 68.5027C757.29 69.1636 758.033 69.9863 759.05 69.7566C760.372 69.5902 760.974 67.83 760.191 66.8105C759.563 66.0511 758.806 65.4089 758.134 64.6894C757.59 64.0402 756.718 63.5808 755.86 63.8691ZM757.634 80.3386C756.889 80.737 756.301 81.3581 755.708 81.9488C753.91 83.7535 752.108 85.5535 750.305 87.3535C749.544 88.0964 748.906 88.9824 748.543 89.9902C756.202 89.9691 763.862 89.9855 771.521 89.9808C771.144 89.0808 770.621 88.2394 769.927 87.548C767.987 85.591 766.032 83.6456 764.089 81.6886C762.568 79.83 759.762 79.1105 757.634 80.3386Z" fill="white"/>
<circle cx="75" cy="75" r="75" fill="#45A7EA" fill-opacity="0.15"/>
<circle cx="75" cy="75" r="59" fill="url(#paint1_linear)"/>
<path d="M79.34 47.4907C80.4439 47.2259 81.6111 47.6407 82.3845 48.4493C84.3626 50.3642 86.2775 52.347 88.2439 54.2735C88.64 54.6954 89.2025 55.1501 89.0572 55.804C88.8603 56.4884 88.2134 56.9478 88.0282 57.6439C87.5782 58.9024 87.9298 60.3954 88.94 61.2814C90.072 62.3173 91.9353 62.4485 93.1704 61.5157C93.5736 61.2673 93.9486 60.8548 94.4665 60.904C94.9517 60.9321 95.2845 61.3282 95.6173 61.6353C97.6259 63.6767 99.6837 65.6735 101.681 67.7267C102.92 69.0064 102.885 71.254 101.519 72.4329C91.9306 82.0657 82.2978 91.6563 72.7001 101.284C71.9712 102.079 70.9376 102.644 69.8361 102.574C68.8165 102.569 67.94 101.955 67.2556 101.254C65.3337 99.2735 63.3626 97.3399 61.4173 95.3829C61.0025 95.0103 60.7118 94.3704 61.054 93.8548C61.5626 93.1165 62.1603 92.3618 62.1626 91.4173C62.3642 89.4696 60.5572 87.6509 58.6095 87.8384C57.6626 87.8407 56.8915 88.4126 56.1556 88.9329C55.6329 89.2868 54.979 88.9985 54.604 88.572C52.572 86.547 50.5447 84.5173 48.5173 82.4899C47.6431 81.6509 47.1978 80.3595 47.5095 79.1712C47.704 78.3181 48.3603 77.6946 48.9439 77.0923C58.4384 67.5884 67.94 58.0915 77.4392 48.5923C77.9572 48.0626 78.604 47.6407 79.34 47.4907ZM77.8962 56.5939C77.3314 56.8306 76.9376 57.3251 76.5087 57.7423C70.0306 64.2368 63.529 70.7103 57.0486 77.2048C56.2962 77.8798 56.3056 79.1548 57.0673 79.8204C61.4314 84.1915 65.8048 88.5579 70.1736 92.9267C70.722 93.5384 71.7064 93.7071 72.4048 93.2548C72.9486 92.8751 73.3728 92.3595 73.8439 91.9024C79.9447 85.811 86.0314 79.7103 92.1298 73.6189C92.7181 73.0118 93.5431 72.4118 93.5079 71.4696C93.5501 70.9118 93.2103 70.4454 92.8329 70.0774C88.4853 65.7439 84.154 61.3962 79.8064 57.0603C79.3259 56.5517 78.5595 56.3407 77.8962 56.5939Z" fill="white"/>
<path d="M60.709 78.4955C66.6387 72.5682 72.559 66.6314 78.5027 60.7228C82.098 64.3088 85.684 67.9041 89.2793 71.4924C83.3473 77.4221 77.434 83.3658 71.4832 89.2767C67.8949 85.6791 64.2996 82.0908 60.709 78.4955Z" fill="white"/>
<circle cx="1445" cy="75" r="75" fill="#56C17D" fill-opacity="0.15"/>
<circle cx="1445" cy="75" r="59" fill="url(#paint2_linear)"/>
<path d="M1441.85 48.9424C1447.84 48.2041 1454.08 49.6151 1459.15 52.8916C1461.13 54.2135 1463 55.7393 1464.56 57.5393C1468.38 61.7369 1470.72 67.219 1471.16 72.8697C1471.69 79.2635 1469.8 85.8565 1465.84 90.919C1463.11 94.5072 1459.44 97.3807 1455.29 99.1502C1450.09 101.381 1444.16 101.841 1438.67 100.474C1430.61 98.5338 1423.71 92.4869 1420.64 84.8041C1418.28 78.9799 1418.13 72.3026 1420.2 66.3729C1421.85 61.5916 1424.96 57.3401 1428.95 54.251C1432.65 51.333 1437.18 49.5002 1441.85 48.9424ZM1454 66.4807C1453.42 66.6916 1452.93 67.0783 1452.5 67.5119C1448.68 71.344 1444.84 75.1619 1441.01 78.9916C1440.62 79.3783 1440.26 79.8072 1439.81 80.1354C1439.27 80.4119 1438.57 80.0463 1438.47 79.4604C1438.36 79.001 1438.74 78.6752 1438.96 78.326C1439.61 77.4987 1439.39 76.219 1438.6 75.558C1437.75 74.7635 1437.02 73.7322 1435.86 73.3596C1434.34 72.7971 1432.5 73.3713 1431.58 74.719C1430.54 76.1205 1430.69 78.2135 1431.92 79.458C1434.15 81.7408 1436.43 83.9791 1438.68 86.2455C1439.42 87.0049 1440.42 87.5533 1441.49 87.5369C1442.57 87.5721 1443.59 87.0401 1444.33 86.283C1448.86 81.7479 1453.41 77.2197 1457.93 72.6776C1459.13 71.5362 1459.49 69.5908 1458.63 68.1447C1457.78 66.5276 1455.68 65.7752 1454 66.4807Z" fill="white"/>
<defs>
<linearGradient id="paint0_linear" x1="789.5" y1="23.5" x2="735" y2="126" gradientUnits="userSpaceOnUse">
<stop stop-color="#FFC235"/>
<stop offset="1" stop-color="#F49814"/>
</linearGradient>
<linearGradient id="paint1_linear" x1="100.5" y1="19.5" x2="43.5" y2="127.5" gradientUnits="userSpaceOnUse">
<stop stop-color="#5DBCFC"/>
<stop offset="1" stop-color="#1E84CB"/>
</linearGradient>
<linearGradient id="paint2_linear" x1="1469" y1="22" x2="1421.5" y2="124.5" gradientUnits="userSpaceOnUse">
<stop stop-color="#7CD67A"/>
<stop offset="1" stop-color="#49B97F"/>
</linearGradient>
</defs>
</svg>
