<svg width="20" height="20" viewBox="0 0 20 20" fill="none" xmlns="http://www.w3.org/2000/svg">
<path fill-rule="evenodd" clip-rule="evenodd" d="M12.1737 1.67649C12.1378 1.67009 12.1009 1.66675 12.0631 1.66675C12.0254 1.66675 11.9885 1.67009 11.9526 1.67649H6.73797C4.66522 1.67649 2.91797 3.35802 2.91797 5.409V14.3365C2.91797 16.5036 4.58847 18.2207 6.73797 18.2207H13.3955C15.4399 18.2207 17.128 16.4191 17.128 14.3365V6.69816C17.128 6.53682 17.0656 6.38172 16.9538 6.26533L12.733 1.86866C12.6151 1.74589 12.4523 1.67649 12.2821 1.67649H12.1737ZM11.4381 2.92578L6.73797 2.92645C5.34508 2.92645 4.16797 4.05928 4.16797 5.40895V14.3364C4.16797 15.8208 5.28662 16.9706 6.73797 16.9706H13.3955C14.7307 16.9706 15.878 15.7462 15.878 14.3364L15.8774 7.48599L15.1478 7.48847C14.8697 7.48814 14.5535 7.48755 14.2018 7.48675C12.7272 7.48363 11.5237 6.32782 11.4425 4.8729L11.4381 4.71591V2.92578ZM15.1934 6.23661L14.2045 6.23675C13.3667 6.23498 12.6881 5.55463 12.6881 4.71591V3.62697L15.1934 6.23661ZM11.905 12.3397C12.2502 12.3397 12.53 12.6196 12.53 12.9647C12.53 13.2812 12.2949 13.5427 11.9898 13.584L11.905 13.5897H7.40748C7.0623 13.5897 6.78248 13.3099 6.78248 12.9647C6.78248 12.6483 7.01761 12.3868 7.32267 12.3455L7.40748 12.3397H11.905ZM10.8287 8.83796C10.8287 8.49279 10.5489 8.21296 10.2037 8.21296H7.40706L7.32225 8.21867C7.01719 8.26006 6.78206 8.52155 6.78206 8.83796C6.78206 9.18314 7.06188 9.46296 7.40706 9.46296H10.2037L10.2885 9.45726C10.5936 9.41587 10.8287 9.15438 10.8287 8.83796Z" fill="#2B2B2B"/>
</svg>
