<svg width="60" height="60" viewBox="0 0 60 60" fill="none" xmlns="http://www.w3.org/2000/svg">
<rect width="60" height="60" rx="30" fill="white"/>
<path fill-rule="evenodd" clip-rule="evenodd" d="M40.1614 25.5126C40.1614 31.4271 36.8732 35.8465 32.0259 35.8465C30.3974 35.8465 28.8671 34.9661 28.3426 33.9666C28.3426 33.9666 27.4669 37.4407 27.2824 38.1114C26.6295 40.4806 24.7088 42.8507 24.5603 43.0455C24.4558 43.1805 24.2266 43.1381 24.2019 42.9594C24.1603 42.6574 23.671 39.6679 24.2473 37.229C24.5363 36.0044 26.1864 29.013 26.1864 29.013C26.1864 29.013 25.7058 28.0502 25.7058 26.6277C25.7058 24.3924 27.0006 22.7248 28.6132 22.7248C29.9846 22.7248 30.6465 23.7538 30.6465 24.9879C30.6465 26.3674 29.7692 28.4286 29.3158 30.3382C28.9373 31.938 30.118 33.2431 31.6953 33.2431C34.5517 33.2431 36.4757 29.5733 36.4757 25.2258C36.4757 21.9217 34.2507 19.4477 30.2018 19.4477C25.6292 19.4477 22.7785 22.8588 22.7785 26.6691C22.7785 27.9831 23.1664 28.91 23.7738 29.626C24.0517 29.9556 24.0917 30.0882 23.9902 30.4666C23.9167 30.7444 23.7523 31.4118 23.6821 31.6768C23.5823 32.0592 23.2725 32.1949 22.9277 32.0543C20.8218 31.1946 19.8398 28.8867 19.8398 26.2939C19.84 22.0112 23.4523 16.875 30.6162 16.875C36.3735 16.875 40.1614 21.0397 40.1614 25.5126Z" fill="#1F4F9E"/>
</svg>
