<svg width="33" height="61" viewBox="0 0 33 61" fill="none" xmlns="http://www.w3.org/2000/svg">
<path d="M15.8333 0.628906H16.8144C18.6157 0.885239 20.1094 2.50712 20.0791 4.35039C20.0954 12.2221 20.0628 20.0962 20.0931 27.9679C20.918 27.9726 21.7429 27.9726 22.5655 27.9633C22.5539 20.9491 22.5562 13.9326 22.5632 6.91604C22.5446 6.51989 22.6914 6.11908 23.0106 5.87207C23.5839 5.42698 24.3762 5.64836 25.0473 5.59011C25.0729 4.27582 24.9914 2.95687 25.0823 1.64491C25.1149 1.14157 25.5693 0.850284 25.9631 0.628906H26.569C26.9745 0.81999 27.4359 1.09264 27.4941 1.58666C27.6013 2.91726 27.5011 4.25485 27.5361 5.58777C28.2421 5.64137 29.1067 5.41533 29.6659 5.97227C30.0551 6.33347 30.0108 6.90439 30.0271 7.38676C30.0202 14.2448 30.0225 21.1029 30.0248 27.9609C30.7402 28.0192 31.6397 27.7722 32.1873 28.3804C32.6744 28.8698 32.4576 29.6061 32.432 30.2143C31.67 39.0741 30.9616 47.9386 30.2089 56.796C30.1204 58.56 28.6546 60.0305 26.9348 60.2845H5.79906C4.06532 60.0538 2.57393 58.581 2.49004 56.8077C1.72105 47.7079 0.977683 38.6057 0.211016 29.5059C0.171401 29.1028 0.201694 28.6577 0.513954 28.3618C1.01963 27.7885 1.8632 28.0169 2.52966 27.9586C2.18012 24.8337 1.84222 21.7064 1.48336 18.5815C1.41345 18.1015 1.4787 17.6191 1.6255 17.16C2.20109 15.2282 2.73239 13.2824 3.29167 11.3459C3.56897 10.3602 3.99308 9.35819 3.802 8.31422C3.77637 7.54755 3.36391 6.59679 3.99542 5.96528C4.55003 5.34309 5.68954 5.53185 6.00413 6.30551C6.32338 7.31918 6.14395 8.44006 6.60301 9.41645C7.77748 11.8796 9.08944 14.2798 10.2057 16.7685C10.688 20.483 10.8908 24.2371 11.2799 27.9656C11.7273 27.9679 12.1748 27.9703 12.6245 27.9703C12.6128 20.4131 12.6245 12.8536 12.6175 5.29649C12.6128 4.40398 12.5895 3.46488 13.0276 2.65626C13.5613 1.56335 14.6658 0.868927 15.8333 0.628906ZM15.1925 3.90064C14.9991 5.28018 15.1529 6.69466 15.1063 8.08818C15.9335 8.07653 16.7631 8.0742 17.5927 8.08585C17.5624 6.76457 17.6416 5.44097 17.5624 4.12202C17.4226 2.9359 15.556 2.76346 15.1925 3.90064ZM25.0543 8.0975C25.038 10.5793 25.059 13.061 25.0473 15.5428C25.8769 15.5451 26.7065 15.5451 27.5337 15.5311C27.5384 13.0494 27.5267 10.5676 27.5361 8.08352C26.7088 8.08352 25.8815 8.09284 25.0543 8.0975ZM15.1063 10.5699C15.1086 16.3677 15.0993 22.1655 15.1133 27.9633C15.9382 27.9703 16.7654 27.9726 17.5904 27.9679C17.5904 22.1678 17.595 16.3701 17.588 10.5699C16.7608 10.5676 15.9335 10.5676 15.1063 10.5699ZM5.47282 12.7674C5.06036 14.2332 4.6479 15.7013 4.21213 17.1623C4.0863 17.6168 3.90919 18.0782 3.98609 18.5605C4.34263 21.6948 4.6712 24.836 5.04172 27.9703C6.2861 27.9609 7.53047 27.9749 8.77485 27.9703C8.48822 24.6706 8.16431 21.3755 7.89167 18.0758C7.86603 17.7729 7.81943 17.4676 7.67728 17.195C6.95489 15.7129 6.21619 14.2378 5.47282 12.7674ZM25.0613 27.9726C25.8862 27.9703 26.7111 27.9703 27.5361 27.9679C27.5337 24.6543 27.5291 21.3406 27.5361 18.0269C26.7135 18.0246 25.8885 18.0269 25.0659 18.0269C25.0333 21.3406 25.045 24.6566 25.0613 27.9726ZM2.78832 30.4707C3.40585 37.9206 4.02571 45.3682 4.65256 52.8182C10.956 52.8322 17.2618 52.8275 23.5652 52.8205C24.1898 52.753 24.8702 53.1165 25.01 53.7596C25.2314 54.496 24.6069 55.3256 23.8379 55.3C17.5088 55.3256 11.182 55.3046 4.85529 55.3116C4.90656 55.8546 4.92287 56.4069 5.04172 56.9428C5.1862 57.5044 5.78042 57.84 6.33736 57.7957C13.016 57.7957 19.6946 57.8004 26.3709 57.7934C27.0677 57.8563 27.7132 57.2854 27.7295 56.5863C28.4682 47.878 29.1789 39.1673 29.913 30.4567C20.8714 30.4707 11.8299 30.4404 2.78832 30.4707Z" fill="white"/>
</svg>
