<svg width="33" height="61" viewBox="0 0 33 61" fill="none" xmlns="http://www.w3.org/2000/svg">
<path d="M15.8333 0.62793H16.8144C18.6157 0.884262 20.1094 2.50615 20.0791 4.34941C20.0954 12.2211 20.0628 20.0952 20.0931 27.967C20.918 27.9716 21.7429 27.9716 22.5655 27.9623C22.5539 20.9481 22.5562 13.9316 22.5632 6.91507C22.5446 6.51892 22.6914 6.1181 23.0106 5.87109C23.5839 5.42601 24.3762 5.64739 25.0473 5.58913C25.0729 4.27484 24.9914 2.95589 25.0823 1.64394C25.1149 1.14059 25.5693 0.849308 25.9631 0.62793H26.569C26.9745 0.819014 27.4359 1.09166 27.4941 1.58568C27.6013 2.91628 27.5011 4.25387 27.5361 5.5868C28.2421 5.64039 29.1067 5.41436 29.6659 5.9713C30.0551 6.33249 30.0108 6.90341 30.0271 7.38579C30.0202 14.2438 30.0225 21.1019 30.0248 27.96C30.7402 28.0182 31.6397 27.7712 32.1873 28.3794C32.6744 28.8688 32.4576 29.6052 32.432 30.2134C31.67 39.0731 30.9616 47.9376 30.2089 56.795C30.1204 58.5591 28.6546 60.0295 26.9348 60.2835H5.79906C4.06532 60.0528 2.57393 58.58 2.49004 56.8067C1.72105 47.7069 0.977683 38.6047 0.211016 29.5049C0.171401 29.1018 0.201694 28.6567 0.513954 28.3608C1.01963 27.7875 1.8632 28.0159 2.52966 27.9576C2.18012 24.8327 1.84222 21.7055 1.48336 18.5805C1.41345 18.1005 1.4787 17.6181 1.6255 17.159C2.20109 15.2272 2.73239 13.2814 3.29167 11.345C3.56897 10.3592 3.99308 9.35721 3.802 8.31324C3.77637 7.54658 3.36391 6.59582 3.99542 5.96431C4.55003 5.34212 5.68954 5.53087 6.00413 6.30453C6.32338 7.31821 6.14395 8.43908 6.60301 9.41547C7.77748 11.8786 9.08944 14.2788 10.2057 16.7676C10.688 20.482 10.8908 24.2361 11.2799 27.9646C11.7273 27.967 12.1748 27.9693 12.6245 27.9693C12.6128 20.4121 12.6245 12.8527 12.6175 5.29551C12.6128 4.40301 12.5895 3.4639 13.0276 2.65529C13.5613 1.56238 14.6658 0.86795 15.8333 0.62793ZM15.1925 3.89966C14.9991 5.2792 15.1529 6.69369 15.1063 8.0872C15.9335 8.07555 16.7631 8.07322 17.5927 8.08487C17.5624 6.7636 17.6416 5.43999 17.5624 4.12104C17.4226 2.93492 15.556 2.76248 15.1925 3.89966ZM25.0543 8.09653C25.038 10.5783 25.059 13.0601 25.0473 15.5418C25.8769 15.5441 26.7065 15.5441 27.5337 15.5302C27.5384 13.0484 27.5267 10.5666 27.5361 8.08254C26.7088 8.08254 25.8815 8.09187 25.0543 8.09653ZM15.1063 10.569C15.1086 16.3667 15.0993 22.1645 15.1133 27.9623C15.9382 27.9693 16.7654 27.9716 17.5904 27.967C17.5904 22.1668 17.595 16.3691 17.588 10.569C16.7608 10.5666 15.9335 10.5666 15.1063 10.569ZM5.47282 12.7664C5.06036 14.2322 4.6479 15.7003 4.21213 17.1614C4.0863 17.6158 3.90919 18.0772 3.98609 18.5595C4.34263 21.6938 4.6712 24.835 5.04172 27.9693C6.2861 27.96 7.53047 27.9739 8.77485 27.9693C8.48822 24.6696 8.16431 21.3745 7.89167 18.0749C7.86603 17.7719 7.81943 17.4666 7.67728 17.194C6.95489 15.7119 6.21619 14.2369 5.47282 12.7664ZM25.0613 27.9716C25.8862 27.9693 26.7111 27.9693 27.5361 27.967C27.5337 24.6533 27.5291 21.3396 27.5361 18.0259C26.7135 18.0236 25.8885 18.0259 25.0659 18.0259C25.0333 21.3396 25.045 24.6556 25.0613 27.9716ZM2.78832 30.4697C3.40585 37.9196 4.02571 45.3673 4.65256 52.8172C10.956 52.8312 17.2618 52.8265 23.5652 52.8195C24.1898 52.752 24.8702 53.1155 25.01 53.7587C25.2314 54.495 24.6069 55.3246 23.8379 55.299C17.5088 55.3246 11.182 55.3036 4.85529 55.3106C4.90656 55.8536 4.92287 56.4059 5.04172 56.9418C5.1862 57.5034 5.78042 57.839 6.33736 57.7947C13.016 57.7947 19.6946 57.7994 26.3709 57.7924C27.0677 57.8553 27.7132 57.2844 27.7295 56.5853C28.4682 47.877 29.1789 39.1664 29.913 30.4557C20.8714 30.4697 11.8299 30.4394 2.78832 30.4697Z" fill="#454F63"/>
</svg>
