<svg width="28" height="28" viewBox="0 0 28 28" fill="none" xmlns="http://www.w3.org/2000/svg">
<ellipse cx="13.508" cy="8.49088" rx="5.57437" ry="5.57437" stroke="#2B2B2B" stroke-width="1.5" stroke-linecap="round" stroke-linejoin="round"/>
<path fill-rule="evenodd" clip-rule="evenodd" d="M4.66603 21.818C4.66454 21.4261 4.75218 21.039 4.92233 20.686C5.45627 19.6181 6.96199 19.0522 8.21142 18.7959C9.11251 18.6036 10.026 18.4751 10.9452 18.4114C12.647 18.2619 14.3586 18.2619 16.0604 18.4114C16.9795 18.4758 17.893 18.6043 18.7942 18.7959C20.0436 19.0522 21.5493 19.5648 22.0833 20.686C22.4254 21.4056 22.4254 22.241 22.0833 22.9606C21.5493 24.0819 20.0436 24.5945 18.7942 24.8401C17.8941 25.0404 16.9803 25.1725 16.0604 25.2352C14.6753 25.3527 13.2837 25.3741 11.8956 25.2993C11.5753 25.2993 11.2656 25.2993 10.9452 25.2352C10.0288 25.1732 9.11839 25.0411 8.2221 24.8401C6.96199 24.5945 5.46695 24.0819 4.92233 22.9606C4.75305 22.6035 4.66549 22.2132 4.66603 21.818Z" stroke="#2B2B2B" stroke-width="1.5" stroke-linecap="round" stroke-linejoin="round"/>
</svg>
