<svg width="26" height="25" viewBox="0 0 26 25" fill="none" xmlns="http://www.w3.org/2000/svg">
<path d="M19.9499 24.25C19.75 24.2508 19.5529 24.2037 19.3749 24.1125L12.9999 20.775L6.62495 24.1125C6.41794 24.2214 6.18454 24.27 5.95129 24.2528C5.71804 24.2356 5.49429 24.1533 5.30548 24.0153C5.11667 23.8773 4.97037 23.689 4.88322 23.472C4.79606 23.255 4.77154 23.0178 4.81245 22.7875L6.06245 15.75L0.912447 10.75C0.751769 10.5897 0.637787 10.3886 0.582732 10.1684C0.527677 9.94819 0.533629 9.71713 0.599947 9.50004C0.672397 9.27788 0.805668 9.08048 0.984635 8.93024C1.1636 8.77999 1.3811 8.68292 1.61245 8.65004L8.73745 7.61254L11.8749 1.20004C11.9773 0.988702 12.1371 0.810469 12.3361 0.685758C12.5351 0.561048 12.7651 0.494904 12.9999 0.494904C13.2348 0.494904 13.4648 0.561048 13.6638 0.685758C13.8628 0.810469 14.0226 0.988702 14.1249 1.20004L17.2999 7.60004L24.4249 8.63754C24.6563 8.67042 24.8738 8.7675 25.0528 8.91774C25.2317 9.06798 25.365 9.26538 25.4375 9.48754C25.5038 9.70463 25.5097 9.93569 25.4547 10.1559C25.3996 10.3761 25.2856 10.5772 25.125 10.7375L19.9749 15.7375L21.2249 22.775C21.2696 23.0094 21.2462 23.2516 21.1576 23.4731C21.069 23.6946 20.9189 23.8861 20.7249 24.025C20.4986 24.1837 20.2261 24.2628 19.9499 24.25ZM12.9999 18.125C13.2003 18.12 13.3985 18.1674 13.5749 18.2625L18.2874 20.7625L17.3874 15.5C17.3525 15.2991 17.3673 15.0927 17.4305 14.8988C17.4937 14.7048 17.6034 14.5293 17.7499 14.3875L21.4999 10.725L16.2499 9.95004C16.0574 9.91128 15.8767 9.8277 15.7226 9.70609C15.5684 9.58447 15.445 9.42823 15.3624 9.25004L12.9999 4.56254L10.6374 9.25004C10.547 9.42967 10.4146 9.58483 10.2514 9.70234C10.0881 9.81985 9.89899 9.89625 9.69995 9.92504L4.44995 10.7L8.19995 14.3625C8.34654 14.5043 8.45622 14.6798 8.5194 14.8738C8.58259 15.0677 8.59737 15.2741 8.56245 15.475L7.66245 20.675L12.3749 18.175C12.5746 18.1008 12.791 18.0835 12.9999 18.125Z" fill="#F49814"/>
</svg>
