<svg width="10" height="18" viewBox="0 0 10 18" fill="none" xmlns="http://www.w3.org/2000/svg">
<path d="M0.250405 16.4999C0.249834 16.2078 0.351553 15.9248 0.537904 15.6999L6.13791 8.9999L0.737906 2.2874C0.634074 2.15954 0.556534 2.01242 0.509745 1.85449C0.462954 1.69657 0.447838 1.53095 0.465261 1.36717C0.482686 1.20338 0.532307 1.04466 0.611274 0.90011C0.690241 0.755564 0.796997 0.62805 0.925405 0.524896C1.05327 0.421064 1.20039 0.343525 1.35831 0.296735C1.51623 0.249946 1.68185 0.234828 1.84563 0.252252C2.00942 0.269676 2.16815 0.319298 2.31269 0.398265C2.45724 0.477233 2.58475 0.583988 2.68791 0.712397L8.7254 8.2124C8.90926 8.43606 9.00976 8.71662 9.00976 9.00615C9.00976 9.29568 8.90926 9.57623 8.7254 9.7999L2.4754 17.2999C2.37047 17.4265 2.24159 17.5311 2.09616 17.6078C1.95073 17.6845 1.79159 17.7317 1.62787 17.7468C1.46415 17.7619 1.29906 17.7446 1.14205 17.6958C0.985049 17.6469 0.839215 17.5677 0.712904 17.4624C0.569513 17.3461 0.45367 17.1994 0.373702 17.033C0.293733 16.8666 0.251626 16.6845 0.250405 16.4999Z" fill="#2B2B2B"/>
</svg>
