<svg width="30" height="30" viewBox="0 0 30 30" fill="none" xmlns="http://www.w3.org/2000/svg">
<path fill-rule="evenodd" clip-rule="evenodd" d="M9.7625 2.5H20.2388C24.1 2.5 26.25 4.725 26.25 8.5375V21.45C26.25 25.325 24.1 27.5 20.2388 27.5H9.7625C5.9625 27.5 3.75 25.325 3.75 21.45V8.5375C3.75 4.725 5.9625 2.5 9.7625 2.5ZM10.1002 8.32498V8.31248H13.8364C14.3752 8.31248 14.8127 8.74998 14.8127 9.28623C14.8127 9.83748 14.3752 10.275 13.8364 10.275H10.1002C9.56145 10.275 9.1252 9.83748 9.1252 9.29998C9.1252 8.76248 9.56145 8.32498 10.1002 8.32498ZM10.1002 15.925H19.9002C20.4377 15.925 20.8752 15.4875 20.8752 14.95C20.8752 14.4125 20.4377 13.9737 19.9002 13.9737H10.1002C9.56145 13.9737 9.1252 14.4125 9.1252 14.95C9.1252 15.4875 9.56145 15.925 10.1002 15.925ZM10.1002 21.6375H19.9002C20.399 21.5875 20.7752 21.1612 20.7752 20.6625C20.7752 20.15 20.399 19.725 19.9002 19.675H10.1002C9.72523 19.6375 9.36273 19.8125 9.16273 20.1375C8.96273 20.45 8.96273 20.8625 9.16273 21.1875C9.36273 21.5 9.72523 21.6875 10.1002 21.6375Z" fill="#2B2B2B"/>
</svg>
