<svg width="20" height="20" viewBox="0 0 20 20" fill="none" xmlns="http://www.w3.org/2000/svg">
<path fill-rule="evenodd" clip-rule="evenodd" d="M6.13029 2.69183C5.8852 2.50927 5.53666 2.52956 5.31456 2.75268L1.91641 6.16657L1.85606 6.23681C1.67508 6.48191 1.69605 6.82908 1.91846 7.05045L1.98869 7.11081C2.23379 7.29179 2.58096 7.27081 2.80234 7.04841L5.13244 4.70708V14.5422L5.13814 14.627C5.17953 14.932 5.44102 15.1672 5.75744 15.1672C6.10261 15.1672 6.38244 14.8873 6.38244 14.5422V4.70719L8.71271 7.04841L8.78267 7.10909C9.02692 7.2912 9.37419 7.27183 9.59659 7.05045C9.84123 6.80694 9.84215 6.41121 9.59863 6.16657L6.20049 2.75268L6.19661 2.74932C6.17725 2.73021 6.15666 2.71235 6.13495 2.69587L6.13029 2.69183ZM14.6504 5.37055C14.609 5.06549 14.3475 4.83036 14.0311 4.83036C13.686 4.83036 13.4061 5.11018 13.4061 5.45536V15.2902L11.0759 12.9492L11.0059 12.8885C10.7616 12.7064 10.4144 12.7258 10.192 12.9472C9.94733 13.1907 9.94642 13.5864 10.1899 13.8311L13.5881 17.2449L13.5928 17.2491C13.6116 17.2676 13.6316 17.2849 13.6526 17.3009L13.6583 17.3058C13.9034 17.4884 14.2519 17.4681 14.474 17.2449L17.8722 13.8311L17.9325 13.7608C18.1135 13.5157 18.0925 13.1686 17.8701 12.9472C17.6255 12.7037 17.2297 12.7046 16.9862 12.9492L14.6561 15.2894V5.45536L14.6504 5.37055Z" fill="#2B2B2B"/>
</svg>
