<svg width="60" height="60" viewBox="0 0 60 60" fill="none" xmlns="http://www.w3.org/2000/svg">
<rect width="60" height="60" rx="30" fill="white"/>
<path d="M43.8218 22.5033C42.7996 22.9576 41.6995 23.2641 40.5452 23.4013C41.7238 22.6957 42.6274 21.5781 43.0536 20.2449C41.9512 20.8991 40.7309 21.3738 39.431 21.6301C38.3907 20.5215 36.9079 19.8284 35.2671 19.8284C32.1169 19.8284 29.5628 22.3825 29.5628 25.5332C29.5628 25.9797 29.6131 26.4149 29.7107 26.8331C24.9694 26.5949 20.7654 24.3242 17.9517 20.8726C17.4606 21.7147 17.1795 22.6946 17.1795 23.7411C17.1795 25.72 18.1865 27.4664 19.7172 28.4892C18.7825 28.4593 17.9026 28.2025 17.1332 27.7752C17.1327 27.7989 17.1327 27.8231 17.1327 27.8474C17.1327 30.6109 19.0992 32.9161 21.7092 33.4411C21.2305 33.5709 20.7265 33.6409 20.2061 33.6409C19.838 33.6409 19.4807 33.6053 19.1325 33.5381C19.8589 35.8044 21.9654 37.4542 24.4614 37.5C22.509 39.0302 20.0497 39.9423 17.3765 39.9423C16.9165 39.9423 16.4621 39.9152 16.0156 39.8622C18.5409 41.4816 21.5393 42.4253 24.7606 42.4253C35.2541 42.4253 40.9917 33.7329 40.9917 26.1942C40.9917 25.9469 40.9866 25.7003 40.9759 25.4553C42.0901 24.6527 43.0576 23.6474 43.8218 22.5033Z" fill="#1F4F9E"/>
</svg>
