<svg width="30" height="30" viewBox="0 0 30 30" fill="none" xmlns="http://www.w3.org/2000/svg">
<path fill-rule="evenodd" clip-rule="evenodd" d="M22.2111 10.4773H27.5C27.5 6.23074 24.9556 3.75 20.6444 3.75H9.35556C5.04444 3.75 2.5 6.23074 2.5 10.4231V19.5769C2.5 23.7693 5.04444 26.25 9.35556 26.25H20.6444C24.9556 26.25 27.5 23.7693 27.5 19.5769V19.1869H22.2111C19.7565 19.1869 17.7667 17.2469 17.7667 14.8538C17.7667 12.4606 19.7565 10.5206 22.2111 10.5206V10.4773ZM22.2112 12.3405H26.5667C27.0822 12.3405 27.5001 12.7479 27.5001 13.2505V16.4137C27.4941 16.9138 27.0797 17.3178 26.5667 17.3236H22.3112C21.0685 17.3399 19.9819 16.5104 19.7001 15.3304C19.5589 14.5978 19.7571 13.8419 20.2414 13.2652C20.7257 12.6886 21.4467 12.3501 22.2112 12.3405ZM22.4002 15.6662H22.8113C23.339 15.6662 23.7668 15.2491 23.7668 14.7346C23.7668 14.22 23.339 13.8029 22.8113 13.8029H22.4002C22.1478 13.8 21.9047 13.8958 21.7252 14.0688C21.5456 14.2418 21.4446 14.4776 21.4446 14.7237C21.4446 15.24 21.8706 15.6603 22.4002 15.6662ZM8.42205 10.4772H15.4776C16.0053 10.4772 16.4332 10.0601 16.4332 9.5456C16.4332 9.03107 16.0053 8.61397 15.4776 8.61397H8.42205C7.89862 8.61393 7.47258 9.02448 7.4665 9.53477C7.46646 10.0511 7.89252 10.4713 8.42205 10.4772Z" fill="#2B2B2B"/>
</svg>
