<svg width="60" height="60" viewBox="0 0 60 60" fill="none" xmlns="http://www.w3.org/2000/svg">
<rect width="60" height="60" rx="30" fill="white"/>
<path d="M45.068 23.7334C45.068 23.4667 44.668 21.3334 43.7346 20.4001C42.5346 19.0667 41.2013 18.9334 40.5346 18.9334H40.4013C36.268 18.6667 30.1346 18.6667 30.0013 18.6667C30.0013 18.6667 23.7346 18.6667 19.6013 18.9334H19.468C18.8013 18.9334 17.468 19.0667 16.268 20.4001C15.3346 21.4667 14.9346 23.6001 14.9346 23.8667C14.9346 24.0001 14.668 26.4001 14.668 28.9334V31.2001C14.668 33.7334 14.9346 36.1334 14.9346 36.2668C14.9346 36.5334 15.3346 38.6667 16.268 39.6001C17.3346 40.8001 18.668 40.9334 19.468 41.0667C19.6013 41.0667 19.7346 41.0667 19.868 41.0667C22.268 41.3334 29.6013 41.3334 29.868 41.3334C29.868 41.3334 36.1346 41.3334 40.268 41.0667H40.4013C41.068 40.9334 42.4013 40.8001 43.6013 39.6001C44.5346 38.5334 44.9346 36.4001 44.9346 36.1334C44.9346 36.0001 45.2013 33.6001 45.2013 31.0667V28.8001C45.3346 26.4001 45.068 23.8667 45.068 23.7334ZM35.2013 30.2667L27.2013 34.5334C27.068 34.5334 27.068 34.6667 26.9346 34.6667C26.8013 34.6667 26.668 34.6667 26.668 34.5334C26.5346 34.4001 26.4013 34.2667 26.4013 34.0001V25.3334C26.4013 25.0667 26.5346 24.9334 26.668 24.8001C26.8013 24.6667 27.068 24.6667 27.3346 24.8001L35.3346 29.0667C35.6013 29.2001 35.7346 29.3334 35.7346 29.6001C35.7346 29.8667 35.468 30.1334 35.2013 30.2667Z" fill="#1F4F9E"/>
</svg>
