<svg width="50" height="50" viewBox="0 0 50 50" fill="none" xmlns="http://www.w3.org/2000/svg">
<path d="M50 24.8159C50 23.0334 48.6366 21.5694 46.9089 21.4256C45.4417 11.7069 37.7759 4.03101 28.1249 2.64827C27.7833 1.13395 26.4427 0 24.8431 0C23.2271 0 21.8744 1.15624 21.5492 2.69213C12.0519 4.19998 4.54267 11.8162 3.09107 21.4263C1.36337 21.5701 0 23.0341 0 24.8166C0 26.5992 1.36337 28.0632 3.09107 28.2063C4.54267 37.8229 12.0626 45.4441 21.5692 46.944C21.7421 48.6582 23.1794 50 24.9207 50C26.6519 50 28.0815 48.6726 28.2679 46.9728C37.8513 45.5347 45.4474 37.8789 46.9068 28.207C48.6359 28.0632 50 26.5992 50 24.8159ZM24.8431 1.09368C26.104 1.09368 27.1294 2.12983 27.1294 3.40399C27.1294 4.67815 26.104 5.71431 24.8431 5.71431C23.5822 5.71431 22.5568 4.67815 22.5568 3.40399C22.5568 2.12983 23.5822 1.09368 24.8431 1.09368ZM1.08301 24.8159C1.08301 23.5418 2.10839 22.5056 3.36929 22.5056C4.62948 22.5056 5.65557 23.5418 5.65557 24.8159C5.65557 26.0894 4.6302 27.1262 3.36929 27.1262C2.10839 27.1262 1.08301 26.0901 1.08301 24.8159ZM24.9214 48.9056C23.6605 48.9056 22.6351 47.8695 22.6351 46.5953C22.6351 45.3211 23.6605 44.285 24.9214 44.285C26.1823 44.285 27.2076 45.3211 27.2076 46.5953C27.2084 47.8687 26.1823 48.9056 24.9214 48.9056ZM28.2124 45.8726C27.8836 44.3418 26.5338 43.1906 24.9214 43.1906C23.3189 43.1906 21.9762 44.3288 21.6375 45.846C12.6674 44.3864 5.57659 37.1951 4.17194 28.1178C5.64205 27.7525 6.73716 26.4129 6.73716 24.8159C6.73716 23.2189 5.64205 21.8786 4.17123 21.5133C5.56947 12.4827 12.5948 5.31739 21.4994 3.80594C21.6972 5.49428 23.1197 6.80798 24.8424 6.80798C26.5808 6.80798 28.016 5.46983 28.1925 3.7592C37.2437 5.1556 44.4149 12.3799 45.828 21.514C44.3579 21.88 43.2628 23.2196 43.2628 24.8166C43.2628 26.4129 44.3572 27.7518 45.8259 28.1178C44.4142 37.2462 37.2536 44.4698 28.2124 45.8726ZM46.6314 27.1262C45.3712 27.1262 44.3451 26.0901 44.3451 24.8159C44.3451 23.5418 45.3705 22.5056 46.6314 22.5056C47.8923 22.5056 48.9177 23.5418 48.9177 24.8159C48.9177 26.0901 47.8923 27.1262 46.6314 27.1262Z" fill="#1F4F9E"/>
<path d="M14.3627 33.5648C13.1552 34.6031 11.9192 35.1639 10.6554 35.2624L8.91992 35.417V35.6414H16.8198L17.4446 29.6927L17.32 29.6222C16.5565 31.2077 15.571 32.5264 14.3627 33.5648Z" fill="#F49814"/>
<path d="M12.796 23.5202C12.157 23.9689 11.2547 24.2076 10.1027 24.222L10.1162 24.2357L9.0332 24.2637V24.4881L10.1162 24.5161C12.2403 24.5722 13.6015 25.6105 14.1843 27.6167H14.323V21.5558H14.1843C13.8925 22.4115 13.4343 23.0708 12.796 23.5202Z" fill="#F49814"/>
<path d="M15.6808 14.3582H15.6332H8.9209V14.5825L10.0872 14.7091C11.5309 14.8773 12.725 15.4101 13.6834 16.3082C14.6412 17.2063 15.4602 18.5387 16.1405 20.2925V20.3069L16.2515 20.2508L16.0167 14.717C16.9545 15.3167 18.0013 16.3859 18.5961 17.6974L26.7877 35.2768H27.954L29.8005 31.0538L22.1504 14.3582H15.6808Z" fill="#F49814"/>
<path d="M39.6942 31.0123L39.7077 30.9979V18.7222C39.7077 16.1825 40.1382 14.7797 40.985 14.5129V14.3727H36.1812L30.5996 27.9678L30.7526 28.2763L35.0149 18.5396V31.0123C35.0007 33.4959 34.5289 34.8707 33.5989 35.1375V35.2777H41.0825V35.1375C40.1525 34.8707 39.6942 33.4959 39.6942 31.0123Z" fill="#F49814"/>
</svg>
